<svg width="1000" height="667" viewBox="0 0 1000 667" fill="none" xmlns="http://www.w3.org/2000/svg">
<path d="M1000 666.667H0V0.000121117H1000V666.667Z" fill="url(#paint0_linear_490_4)"/>
<path d="M847.033 266.25C840.457 259.493 832.7 254.933 824.743 252.313C824.817 251.68 824.857 251.037 824.857 250.387C824.857 241.243 817.447 233.833 808.307 233.833C804.547 233.833 801.083 235.087 798.303 237.197C794.86 218.607 778.57 204.52 758.98 204.52C736.887 204.52 718.977 222.43 718.977 244.523C718.977 247.837 719.387 251.05 720.147 254.127C716.707 251.977 712.643 250.73 708.287 250.73C695.907 250.73 685.873 260.767 685.873 273.147C685.873 285.527 695.907 295.563 708.287 295.563C709.827 295.563 711.33 295.407 712.783 295.11C712.78 295.26 712.77 295.41 712.77 295.563C712.77 311.75 725.893 324.873 742.083 324.873C756.12 324.873 767.843 315.007 770.717 301.833C774.51 307.937 781.27 312 788.983 312C800.857 312 810.48 302.377 810.48 290.503C810.48 288.853 810.287 287.253 809.937 285.71C812.587 284.883 814.7 284.367 815.997 284.297C824.733 283.837 830.857 298.22 852.007 297.3C873.157 296.38 885.657 266.25 894.623 261.767C874.163 253.49 868.187 287.977 847.033 266.25" fill="#FFF6E1"/>
<path d="M743.777 312.273C738.647 312.273 733.483 309.76 730.62 305.457C726.713 299.587 727.53 291.057 732.48 286.037C737.753 280.687 745.87 280.1 751.747 280.547C757.587 280.993 762.013 282.433 765.277 284.953C770.397 288.903 772.757 296.013 771.017 302.243C770.907 302.643 770.49 302.873 770.09 302.763C769.69 302.653 769.457 302.237 769.57 301.837C771.15 296.183 769.007 289.73 764.357 286.143C761.333 283.81 757.17 282.47 751.633 282.047C746.07 281.623 738.417 282.153 733.55 287.093C729.083 291.623 728.347 299.323 731.87 304.623C735.397 309.92 742.783 312.213 748.69 309.843C752.137 308.46 755.43 304.993 755.053 301.047C754.777 298.203 752.47 295.527 749.433 294.537C746.707 293.643 743.387 293.993 740.327 295.497C739.953 295.677 739.503 295.523 739.32 295.15C739.137 294.78 739.29 294.327 739.663 294.143C743.073 292.473 746.803 292.097 749.903 293.107C753.543 294.293 756.213 297.427 756.55 300.9C757 305.587 753.217 309.647 749.25 311.24C747.503 311.94 745.643 312.273 743.777 312.273" fill="#F7E3AE"/>
<path d="M772.07 261.617C770.993 261.617 769.947 261.53 768.927 261.36C764.553 260.623 760.287 258.183 756.913 254.49C754.077 251.387 751.787 247.343 750.107 242.477C748.383 237.483 748.083 233.393 749.193 229.97C750.87 224.79 756.243 220.91 761.973 220.747C767.297 220.603 772.827 223.547 776.027 228.27C778.117 231.353 778.847 234.72 778.03 237.51C777.503 239.31 776.17 240.913 774.46 241.797C773.02 242.54 771.463 242.687 770.08 242.21C769.687 242.073 769.48 241.647 769.617 241.253C769.75 240.86 770.18 240.65 770.57 240.787C771.563 241.13 772.7 241.013 773.767 240.46C775.1 239.77 776.18 238.48 776.587 237.09C777.277 234.73 776.62 231.823 774.783 229.113C771.863 224.803 766.853 222.11 762.017 222.25C756.903 222.397 752.11 225.837 750.623 230.433C749.607 233.577 749.893 237.247 751.527 241.983C753.14 246.657 755.327 250.523 758.023 253.477C761.17 256.92 765.133 259.193 769.177 259.877C773.057 260.53 777.44 259.827 782.21 257.79C786.99 255.747 790.783 253.01 793.483 249.657C796.553 245.843 798.103 241.173 797.733 236.843C797.697 236.43 798.003 236.067 798.417 236.03C798.833 235.993 799.193 236.303 799.23 236.717C799.633 241.427 797.967 246.487 794.653 250.6C791.8 254.147 787.81 257.03 782.8 259.173C778.993 260.8 775.397 261.617 772.07 261.617" fill="#F7E3AE"/>
<path d="M711.167 289.363C710.39 289.363 709.627 289.313 708.88 289.213C704.903 288.69 701.353 286.727 699.147 283.83C696.797 280.743 695.783 276.51 696.14 271.247C696.277 269.233 696.643 266.273 698.26 263.86C700.143 261.053 703.627 259.32 707.133 259.44C710.49 259.557 713.767 261.29 715.903 264.08C717.957 266.76 718.66 270.163 717.747 272.963C716.687 276.197 713.31 278.393 710.223 277.857C708.777 277.607 707.55 276.827 706.853 275.717C706.047 274.427 706.07 272.733 706.913 271.593C707.157 271.26 707.63 271.19 707.963 271.437C708.297 271.683 708.367 272.153 708.12 272.487C707.647 273.13 707.65 274.153 708.127 274.917C708.59 275.653 709.47 276.2 710.48 276.373C712.863 276.79 715.48 275.047 716.317 272.497C717.08 270.16 716.463 267.287 714.71 264.993C712.843 262.56 709.993 261.043 707.08 260.943C704.083 260.84 701.11 262.313 699.51 264.7C698.433 266.307 697.84 268.42 697.64 271.35C697.31 276.237 698.22 280.13 700.343 282.92C702.31 285.5 705.493 287.25 709.077 287.723C712.26 288.143 715.777 287.58 719.24 286.09C724.49 283.84 728.29 279.857 729.41 275.437C730.31 271.893 729.623 267.747 727.477 263.757C725.537 260.153 722.72 257.09 719.763 254.01C719.477 253.71 719.487 253.233 719.787 252.947C720.083 252.66 720.56 252.667 720.847 252.97C723.88 256.127 726.77 259.273 728.8 263.047C731.127 267.367 731.86 271.897 730.87 275.807C729.633 280.677 725.51 285.037 719.833 287.473C716.927 288.723 713.97 289.363 711.167 289.363" fill="#F7E3AE"/>
<path d="M408.75 196.05C408.75 262.92 354.543 317.127 287.674 317.127C220.806 317.127 166.598 262.92 166.598 196.05C166.598 129.183 220.806 74.9768 287.674 74.9768C354.543 74.9768 408.75 129.183 408.75 196.05Z" fill="#C64026"/>
<path d="M556.267 89.1135C551.893 84.6202 546.733 81.5869 541.443 79.8469C541.493 79.4235 541.52 78.9969 541.52 78.5635C541.52 72.4869 536.593 67.5568 530.513 67.5568C528.013 67.5568 525.71 68.3935 523.863 69.7969C521.573 57.4335 510.743 48.0669 497.717 48.0669C483.027 48.0669 471.12 59.9768 471.12 74.6668C471.12 76.8702 471.39 79.0068 471.897 81.0535C469.607 79.6235 466.907 78.7935 464.01 78.7935C455.78 78.7935 449.107 85.4669 449.107 93.6969C449.107 101.93 455.78 108.604 464.01 108.604C465.033 108.604 466.033 108.5 467 108.304C466.997 108.404 466.99 108.504 466.99 108.604C466.99 119.367 475.717 128.094 486.483 128.094C495.813 128.094 503.61 121.533 505.52 112.773C508.043 116.83 512.537 119.534 517.667 119.534C525.56 119.534 531.96 113.133 531.96 105.24C531.96 104.143 531.833 103.077 531.597 102.05C533.36 101.5 534.767 101.157 535.63 101.114C541.437 100.807 545.507 110.37 559.57 109.757C573.637 109.147 581.947 89.1135 587.91 86.1302C574.303 80.6269 570.33 103.557 556.267 89.1135Z" fill="#FFF6E1"/>
<path d="M487.607 119.713C484.197 119.713 480.763 118.043 478.86 115.18C476.263 111.28 476.807 105.607 480.097 102.27C483.603 98.7133 489 98.32 492.907 98.62C496.79 98.9167 499.733 99.8734 501.903 101.547C505.307 104.173 506.877 108.903 505.72 113.043C505.647 113.31 505.37 113.463 505.103 113.39C504.84 113.317 504.683 113.04 504.757 112.773C505.807 109.017 504.383 104.723 501.293 102.34C499.28 100.787 496.513 99.8967 492.833 99.6167C489.133 99.3334 484.043 99.6867 480.81 102.97C477.84 105.987 477.347 111.103 479.693 114.627C482.037 118.15 486.947 119.673 490.873 118.1C493.167 117.18 495.357 114.873 495.103 112.25C494.923 110.357 493.387 108.577 491.37 107.92C489.557 107.327 487.347 107.56 485.313 108.557C485.067 108.68 484.767 108.577 484.643 108.33C484.523 108.08 484.627 107.783 484.873 107.66C487.14 106.55 489.62 106.297 491.68 106.97C494.103 107.76 495.877 109.843 496.1 112.153C496.4 115.267 493.883 117.97 491.247 119.027C490.087 119.493 488.847 119.713 487.607 119.713" fill="#F7E3AE"/>
<path d="M506.42 86.03C505.707 86.03 505.007 85.9734 504.33 85.86C501.423 85.37 498.587 83.7467 496.343 81.2934C494.457 79.23 492.933 76.54 491.817 73.3033C490.67 69.9867 490.473 67.2633 491.21 64.99C492.323 61.5467 495.897 58.9667 499.707 58.8567C503.247 58.7633 506.923 60.7167 509.053 63.8567C510.443 65.91 510.927 68.15 510.383 70.0033C510.033 71.2 509.147 72.2633 508.01 72.8533C507.05 73.3467 506.017 73.4434 505.097 73.1267C504.837 73.0367 504.697 72.7534 504.79 72.4934C504.877 72.23 505.163 72.09 505.423 72.1833C506.083 72.41 506.84 72.33 507.55 71.9634C508.437 71.5067 509.153 70.6467 509.423 69.7233C509.883 68.1533 509.447 66.2233 508.223 64.42C506.283 61.5533 502.95 59.7633 499.737 59.8567C496.337 59.9533 493.15 62.2434 492.16 65.2967C491.483 67.3867 491.673 69.8267 492.763 72.9767C493.833 76.0867 495.287 78.6567 497.08 80.62C499.173 82.91 501.807 84.42 504.497 84.8733C507.077 85.31 509.99 84.8433 513.163 83.4867C516.34 82.1267 518.863 80.31 520.657 78.08C522.7 75.5434 523.73 72.4367 523.483 69.56C523.46 69.2867 523.663 69.0433 523.94 69.02C524.217 68.9967 524.457 69.2 524.48 69.4767C524.747 72.6067 523.64 75.9733 521.437 78.7067C519.54 81.0667 516.887 82.9833 513.557 84.4067C511.023 85.4867 508.633 86.03 506.42 86.03" fill="#F7E3AE"/>
<path d="M465.927 104.48C465.41 104.48 464.903 104.447 464.403 104.383C461.76 104.033 459.4 102.73 457.933 100.803C456.37 98.7501 455.697 95.9334 455.933 92.4367C456.023 91.0967 456.27 89.1301 457.343 87.5234C458.593 85.6567 460.913 84.5034 463.243 84.5834C465.473 84.6634 467.653 85.8167 469.073 87.6701C470.44 89.4501 470.91 91.7134 470.3 93.5768C469.597 95.7268 467.35 97.1868 465.297 96.8301C464.337 96.6634 463.52 96.1434 463.057 95.4067C462.52 94.5501 462.537 93.4234 463.097 92.6668C463.26 92.4434 463.573 92.3968 463.797 92.5601C464.017 92.7234 464.063 93.0368 463.9 93.2601C463.583 93.6868 463.587 94.3668 463.903 94.8768C464.213 95.3668 464.797 95.7268 465.47 95.8434C467.053 96.1201 468.793 94.9634 469.35 93.2668C469.857 91.7134 469.447 89.8001 468.28 88.2768C467.04 86.6568 465.143 85.6501 463.207 85.5834C461.217 85.5168 459.237 86.4934 458.173 88.0801C457.46 89.1501 457.063 90.5567 456.933 92.5034C456.713 95.7534 457.317 98.3434 458.73 100.197C460.037 101.913 462.153 103.077 464.537 103.39C466.653 103.67 468.99 103.293 471.293 102.307C474.783 100.807 477.31 98.1601 478.057 95.2234C478.653 92.8667 478.197 90.1067 476.77 87.4567C475.48 85.0601 473.607 83.0234 471.64 80.9734C471.45 80.7734 471.457 80.4567 471.657 80.2667C471.853 80.0767 472.17 80.0834 472.363 80.2801C474.38 82.3801 476.3 84.4734 477.65 86.9834C479.197 89.8534 479.683 92.8668 479.027 95.4668C478.203 98.7068 475.46 101.603 471.69 103.223C469.753 104.053 467.79 104.48 465.927 104.48" fill="#F7E3AE"/>
<path d="M172.654 231.34C168.281 226.847 163.122 223.813 157.832 222.073C157.881 221.653 157.909 221.227 157.909 220.793C157.909 214.713 152.981 209.787 146.902 209.787C144.403 209.787 142.099 210.62 140.252 212.023C137.963 199.66 127.132 190.297 114.106 190.297C99.416 190.297 87.5073 202.203 87.5073 216.893C87.5073 219.097 87.78 221.233 88.2843 223.28C85.9966 221.85 83.2953 221.02 80.399 221.02C72.1676 221.02 65.4946 227.693 65.4946 235.927C65.4946 244.157 72.1676 250.83 80.399 250.83C81.4226 250.83 82.422 250.727 83.3876 250.53C83.386 250.63 83.38 250.73 83.38 250.83C83.38 261.593 92.106 270.32 102.87 270.32C112.203 270.32 119.999 263.76 121.909 255C124.431 259.057 128.926 261.76 134.055 261.76C141.949 261.76 148.348 255.36 148.348 247.467C148.348 246.37 148.221 245.303 147.987 244.28C149.749 243.73 151.154 243.387 152.017 243.34C157.826 243.033 161.896 252.597 175.96 251.987C190.024 251.373 198.335 231.34 204.297 228.36C190.692 222.857 186.717 245.787 172.654 231.34" fill="#FFF6E1"/>
<path d="M103.996 261.94C100.585 261.94 97.1517 260.27 95.2477 257.41C92.6514 253.507 93.1944 247.837 96.4847 244.497C99.9904 240.94 105.387 240.55 109.297 240.847C113.179 241.143 116.121 242.1 118.292 243.777C121.696 246.403 123.266 251.13 122.109 255.273C122.035 255.537 121.759 255.693 121.493 255.62C121.227 255.543 121.072 255.27 121.146 255.003C122.196 251.243 120.771 246.953 117.681 244.567C115.67 243.017 112.903 242.123 109.221 241.843C105.522 241.563 100.433 241.917 97.197 245.2C94.227 248.213 93.7364 253.333 96.0804 256.853C98.424 260.377 103.336 261.903 107.263 260.327C109.556 259.407 111.745 257.1 111.493 254.477C111.312 252.587 109.776 250.807 107.759 250.147C105.944 249.557 103.736 249.787 101.702 250.787C101.454 250.907 101.154 250.807 101.033 250.557C100.911 250.31 101.014 250.01 101.262 249.887C103.528 248.777 106.009 248.527 108.069 249.197C110.49 249.987 112.267 252.07 112.489 254.38C112.788 257.493 110.273 260.197 107.635 261.253C106.475 261.72 105.237 261.94 103.996 261.94" fill="#F7E3AE"/>
<path d="M122.81 228.26C122.093 228.26 121.396 228.203 120.718 228.087C117.811 227.597 114.973 225.977 112.73 223.52C110.844 221.457 109.322 218.77 108.205 215.533C107.06 212.213 106.861 209.493 107.597 207.217C108.712 203.773 112.286 201.193 116.096 201.083C119.636 200.99 123.312 202.947 125.44 206.087C126.83 208.137 127.315 210.377 126.772 212.23C126.422 213.427 125.534 214.493 124.397 215.08C123.44 215.573 122.407 215.673 121.486 215.353C121.225 215.263 121.087 214.98 121.177 214.72C121.267 214.457 121.551 214.32 121.813 214.41C122.472 214.637 123.227 214.56 123.938 214.193C124.824 213.733 125.542 212.877 125.813 211.95C126.272 210.383 125.834 208.45 124.613 206.647C122.671 203.783 119.34 201.99 116.125 202.083C112.724 202.183 109.538 204.47 108.549 207.523C107.872 209.617 108.063 212.057 109.15 215.207C110.222 218.313 111.675 220.883 113.468 222.847C115.562 225.137 118.196 226.65 120.885 227.103C123.465 227.537 126.379 227.07 129.55 225.713C132.73 224.357 135.252 222.537 137.047 220.307C139.088 217.77 140.118 214.667 139.872 211.787C139.848 211.513 140.053 211.27 140.328 211.247C140.604 211.223 140.845 211.427 140.868 211.703C141.136 214.837 140.027 218.2 137.825 220.937C135.927 223.293 133.275 225.21 129.944 226.633C127.412 227.717 125.022 228.26 122.81 228.26" fill="#F7E3AE"/>
<path d="M82.3137 246.707C81.7983 246.707 81.2907 246.673 80.793 246.61C78.1477 246.26 75.789 244.957 74.3217 243.03C72.7583 240.977 72.0853 238.163 72.3223 234.663C72.413 233.323 72.658 231.357 73.732 229.753C74.983 227.887 77.3007 226.733 79.631 226.813C81.863 226.89 84.043 228.043 85.463 229.897C86.8273 231.68 87.297 233.943 86.6877 235.803C85.9847 237.953 83.7393 239.413 81.686 239.057C80.7247 238.89 79.9083 238.373 79.446 237.633C78.9093 236.777 78.925 235.65 79.4847 234.893C79.6483 234.67 79.9617 234.623 80.1837 234.79C80.4057 234.953 80.4527 235.267 80.2887 235.487C79.9727 235.917 79.9747 236.593 80.2933 237.103C80.6003 237.593 81.185 237.957 81.857 238.073C83.4417 238.347 85.1823 237.19 85.7373 235.493C86.2453 233.94 85.836 232.03 84.669 230.503C83.429 228.887 81.5327 227.88 79.596 227.81C77.604 227.743 75.6257 228.723 74.5627 230.31C73.847 231.377 73.4517 232.783 73.32 234.73C73.1 237.98 73.7047 240.57 75.1173 242.423C76.4243 244.14 78.5407 245.303 80.9237 245.617C83.041 245.897 85.379 245.523 87.6827 244.533C91.1717 243.037 93.6993 240.387 94.4443 237.45C95.0417 235.093 94.5847 232.337 93.1573 229.683C91.8677 227.287 89.9957 225.25 88.0293 223.2C87.8383 223.003 87.8447 222.687 88.044 222.493C88.243 222.303 88.5597 222.31 88.751 222.51C90.767 224.61 92.6883 226.703 94.038 229.21C95.584 232.083 96.0723 235.097 95.4137 237.697C94.5927 240.933 91.85 243.833 88.077 245.453C86.143 246.283 84.178 246.707 82.3137 246.707" fill="#F7E3AE"/>
<path d="M918.407 446.313L147.043 574.72L0 466.317V388.577C42.6033 383.51 171.637 354.72 261.287 291.657C262.797 290.593 264.297 289.523 265.783 288.44C288.76 271.727 308.923 252.683 324.06 231.12C363.277 175.26 401.467 213.207 469.657 261.383C470.397 261.903 471.137 262.427 471.883 262.95C532.723 305.707 617.257 355.747 746.89 355.38C1024.8 354.593 918.407 446.313 918.407 446.313" fill="#708F96"/>
<path d="M918.406 446.313L751.61 474.08C734.75 469.037 715.62 463.967 693.96 458.907C567.723 429.423 496.98 361.267 447.617 305.653C447.01 304.973 446.41 304.293 445.81 303.617C395.583 246.747 367.52 203.797 324.527 230.46C363.58 175.56 401.737 213.397 469.657 261.383C470.397 261.903 471.137 262.427 471.883 262.95C532.723 305.707 617.257 355.747 746.89 355.38C1024.8 354.593 918.406 446.313 918.406 446.313" fill="#628489"/>
<path d="M469.657 261.383C468.763 262.88 467.58 264.187 466.09 265.19C462.167 267.837 457.057 267.893 452.363 267.277C447.67 266.663 442.97 265.477 438.267 265.983C433.56 266.49 428.67 269.227 427.433 273.797C425.973 279.2 429.857 285.697 426.553 290.22C424.87 292.527 421.737 293.397 418.893 293.11C416.05 292.82 413.407 291.563 410.833 290.323C406.05 288.023 401.267 285.72 396.483 283.42C393.057 281.77 389.563 280.08 386.813 277.45C384.06 274.823 382.117 271.057 382.62 267.283C379.79 270.327 374.9 270.077 370.907 268.927C366.91 267.777 362.883 265.94 358.777 266.593C353.98 267.36 350.413 271.3 347.263 275C342.947 280.06 338.633 285.123 334.32 290.183C332.943 291.797 331.55 293.443 330.7 295.383C329.42 298.317 329.5 301.627 329.237 304.813C328.973 308 328.197 311.417 325.757 313.48C323.317 315.547 318.807 315.243 317.64 312.263C318.7 309 318.89 305.617 318.59 302.21C318.207 297.83 317.017 293.413 315.827 289.167C314.17 283.253 312.51 277.343 310.853 271.43C302.48 276.32 294.107 281.213 285.733 286.103C281.527 288.563 277.007 291.1 272.14 290.853C269.067 290.697 267.05 289.807 265.783 288.44C274.387 282.183 282.593 275.597 290.29 268.673C302.813 257.42 313.987 245.27 323.307 232.187C323.56 231.83 323.81 231.477 324.06 231.12C328.533 224.747 332.993 219.597 337.487 215.543C352.617 201.89 368.113 200.67 385.74 207.147H385.743C388.073 208.003 390.44 208.993 392.85 210.11C414.247 220.007 438.9 239.653 469.657 261.383" fill="#CCC596"/>
<path d="M469.657 261.383C468.763 262.88 467.58 264.187 466.09 265.19C462.167 267.837 457.057 267.893 452.363 267.277C447.67 266.663 442.97 265.477 438.267 265.983C433.56 266.49 428.67 269.227 427.433 273.797C426.663 276.65 427.383 279.81 427.747 282.823C388.247 237 362.083 207.17 324.53 230.46C324.587 230.377 324.647 230.293 324.707 230.21C324.86 229.993 325.013 229.777 325.17 229.567C325.36 229.303 325.547 229.043 325.737 228.787C327.693 226.133 329.647 223.707 331.603 221.503C331.813 221.267 332.023 221.037 332.23 220.807C332.44 220.573 332.653 220.343 332.863 220.117L332.873 220.107C333.087 219.877 333.3 219.647 333.517 219.423C333.577 219.357 333.64 219.29 333.703 219.227C333.947 218.97 334.193 218.717 334.44 218.467C334.473 218.43 334.507 218.397 334.543 218.363C334.683 218.22 334.823 218.08 334.963 217.94C335.523 217.38 336.083 216.84 336.643 216.317C336.783 216.187 336.927 216.057 337.067 215.927C337.207 215.797 337.347 215.67 337.487 215.543C337.633 215.41 337.78 215.28 337.93 215.147C338.077 215.017 338.223 214.887 338.37 214.76C339.697 213.607 341.027 212.547 342.363 211.58C342.51 211.47 342.66 211.367 342.807 211.26C343.25 210.943 343.697 210.64 344.143 210.343C344.44 210.147 344.74 209.953 345.037 209.763C345.333 209.577 345.633 209.393 345.93 209.213C346.25 209.023 346.567 208.837 346.887 208.653C347.107 208.527 347.327 208.407 347.543 208.287C348.203 207.927 348.863 207.587 349.523 207.267C349.673 207.197 349.827 207.123 349.977 207.053C350.127 206.983 350.277 206.913 350.427 206.847C350.577 206.777 350.73 206.71 350.88 206.643C351.333 206.447 351.787 206.257 352.24 206.077C352.39 206.017 352.543 205.96 352.693 205.9C353.3 205.667 353.907 205.453 354.517 205.253C355.127 205.057 355.733 204.873 356.347 204.707C356.363 204.703 356.38 204.7 356.393 204.693C356.58 204.643 356.77 204.593 356.957 204.547C357.52 204.403 358.087 204.273 358.65 204.157C358.807 204.127 358.96 204.093 359.113 204.063C359.27 204.033 359.423 204.007 359.577 203.977C359.77 203.94 359.963 203.907 360.157 203.877C360.543 203.813 360.933 203.757 361.323 203.703C361.517 203.677 361.713 203.653 361.907 203.63C362.06 203.613 362.217 203.593 362.373 203.577C362.51 203.563 362.647 203.55 362.783 203.537C362.823 203.533 362.863 203.53 362.9 203.523C363.037 203.513 363.173 203.5 363.31 203.49C363.467 203.477 363.623 203.467 363.78 203.453C363.91 203.447 364.043 203.437 364.173 203.427C364.217 203.427 364.257 203.423 364.297 203.42C364.44 203.413 364.58 203.407 364.723 203.4C364.88 203.393 365.037 203.387 365.193 203.38C365.353 203.377 365.51 203.37 365.667 203.367C366.94 203.34 368.22 203.37 369.51 203.453C369.703 203.467 369.897 203.48 370.09 203.497C370.673 203.543 371.257 203.6 371.847 203.67C372.433 203.74 373.02 203.82 373.61 203.91C374.767 204.09 375.93 204.31 377.1 204.57C377.127 204.577 377.157 204.583 377.183 204.59C377.583 204.68 377.983 204.773 378.387 204.873C378.407 204.88 378.423 204.883 378.443 204.887C378.8 204.977 379.153 205.067 379.513 205.163C379.743 205.223 379.973 205.287 380.203 205.35C380.81 205.52 381.42 205.7 382.033 205.89C382.85 206.143 383.67 206.413 384.497 206.7C384.703 206.773 384.91 206.847 385.117 206.92C385.323 206.997 385.533 207.07 385.74 207.147H385.743C386.033 207.253 386.327 207.363 386.62 207.473C386.91 207.587 387.203 207.7 387.497 207.813C387.79 207.93 388.087 208.047 388.38 208.167C388.677 208.287 388.97 208.407 389.267 208.53C389.563 208.653 389.86 208.78 390.157 208.907C390.75 209.163 391.35 209.427 391.947 209.697C392.247 209.833 392.55 209.97 392.85 210.11C393.29 210.313 393.733 210.523 394.177 210.733C395.413 211.327 396.667 211.95 397.927 212.603C398 212.643 398.077 212.683 398.153 212.72C398.613 212.96 399.077 213.207 399.54 213.453C401.86 214.697 404.22 216.037 406.62 217.463C407.583 218.037 408.55 218.62 409.523 219.22C409.533 219.23 409.543 219.237 409.553 219.24C410.277 219.687 411.007 220.143 411.74 220.603C412.47 221.067 413.21 221.533 413.95 222.01C414.69 222.487 415.437 222.97 416.183 223.46C417.31 224.197 418.44 224.947 419.583 225.713C419.967 225.97 420.347 226.227 420.73 226.487C421.113 226.743 421.497 227.003 421.883 227.267C422.653 227.79 423.427 228.32 424.207 228.857C424.597 229.123 424.987 229.393 425.38 229.667C425.76 229.93 426.143 230.193 426.527 230.46C427.293 230.993 428.063 231.533 428.84 232.077C429.227 232.35 429.617 232.623 430.007 232.897C442.07 241.4 455.187 251.16 469.657 261.383" fill="#C1B88A"/>
<path d="M390.663 209.127C373.807 207.293 358.64 214.8 343.32 236.623C328.183 258.187 308.02 277.23 285.043 293.943C283.557 295.027 282.057 296.097 280.547 297.16C190.897 360.223 42.6033 394.47 0 399.537V388.577C42.6033 383.51 171.637 354.72 261.287 291.657C262.797 290.593 264.297 289.523 265.783 288.44C288.76 271.727 308.923 252.683 324.06 231.12C344.983 201.317 365.613 198.217 390.663 209.127" fill="#8EB3BA"/>
<path d="M390.653 209.123C373.8 207.297 358.64 214.803 343.32 236.623C334.257 249.533 323.393 261.54 311.203 272.68C311.087 272.263 310.97 271.847 310.853 271.43C302.48 276.32 294.107 281.213 285.733 286.103C281.527 288.563 277.007 291.1 272.14 290.853C269.067 290.697 267.05 289.807 265.783 288.44C274.387 282.183 282.593 275.597 290.29 268.673C302.813 257.42 313.987 245.27 323.307 232.187C323.56 231.83 323.81 231.477 324.06 231.12C328.533 224.747 332.993 219.597 337.487 215.543C352.617 201.89 368.113 200.67 385.74 207.147H385.743C387.36 207.74 388.997 208.4 390.653 209.123" fill="#EAE2B7"/>
<path d="M0 410.937C0 410.937 377.26 339.297 546.023 385.927C714.787 432.553 709.213 340.523 1000 344.807C1000 528.37 1000 666.667 1000 666.667H0V410.937Z" fill="#B6AC86"/>
<path d="M991.477 342.41C991.477 349.504 981.963 355.25 970.227 355.25C958.493 355.25 948.98 349.504 948.98 342.41C948.98 335.32 958.493 329.57 970.227 329.57C981.963 329.57 991.477 335.32 991.477 342.41Z" fill="#B6AC86"/>
<path d="M966.253 352.227C966.253 359.32 956.74 365.067 945.003 365.067C933.27 365.067 923.757 359.32 923.757 352.227C923.757 345.133 933.27 339.387 945.003 339.387C956.74 339.387 966.253 345.133 966.253 352.227Z" fill="#B6AC86"/>
<path d="M469.89 261.547C466.29 267.573 459.527 268.603 452.623 267.697C447.93 267.083 443.123 266.087 438.42 266.593C433.713 267.1 429.05 269.56 427.81 274.13C427.043 276.983 427.383 279.81 427.747 282.823C388.247 237 362.083 207.17 324.53 230.46H324.527C325.338 229.333 326.132 228.23 326.935 227.173C333.86 218.067 340.543 211.61 347.637 207.81C379.73 190.633 415.143 222.867 469.89 261.547" fill="#628489"/>
<path d="M0 442.643C133.285 393.113 551.527 460.463 551.527 460.463L317.641 591.23L0 567.383V442.643Z" fill="#9A8F56"/>
<path d="M0 499.43C133.285 449.9 551.527 517.25 551.527 517.25L317.641 648.017L0 624.167V499.43Z" fill="#8C7F48"/>
<path d="M70.472 419.587C73.204 427.797 64.45 438.103 50.9194 442.607C37.389 447.11 24.2054 444.1 21.4733 435.89C18.7412 427.68 27.4952 417.373 41.0257 412.87C54.5564 408.37 67.7397 411.377 70.472 419.587Z" fill="#9A8F56"/>
<path d="M97.9723 426.947C97.9723 432.577 90.451 437.14 81.173 437.14C71.8946 437.14 64.3733 432.577 64.3733 426.947C64.3733 421.313 71.8946 416.75 81.173 416.75C90.451 416.75 97.9723 421.313 97.9723 426.947Z" fill="#9A8F56"/>
<path d="M229.361 426.44C229.361 439.61 212.901 450.287 192.597 450.287C172.292 450.287 155.832 439.61 155.832 426.44C155.832 413.27 172.292 402.593 192.597 402.593C212.901 402.593 229.361 413.27 229.361 426.44Z" fill="#9A8F56"/>
<path d="M295.594 421.407C295.594 431.797 284.594 440.22 271.024 440.22C257.455 440.22 246.455 431.797 246.455 421.407C246.455 411.017 257.455 402.593 271.024 402.593C284.594 402.593 295.594 411.017 295.594 421.407Z" fill="#9A8F56"/>
<path d="M321.539 427.74C321.539 434.663 314.21 440.273 305.169 440.273C296.128 440.273 288.799 434.663 288.799 427.74C288.799 420.817 296.128 415.203 305.169 415.203C314.21 415.203 321.539 420.817 321.539 427.74Z" fill="#9A8F56"/>
<path d="M381.31 433.47C381.31 440.563 371.83 446.313 360.137 446.313C348.443 446.313 338.967 440.563 338.967 433.47C338.967 426.38 348.443 420.63 360.137 420.63C371.83 420.63 381.31 426.38 381.31 433.47Z" fill="#9A8F56"/>
<path d="M456.033 390.07L344.547 472.503L268.724 466.483L214.304 483L198.406 517.853L111.416 504.4L57.7687 509.293L0 538.033V666.667H477.847L456.033 390.07Z" fill="#725554"/>
<path d="M1000 417.213L895.477 429.64L773.183 390.07L656.19 388.577L527.373 362.837L504.607 383.103L456.033 390.07L415.987 517.243L429.537 550.8L442.987 666.667H1000V417.213Z" fill="#5B413F"/>
<path d="M369.617 488.503L337.82 514.75L280.953 505.663L307.858 546.593L357.387 533.75L369.617 488.503" fill="#5B413F"/>
<path d="M140.163 539.407H79.699L43.399 565.547L33.7687 604.07L73.6203 613.243L91.128 567.383L140.163 539.407Z" fill="#5B413F"/>
<path d="M122.573 585.727L118.284 611.407L140.163 613.243L122.573 585.727Z" fill="#5B413F"/>
<path d="M357.08 576.324L342.863 613.244L283.705 633.42L272.699 666.667H328.189L369.617 633.42L357.08 576.324Z" fill="#5B413F"/>
<path d="M375.423 553.167L369.617 574.72L378.633 591.23L386.89 572.197L375.423 553.167Z" fill="#5B413F"/>
<path d="M264.444 546.593L296.087 560.503L260.316 596.733L272.699 565.09L264.444 546.593" fill="#5B413F"/>
<path d="M512.087 479.33L520.8 418.064L543.73 415.204L617.26 472.607L544.19 460.744L512.087 479.33" fill="#725554"/>
<path d="M527.373 362.837L648.443 442.033L656.19 388.577L527.373 362.837Z" fill="#4C3130"/>
<path d="M617.26 472.607L551.527 432.25L512.087 479.33L570.787 528.37L559.17 470.77L617.26 472.607Z" fill="#4C3130"/>
<path d="M695.56 480.31L747.983 514.853L787.997 587.287L788.22 613.844L747.543 553.113L637.997 488.447L695.56 480.31" fill="#4C3130"/>
<path d="M725.687 602.313L711.513 618.467L692.383 627.467L713.287 648.017L733.833 621.09L725.687 602.313" fill="#4C3130"/>
<path d="M707.637 555.154L652.793 566.16L683.977 585.727L679.24 566.16L707.637 555.154" fill="#4C3130"/>
<path d="M554.89 539.867L586.073 561.88L564.673 607.74L554.89 539.867Z" fill="#4C3130"/>
<path d="M433.9 588.387L527.373 666.667H442.987L433.9 588.387Z" fill="#4C3130"/>
<path d="M214.304 483L260.316 525.19L198.406 517.854L214.304 483Z" fill="#5B413F"/>
<path d="M883.103 452.19L895.477 429.64L1000 417.213V443.56L855.73 464.657L883.103 452.19" fill="#4C3130"/>
<path d="M711.423 389.283L800.153 438.057L822.323 405.973L773.183 390.07L711.423 389.283Z" fill="#4C3130"/>
<path d="M637.997 488.447L666.177 455.71L692.383 459.634L747.983 514.854L695.56 480.31L637.997 488.447" fill="#725554"/>
<path d="M456.033 390.07L512.087 400.91L527.373 362.837L504.52 381.873L456.033 390.07Z" fill="#725554"/>
<path d="M883.103 452.19L864.397 432.25L725.487 434.39L692.383 459.633L712.217 479.33L855.73 464.657L883.103 452.19" fill="#725554"/>
<path d="M883.103 459.633L864.04 476.753L857.233 482.867L849.83 489.517L849.827 489.52L837.003 501.037L792.823 485.28L792.543 485.38L785.013 488.043V488.047L770.85 493.057L763.13 495.79L761.26 496.453L731.147 498.133L712.217 479.33L765.1 473.923L786.853 471.7H786.857L844.393 465.817H844.397L855.73 464.657L859.317 463.997L883.103 459.633" fill="#4C3130"/>
<path d="M280.953 505.663L327.272 485.6L369.617 488.503L337.82 514.75L280.953 505.663Z" fill="#826363"/>
<path d="M357.08 576.324L332.316 596.734L274.533 610.49L260.316 666.667H272.699L283.705 633.42L342.863 613.244L357.08 576.324Z" fill="#826363"/>
<path d="M296.087 560.503L272.699 536.503L264.444 546.593L296.087 560.503Z" fill="#826363"/>
<path d="M140.163 539.407L116.469 522.133L66.0234 528.37L43.399 565.547L79.6991 539.407H140.163Z" fill="#826363"/>
<path d="M111.416 504.4L153.769 528.37L171.874 513.75L111.416 504.4Z" fill="#826363"/>
<path d="M724.223 452.733L753.92 460.887L765.233 474.08L763.13 495.79L900.98 666.667H1000V554.157L863.273 477.393L859.063 463.137L840.34 452.12L810.373 452.79L833.183 459.307L844.397 465.817L849.827 489.52L880.99 505.663L823.477 523.127L785.013 488.047L786.857 471.7L755.22 452.12L724.223 452.733Z" fill="#4C3130"/>
<path d="M807.23 531.46L779.603 539.867L884.01 666.667H914.737L1000 554.157L927.577 486.127L892.417 501.957L807.23 531.46Z" fill="#4C3130"/>
<path d="M848.603 514.943L880.19 542.607L864.397 510.417L848.603 514.943Z" fill="#5B413F"/>
<path d="M786.857 471.7L785.013 488.043V488.047L770.85 493.057L763.13 495.79L765.233 474.08L765.1 473.923L786.853 471.7H786.857" fill="#3D2525"/>
<path d="M864.04 476.753L857.233 482.867L857 482.643L849.83 489.517L849.827 489.52L844.397 465.817L855.73 464.657L859.317 463.997L863.273 477.393L864.04 476.753" fill="#3D2525"/>
<path d="M691.9 161.38C691.9 161.38 691.99 166.417 745.27 164.363C798.553 162.307 805.246 157.783 802.25 156.137C799.253 154.493 749.113 139.823 749.113 139.823L707.877 153L691.9 161.38Z" fill="#B59F78"/>
<path d="M772.077 396.99C772.077 396.99 823.617 377.37 837.037 370.78C860.083 359.457 868.337 349.043 868.337 349.043L838.727 341.583L798.097 346.85H740.053L722.99 370.78L736.493 384.397L772.077 396.99" fill="#9B7A29"/>
<path d="M792.267 402.797C793.957 405.737 797.893 409.18 813.41 410.557C833.833 412.367 859.26 406.433 856.027 400.46C855.647 400.017 855.373 399.557 854.78 399.103C846.403 392.72 803.887 391.647 803.887 391.647L793.957 397.277L792.203 402.513L792.267 402.797Z" fill="#2C2C2D"/>
<path d="M728.273 398.8C728.513 403.313 731.733 405.057 745.277 408.007C758.823 410.96 784.25 409.12 781.26 402.797C778.27 396.473 744.877 388.83 744.877 388.83L728.273 393.523V398.8" fill="#2C2C2D"/>
<path d="M724.6 291.98L745.3 452.817C745.3 452.817 751.637 443.07 751.503 442.537C751.373 442.003 750.807 280.45 750.807 280.45L723.41 293.953L724.6 291.98" fill="#DDD2B6"/>
<path d="M751.813 311.607L834.763 450.95C834.763 450.95 837.34 441.733 837.007 441.297C836.673 440.863 771.273 290.61 771.273 290.61L751.507 313.893L751.813 311.607" fill="#DDD2B6"/>
<path d="M738.387 399.103C738.387 399.103 739.943 398.123 743.94 400.053C747.94 401.983 751.293 407.017 751.293 407.017L751.506 388.83L736.493 390.127L738.387 399.103" fill="#C4B9A1"/>
<path d="M799.647 393.573L807.973 405.95C807.973 405.95 808.817 404.88 814.47 406.533C820.123 408.187 823.72 410.35 823.72 410.35L816.053 389.503L799.647 393.573Z" fill="#C4B9A1"/>
<path d="M739.03 183.727L750.447 176.76H764.507L766.43 186.053L744.72 199.77L734.73 200.837L739.03 183.727Z" fill="#9B7A29"/>
<path d="M726.453 141.927C726.89 142.863 723.32 175 724.317 179.013C725.317 183.027 738.06 180.11 742.03 177.863C745.997 175.617 761.523 160.64 761.523 160.64L762.403 136.303L746.48 128.94L726.453 141.927" fill="#E8BB8B"/>
<path d="M727.47 167.61C728.72 168.11 738.523 174.037 740.523 180.283C742.523 186.53 742.463 195.837 742.463 195.837L763.953 186.67C763.953 186.67 760.5 181.74 757.99 174.167C755.477 166.593 752.46 164.363 752.46 164.363L727.47 167.61" fill="#E8BB8B"/>
<path d="M732.76 194.987C732.96 194.803 750.17 185.47 762.193 183.223C773.32 181.143 779.337 188.077 779.337 188.077L757.537 262.003L724.14 268.497L732.76 194.987" fill="#E8BB8B"/>
<path d="M724.14 268.497C724.53 270.047 727.47 310.01 727.47 310.01L772.286 293.453L754.783 262.537L724.14 268.497" fill="#E8BB8B"/>
<path d="M780.047 185.137C781.557 186.593 795.99 228 795.99 228C795.99 228 787.937 239.763 787.68 238.937C787.423 238.11 764.923 195.543 764.923 195.543L780.047 185.137Z" fill="#C69C77"/>
<path d="M724.943 268.313C722.863 269.36 728.273 398.8 728.273 398.8C728.273 398.8 728.277 398.21 728.63 397.86C729.59 396.923 733.13 395.867 744.077 395.587C761.877 395.127 781.26 402.797 781.26 402.797C781.26 402.797 773.09 358.867 773.09 360.243C773.09 361.62 792.267 402.797 792.267 402.797C792.267 402.797 790.967 397.01 827.973 396.503C845.42 396.263 856.027 400.46 856.027 400.46L755.587 262.353L724.943 268.313" fill="#084A7C"/>
<path d="M739.03 183.727L723.41 199.207C723.41 199.207 722.463 274.34 723.41 273.317C724.353 272.297 759.37 270.663 758.157 268.497C756.943 266.33 785.783 188.823 785.783 188.823L764.507 176.76C764.507 176.76 741.337 218.273 741.337 217.517C741.337 216.757 739.03 183.727 739.03 183.727" fill="#C64026"/>
<path d="M733.743 298.513C733.253 298.27 732.917 298.13 732.8 298.13C732.643 298.13 733.023 298.273 733.743 298.513Z" fill="#063856"/>
<path d="M773.087 360.243C773.087 360.243 751.077 305.29 750.45 304.71C749.94 304.237 740.14 301.377 736.973 300.33C739.967 301.807 748.69 307.057 748.15 307.057C747.523 307.057 741.463 308.937 742.3 308.937C743.133 308.937 750.033 311.863 750.033 312.49C750.033 313.117 769.913 399.17 769.913 399.17C776.673 400.983 781.26 402.797 781.26 402.797C781.26 402.797 775.63 372.537 773.717 363.033L773.087 360.243" fill="#063856"/>
<path d="M736.17 271.823C736.17 271.823 772.65 330.39 783.7 345.157C794.753 359.927 798.097 363.813 798.097 363.813C798.097 363.813 829.73 349.303 846.573 348.787C863.413 348.267 868.337 349.043 868.337 349.043L759.517 267.427L736.17 271.823" fill="#C64026"/>
<path d="M798.096 239.32C797.356 240.293 778.373 282.593 778.373 282.593L769.303 278.153L788.68 229.323L798.096 239.32Z" fill="#C69C77"/>
<path d="M723.41 270.02L722.99 370.78L737.457 368.477L736.17 271.823L723.41 270.02" fill="#C64026"/>
<path d="M723 245.974L719.483 247.69C720.143 250.717 721.707 254.257 721.58 264.697C721.45 275.513 721.58 284.163 721.58 284.163C721.58 284.163 726.307 286.993 739.677 284.163C753.047 281.333 767.05 271.12 767.05 271.12C767.05 271.12 764.51 265.597 764.823 259.307C765.14 253.014 766.62 241.607 766.62 241.607C766.62 241.607 752.733 248.3 738.89 249.4C728.867 250.197 723.02 247.96 723.02 247.96L723 245.974" fill="#2C2C2D"/>
<path d="M744 442.71C744 442.71 724.327 452.04 724.557 452.817C724.783 453.593 755.553 453.137 755.553 452.227C755.553 451.313 751.507 441.173 751.507 441.173C751.507 441.173 750.88 444.59 747.917 444.25C744.953 443.907 744 442.71 744 442.71Z" fill="#F4BF3D"/>
<path d="M829.383 442.543C829.383 442.543 809.71 451.873 809.94 452.65C810.167 453.427 840.937 452.97 840.937 452.06C840.937 451.147 836.89 441.007 836.89 441.007C836.89 441.007 836.263 444.423 833.3 444.083C830.337 443.74 829.383 442.543 829.383 442.543Z" fill="#F4BF3D"/>
<path d="M764.507 176.76C764.507 176.76 745.707 208.24 741.337 217.517C736.967 226.79 734.73 249.573 734.73 249.573C734.73 249.573 739.843 249.32 739.367 249.36C738.89 249.4 740.247 229.197 744.837 219.467C749.43 209.737 769.23 179.437 769.23 179.437L764.507 176.76" fill="#FFCF64"/>
<path d="M739.043 183.283C739.03 183.727 741.997 220.123 741.997 220.123L740.52 223.62L735.087 187.633L739.043 183.283Z" fill="#FFCF64"/>
<path d="M868.28 349.017L859.077 342.113C849.953 342.473 838.633 342.973 830.61 343.51C814.953 344.553 799.59 352.64 799.59 352.64L738.59 285.027L743.19 283.093C754.367 300.87 775.653 334.453 783.647 345.133C794.697 359.9 798.043 363.787 798.043 363.787C798.043 363.787 829.677 349.277 846.517 348.76C863.36 348.24 868.28 349.017 868.28 349.017" fill="#F4BF3D"/>
<path d="M769.367 273.317C769.313 273.38 769.263 273.377 769.213 273.44C767.22 275.887 764.913 280.15 772.287 293.453C779.317 306.137 795.6 315.017 797.51 308.92C797.437 308.237 797.46 307.72 797.427 307.077C796.98 297.98 789.187 280.45 789.187 280.45L769.367 273.317" fill="#871D15"/>
<path d="M785.783 188.823C785.783 188.823 780.403 189.647 775.163 197.92L769.303 218.053C769.303 218.053 779.097 236.253 779.337 237.08C779.577 237.907 769.88 272.297 769.303 273.317C769.257 273.4 769.187 273.453 769.183 273.497C769.18 273.557 769.26 273.59 769.343 273.617C769.97 273.823 773.263 273.79 781.783 283.17C792.26 294.717 797.51 308.92 797.51 308.92L799.56 235.977L785.783 188.823" fill="#AF2D1C"/>
<path d="M722.99 360.193L730.223 358.963L738.59 306.493L737.587 317.027L737.457 368.477L722.99 370.78V360.193Z" fill="#F4BF3D"/>
<path d="M723.41 199.207L707.877 243.123C707.877 243.123 727.85 319.387 728.833 318.433C729.817 317.48 754.387 278.703 754.387 278.703L723.41 243.123V199.207Z" fill="#AF2D1C"/>
<path d="M754.387 278.703C752.25 277.067 745.947 283.073 739.167 292.12C732.387 301.17 726.55 314.077 728.833 318.433C731.117 322.787 741.907 315.297 748.213 306.537C753.86 298.697 760.217 283.17 754.387 278.703" fill="#871D15"/>
<path d="M770.353 273.877C770.863 274.25 767.05 293.597 767.05 293.597C767.05 293.597 773.827 291.007 773.827 290.61C773.827 290.21 777.103 278.437 777.103 278.437C775.073 276.423 772.01 274.353 770.353 273.877Z" fill="#E8BB8B"/>
<path d="M797.277 292.63C796.963 291.947 784.517 276.08 784.517 276.08L789.867 273.713L799.56 290.077L797.277 292.63Z" fill="#3B3C3D"/>
<path d="M795.53 286.273C795.577 286.373 817.337 272.87 853.107 261.997C888.88 251.123 931.92 250.943 931.92 250.943L942.477 243.123C942.477 243.123 887.88 244.247 850.373 255.603C815.037 266.3 791.463 279.407 791.463 279.407L795.53 286.273" fill="#3B3C3D"/>
<path d="M794.91 286.343C794.263 286.793 774.11 297.057 760.597 308.137C746.923 319.35 738.237 329.393 738.237 329.393C738.237 329.393 734.403 329.827 732.43 327.443C729.53 323.94 730.203 323.113 731.117 322.787C731.117 322.787 742.883 312.42 754.46 304.25C766.037 296.077 791.327 280.36 791.327 280.36L794.91 286.343" fill="#3B3C3D"/>
<path d="M768.26 287.343C768.21 287.6 765.95 296.423 765.37 298.503C764.79 300.583 766.263 306.49 766.263 306.49C766.263 306.49 768.37 306.533 771.17 305.887C776.223 304.72 778.293 299.073 778.293 299.073C778.293 299.073 776.387 299.947 775.89 295.917C775.393 291.887 776.14 287 776.14 287L775.287 285.027L768.26 287.343" fill="#E8BB8B"/>
<path d="M778.293 299.073L778.373 295.78L774.933 297.947L775.677 301.29L778.293 299.073Z" fill="#E8BB8B"/>
<path d="M749.523 320.86C749.427 320.857 747.077 320.213 747.077 320.213L750.477 317.027C750.477 317.027 750.237 319.783 750.193 319.85C750.15 319.917 749.523 320.86 749.523 320.86Z" fill="#E8BB8B"/>
<path d="M746.27 283.64C744.307 285.69 742.15 288.253 739.923 291.17C741.163 293.087 742.46 295.34 743.303 297.497C744.18 299.74 746.647 302.483 746.737 302.347C747.04 301.89 752.683 296.783 752.683 296.783L746.27 283.64Z" fill="#E8BB8B"/>
<path d="M750.85 295.917C751.38 295.927 755.56 297.827 757.707 303.203C759.853 308.58 759.083 311.443 759.083 311.443L749.523 320.86C749.523 320.86 749.98 318.273 748.23 312.863C746.997 309.037 745.273 306.473 743.54 303.457C743.54 303.453 743.267 297.497 743.267 297.497L750.85 295.917" fill="#E8BB8B"/>
<path d="M726.103 147.72C727.31 148.023 739.923 160.093 739.923 160.093C739.923 160.093 742.687 154.36 745.71 157.68C748.737 161 744.417 165.407 744.417 165.407L756.7 172.77C756.7 172.77 760.76 173.673 763.953 168.543C767.143 163.413 764.923 146.25 764.923 146.25L727.47 143.127L726.103 147.72" fill="#3B3C3D"/>
<path d="M725.657 153.603L720.547 166.09V167.397L724.457 168.847L725.657 153.603" fill="#E8BB8B"/>
<path d="M739.917 178.82C739.917 178.82 740.737 179.94 741.297 183.283C741.853 186.627 742.23 190.25 742.23 190.25C742.23 190.25 745.157 184.293 746.597 180.1C748.037 175.907 747.077 167 747.077 167C747.077 167 746.727 172.374 744.897 174.597C743.063 176.823 739.917 178.82 739.917 178.82Z" fill="#C69C77"/>
<path d="M736.077 156.453C736.077 156.453 740.053 155.46 749.217 156.453C758.38 157.45 765.553 161.777 765.573 161.38C765.597 160.987 766.297 157.047 765.677 152.34C765.053 147.63 738.543 148.417 738.543 148.417L728.403 150.51L736.077 156.453" fill="black"/>
<path d="M691.9 161.38C691.9 161.38 717.083 152.34 745.89 152.34C771.613 152.34 802.25 156.137 802.25 156.137L745.29 124.877L691.9 161.38Z" fill="#FFECCA"/>
<path d="M725.657 153.603L724.273 156.98C724.273 156.98 724.693 156.5 725.657 157.98C726.62 159.457 725.477 164.01 727.47 164.08C729.463 164.15 736.077 156.453 736.077 156.453L731.657 153.03L725.657 153.603" fill="#C69C77"/>
<path d="M720.547 166.09L727.16 168.223L724.457 168.847L720.547 167.397V166.09" fill="#C69C77"/>
<path d="M724.273 173.827C724.273 173.827 729.31 173.75 729.08 173.827C728.85 173.903 724.273 172.007 724.273 172.007V173.827Z" fill="#C69C77"/>
<path d="M728.16 156.853C728.233 157.067 728.05 159.383 728.05 159.383C728.05 159.383 729.357 159.447 730.927 158.68C732.903 157.717 734.213 156.573 734.213 156.573L728.16 156.853" fill="white"/>
<path d="M728.16 156.853C728.233 157.067 728.05 159.383 728.05 159.383C728.05 159.383 728.927 159.423 730.103 159.02C730.273 158.537 730.353 158.02 730.35 157.503C730.35 157.243 730.317 157 730.263 156.757L728.16 156.853" fill="#3B3C3D"/>
<path d="M779.18 143.48L777.763 142.703L756.423 144.233L779.18 143.48Z" fill="#B59F78"/>
<path d="M758 131.853C757.733 131.71 739.627 134.11 739.907 134.11C740.083 134.11 751.517 133.38 759.807 132.847L758 131.853" fill="#B59F78"/>
<path d="M770.43 138.677L748.703 140.523L772.837 140L770.43 138.677Z" fill="#B59F78"/>
<path d="M784.857 146.597L763.943 147.843L787.827 148.227L784.857 146.597Z" fill="#B59F78"/>
<path d="M764.647 135.503C756.54 136.11 741.84 137.217 741.987 137.217C742.12 137.217 756.267 136.607 765.903 136.193L764.647 135.503" fill="#B59F78"/>
<path d="M752.613 130.403C752.973 130.583 797.72 156.757 797.72 156.757L800.06 156.573L752.613 130.403Z" fill="#B59F78"/>
<path d="M746.313 126.713L793.307 156.573L791.72 156.81L746.313 126.713Z" fill="#B59F78"/>
<path d="M811.767 334.523C811.203 334.267 810.607 334.063 809.977 333.927C805.3 332.913 800.69 335.883 799.677 340.56C799.46 341.563 799.427 342.56 799.553 343.523C800.1 343.53 800.677 343.537 801.27 343.543C801.127 342.697 801.14 341.81 801.333 340.917C802.147 337.157 805.857 334.767 809.617 335.58C810.253 335.72 810.847 335.94 811.397 336.23L811.767 334.523Z" fill="#F4BF3D"/>
<path d="M732.64 272.917C732.107 273.23 731.597 273.603 731.123 274.04C727.617 277.297 727.41 282.777 730.667 286.283C731.363 287.033 732.163 287.633 733.023 288.08C733.343 287.637 733.68 287.167 734.027 286.683C733.25 286.317 732.527 285.8 731.907 285.13C729.29 282.31 729.453 277.9 732.277 275.283C732.753 274.84 733.277 274.48 733.827 274.197L732.64 272.917Z" fill="#F4BF3D"/>
<path d="M715.777 250.457C716.263 250.077 716.72 249.637 717.13 249.14C720.173 245.45 719.65 239.99 715.96 236.947C715.17 236.293 714.297 235.807 713.383 235.477C713.13 235.957 712.857 236.47 712.577 236.993C713.397 237.257 714.18 237.673 714.883 238.253C717.85 240.703 718.273 245.093 715.823 248.063C715.41 248.563 714.937 248.99 714.43 249.347L715.777 250.457" fill="#F4BF3D"/>
<path d="M763.15 229.213C762.76 228.733 762.313 228.283 761.81 227.883C758.067 224.903 752.617 225.523 749.637 229.267C749 230.07 748.527 230.95 748.213 231.867C748.7 232.113 749.213 232.377 749.743 232.647C749.99 231.823 750.393 231.033 750.963 230.32C753.36 227.31 757.743 226.81 760.753 229.207C761.263 229.613 761.7 230.077 762.063 230.58L763.15 229.213" fill="#F4BF3D"/>
<path d="M786.887 210.347C787.257 209.85 787.577 209.307 787.84 208.717C789.783 204.347 787.817 199.227 783.447 197.28C782.51 196.863 781.537 196.627 780.57 196.557C780.453 197.087 780.327 197.653 780.2 198.233C781.057 198.267 781.923 198.457 782.757 198.83C786.273 200.393 787.857 204.513 786.29 208.027C786.027 208.623 785.687 209.16 785.293 209.637L786.887 210.347" fill="#F4BF3D"/>
<path d="M735.387 199.24C734.77 199.187 734.137 199.193 733.5 199.28C728.757 199.903 725.417 204.253 726.04 208.997C726.173 210.013 726.48 210.967 726.923 211.83C727.44 211.65 727.987 211.463 728.547 211.27C728.127 210.52 727.84 209.68 727.72 208.777C727.217 204.96 729.903 201.46 733.72 200.96C734.363 200.873 735 200.883 735.613 200.97L735.387 199.24" fill="#F4BF3D"/>
<path d="M784.53 264.453C785.137 264.583 785.763 264.65 786.407 264.647C791.193 264.61 795.04 260.703 795.006 255.917C794.996 254.893 794.81 253.91 794.476 253C793.943 253.113 793.376 253.233 792.797 253.357C793.12 254.15 793.303 255.02 793.31 255.93C793.34 259.78 790.243 262.923 786.397 262.953C785.743 262.957 785.117 262.87 784.517 262.707L784.53 264.453" fill="#F4BF3D"/>
<path d="M838.71 336.087C838.843 335.483 838.92 334.857 838.923 334.21C838.94 329.427 835.077 325.533 830.293 325.517C829.267 325.51 828.283 325.687 827.37 326.01C827.477 326.547 827.59 327.113 827.703 327.693C828.503 327.38 829.373 327.207 830.287 327.21C834.133 327.223 837.243 330.357 837.227 334.203C837.227 334.853 837.133 335.483 836.963 336.08L838.71 336.087Z" fill="#F4BF3D"/>
<path d="M799.83 317.447C800.45 317.457 801.077 317.403 801.71 317.273C806.397 316.313 809.417 311.737 808.46 307.05C808.253 306.043 807.88 305.117 807.377 304.29C806.877 304.503 806.343 304.73 805.797 304.96C806.267 305.68 806.617 306.497 806.8 307.39C807.57 311.16 805.14 314.843 801.37 315.613C800.733 315.743 800.097 315.78 799.48 315.737L799.83 317.447" fill="#F4BF3D"/>
<path d="M776.443 318.553L774.883 310.913L783.787 313.383L781.51 315.367L777.043 313.463L777.913 317.223L776.443 318.553" fill="#F4BF3D"/>
<path d="M785.697 238.82L784.137 231.18L793.043 233.653L790.763 235.633L786.297 233.73L787.17 237.493L785.697 238.82" fill="#F4BF3D"/>
<path d="M733.66 260.097L725.967 261.36L728.78 252.56L730.673 254.913L728.597 259.303L732.39 258.577L733.66 260.097" fill="#F4BF3D"/>
<path d="M729.27 229.403L724.64 223.13L733.76 221.623L732.527 224.383L727.673 224.533L730.047 227.58L729.27 229.403" fill="#F4BF3D"/>
<path d="M764.923 193.557L772.59 192.123L769.967 200.987L768.023 198.673L770.003 194.24L766.227 195.05L764.923 193.557" fill="#F4BF3D"/>
<path d="M812.057 324.15L819.72 322.703L817.113 331.57L815.167 329.26L817.137 324.823L813.363 325.64L812.057 324.15" fill="#F4BF3D"/>
<path d="M976.8 532.363L1000 521.75L999.807 555.23L976.8 532.363Z" fill="#4C3130"/>
<defs>
<linearGradient id="paint0_linear_490_4" x1="500" y1="361.93" x2="500" y2="82.9308" gradientUnits="userSpaceOnUse">
<stop stop-color="#F7E3AE"/>
<stop offset="1" stop-color="#F4D389"/>
</linearGradient>
</defs>
</svg>
