<svg width="1000" height="1000" viewBox="0 0 1000 1000" fill="none" xmlns="http://www.w3.org/2000/svg">
<path d="M0 1000H1000V5.96046e-05H0V1000Z" fill="#FFF59E"/>
<path d="M636.525 893.75H605.108C606.305 893.75 607.445 893.232 608.233 892.332C615.235 884.327 616.482 873.815 611.337 866.17C608.437 861.862 603.057 858.145 595.59 858.145C594.507 858.145 593.382 858.222 592.217 858.387V761.012C592.302 760.9 592.382 760.785 592.455 760.667C607.342 749.215 615.827 733.475 615.827 717.152C615.827 709.232 613.918 701.545 610.145 694.29V647.92C610.145 647.16 610.068 646.412 609.92 645.685L625.72 638.005C627.258 637.257 628.903 636.885 630.545 636.885C632.57 636.885 634.585 637.45 636.375 638.567C639.622 640.595 641.56 644.092 641.56 647.92V693.95C641.705 694.257 641.797 694.582 641.862 694.912C645.425 701.987 647.245 709.457 647.245 717.152C647.245 733.48 638.75 749.217 623.858 760.672C623.79 760.78 623.713 760.88 623.633 760.982V858.39C624.8 858.225 625.922 858.147 627.002 858.147C634.47 858.147 639.852 861.865 642.752 866.17C647.9 873.815 646.652 884.327 639.647 892.332C638.86 893.232 637.722 893.75 636.525 893.75M433.385 890.905C432.39 890.652 431.408 890.385 430.445 890.102C430.465 889.937 430.475 889.77 430.475 889.6C430.475 889.045 430.365 888.512 430.167 888.027C430.29 887.972 430.41 887.917 430.53 887.862C431.435 888.917 432.388 889.935 433.385 890.905M418.305 861.307C401.832 856.09 390.587 845.46 386.327 830.88C381.397 814.01 386.84 794.602 400.19 781.435C400.272 781.355 400.35 781.272 400.423 781.185C412.458 767.192 409.698 754.735 403.675 748.32C403.3 747.92 402.908 747.537 402.493 747.167C408.193 743.435 413.93 741.84 419.138 741.84C425.675 741.84 431.372 744.355 435.092 748.32C441.115 754.735 443.875 767.192 431.84 781.185C431.767 781.272 431.69 781.355 431.608 781.435C418.255 794.602 412.815 814.01 417.745 830.88C417.86 831.275 417.98 831.665 418.105 832.055C416.437 841.645 416.432 851.775 418.305 861.307M514.575 658.21L496.592 647.657L496.595 647.645C496.865 643.83 499.053 640.48 502.45 638.692C504.07 637.84 505.828 637.417 507.583 637.417C509.51 637.417 511.435 637.93 513.17 638.95L542.217 655.997C540.325 655.892 538.425 655.84 536.53 655.84C529.095 655.84 521.675 656.635 514.575 658.21M554.402 657.4C553.682 657.27 552.958 657.15 552.233 657.037C553.565 656.832 554.905 656.652 556.252 656.5L554.402 657.4Z" fill="#BFB893"/>
<path d="M800.822 893.75C794.297 893.75 788.522 889.835 786.105 883.775L775.652 857.555L712.547 641.075L705.97 618.487H741.715L816.032 873.472C817.44 878.305 816.517 883.387 813.495 887.415C810.475 891.44 805.855 893.75 800.822 893.75M262.012 893.75C256.977 893.75 252.36 891.44 249.338 887.415C246.317 883.387 245.393 878.305 246.801 873.472L251.823 856.245L337.595 641.075L346.602 618.487H382.487L276.727 883.772C274.312 889.835 268.535 893.75 262.012 893.75M792.387 618.485H761.087C768.915 618.422 775.265 612.035 775.265 604.192V537.797C775.265 529.915 768.853 523.502 760.97 523.502H735.487L747.725 437.405C747.892 436.215 747.537 435.007 746.75 434.1C745.96 433.192 744.817 432.67 743.615 432.67H695.652H706.65C706.527 431.28 706.42 429.902 706.327 428.54C718.047 423.255 727.833 416.102 735.37 406.782C746.61 392.887 752.855 374.182 753.083 349.662C753.1 347.985 753.085 346.285 753.045 344.557C762.15 341.517 772.55 339.685 784.207 339.077C784.272 339.075 784.337 339.072 784.402 339.072C785.445 339.072 786.46 339.457 787.232 340.167C788.052 340.922 788.535 341.975 788.57 343.09C789.465 371.285 782.97 393.9 769.267 410.3C761.472 419.627 751.19 427.1 738.56 432.67H775.033C776.235 432.67 777.377 433.192 778.165 434.1C778.955 435.007 779.31 436.215 779.14 437.405L766.905 523.505H792.387C800.27 523.505 806.68 529.915 806.68 537.797V604.192C806.68 612.072 800.27 618.485 792.387 618.485M513.05 523.502H477.45C475.682 512.152 466.772 503.162 455.46 501.277C455.45 501.275 455.442 501.275 455.435 501.272C455.43 501.272 455.425 501.27 455.422 501.27C454.007 501.037 452.557 500.912 451.077 500.91C451.067 500.91 451.055 500.91 451.045 500.91C451.042 500.91 451.037 500.91 451.032 500.91H451.027H434.427V461.487H465.845V496.762H482.445C498.07 496.762 511.015 508.425 513.05 523.505M386.477 500.91H385.845C386.055 500.79 386.265 500.67 386.477 500.555V500.91ZM598.867 461.487H567.45C584.23 461.487 597.882 447.837 597.882 431.057V210.432C597.882 193.652 584.23 180 567.45 180H284.873H598.867C615.647 180 629.297 193.652 629.297 210.43V306.065C629.127 306.045 628.955 306.032 628.782 306.032C628.062 306.032 627.347 306.22 626.712 306.587C625.745 307.142 625.045 308.065 624.765 309.145C617.702 336.455 619.072 359.942 628.842 378.952C628.992 379.245 629.145 379.535 629.297 379.825V431.057C629.297 447.837 615.647 461.487 598.867 461.487M691.575 370.445C691.562 370.272 691.55 370.1 691.537 369.927C691.77 369.827 691.993 369.71 692.208 369.582C691.995 369.867 691.782 370.157 691.575 370.445ZM694.935 366.23C695.185 365.495 695.302 364.7 695.255 363.875L692.833 319.817C702.773 326.26 710.305 334.102 715.358 343.287L719.065 275.905C719.105 275.167 719.717 274.595 720.447 274.595C720.472 274.595 720.5 274.595 720.525 274.597C721.235 274.637 721.79 275.21 721.833 275.905L725.775 347.557C712.582 351.442 702.397 357.745 694.935 366.23M683.942 343.237C677.792 332.072 667.97 322.902 654.607 315.82C655.075 313.62 655.6 311.395 656.183 309.145C656.46 308.065 657.162 307.142 658.127 306.587C658.765 306.22 659.48 306.032 660.2 306.032C660.575 306.032 660.952 306.085 661.317 306.187C670.337 308.715 678.392 311.835 685.467 315.532L683.942 343.237Z" fill="#BFB893"/>
<path d="M605.112 889.6H438.115C415.815 870.497 416.382 826.69 434.032 804.627C452.762 782.247 471.132 769.922 477.37 752.41C471.38 746.615 466.842 739.92 464.16 732.617C462.335 727.705 461.365 722.52 461.365 717.152C461.365 710.485 462.875 704.08 465.64 698.132L469.32 647.95C469.68 642.872 475.255 639.94 479.652 642.527L513.902 662.625C521.04 660.91 528.647 659.982 536.53 659.982C538.232 659.982 539.92 660.025 541.595 660.107C546.187 660.342 550.655 660.895 554.982 661.725H554.997L596.12 641.737C600.685 639.51 605.997 642.845 605.997 647.922V695.325C608.182 699.335 609.787 703.582 610.727 707.995C611.365 710.97 611.682 714.04 611.682 717.152C611.682 733.557 602.607 748.33 588.07 758.76V863.665C606.98 857.122 617.215 875.767 605.112 889.6" fill="white"/>
<path d="M431.155 870.565C430.55 870.222 429.915 869.877 429.247 869.532C428.89 868.61 428.555 867.67 428.247 866.722C428.192 866.155 428.02 865.612 427.752 865.125C422.012 845.565 426.1 821.182 437.212 807.29C443.792 799.43 450.477 792.675 456.377 786.715C465.85 777.15 474.212 768.7 479.127 758.837C480.9 760.042 482.717 761.16 484.567 762.192C477.577 778.477 460.035 790.675 442.167 812.027C430.557 826.54 426.337 850.46 431.155 870.565Z" fill="white"/>
<path d="M610.727 707.995C603.355 713.75 594.185 717.152 584.252 717.152C559.935 717.152 540.21 696.722 540.21 671.505C540.21 667.577 540.695 663.76 541.595 660.107C546.188 660.342 550.655 660.895 554.983 661.725H554.998L596.12 641.737C600.685 639.51 605.998 642.845 605.998 647.922V695.325C608.183 699.335 609.787 703.582 610.727 707.995Z" fill="#FF8500"/>
<path d="M464.158 732.618C467.948 729.988 472.54 728.452 477.505 728.452C490.492 728.452 501.02 738.98 501.02 751.968C501.02 757.073 499.403 761.775 496.65 765.62C496.65 765.62 473.96 755.455 464.158 732.618Z" fill="#FF8500"/>
<path d="M490.483 673.815L504.84 666.995L479.652 652.21C478.535 651.552 477.34 651.25 476.177 651.25C475.13 651.25 474.107 651.495 473.185 651.94L473.455 648.242C473.552 646.887 474.495 646.25 474.895 646.037C475.133 645.915 475.595 645.72 476.177 645.72C476.587 645.72 477.057 645.817 477.547 646.105L511.797 666.205C512.44 666.58 513.167 666.775 513.9 666.775C514.222 666.775 514.547 666.737 514.867 666.66C521.84 664.985 529.177 664.14 536.53 664.14C537.942 664.14 539.357 664.172 540.767 664.235C540.49 666.035 540.312 667.87 540.242 669.732C539.012 669.687 537.775 669.665 536.53 669.665C528.647 669.665 521.04 670.592 513.902 672.307L490.483 673.815" fill="white"/>
<path d="M579.19 673.982L554.997 671.407H554.982C550.655 670.577 546.187 670.025 541.595 669.79C541.145 669.767 540.695 669.747 540.242 669.732C540.312 667.87 540.49 666.035 540.767 664.235C545.292 664.435 549.797 664.955 554.197 665.802C554.455 665.85 554.717 665.875 554.977 665.875C555.61 665.875 556.242 665.732 556.807 665.457L597.937 645.467C598.36 645.26 598.76 645.185 599.117 645.185C599.787 645.185 600.31 645.45 600.562 645.605C600.947 645.847 601.845 646.555 601.845 647.92V651.285C600.997 650.917 600.075 650.717 599.127 650.717C598.13 650.717 597.107 650.94 596.12 651.42L565.357 666.372L579.19 673.982" fill="#FFCE99"/>
<path d="M426.327 889.6C372.782 889.6 351.428 851.92 349.698 815.182C349.38 808.21 349.752 801.267 350.762 794.612C353.53 776.285 361.027 760.212 371.455 751.967C393.13 735.605 417.102 755.428 397.28 778.485C390.475 785.192 385.592 793.382 382.895 802.055C376.932 821.145 381.43 842.625 398.885 856.015C405.428 861.05 413.797 864.922 424.115 867.122C442.277 874.937 445.405 882.477 426.327 889.6" fill="white"/>
<path d="M397.28 778.485C390.475 785.192 385.593 793.382 382.895 802.055C375.413 804.807 367.32 804.807 360.003 801.447C356.405 799.787 353.308 797.45 350.763 794.612C353.53 776.285 361.028 760.212 371.455 751.967C393.13 735.605 417.103 755.427 397.28 778.485" fill="#FF8500"/>
<path d="M439.692 885.45H603.117C607.122 879.942 606.762 874.235 604.452 870.805C601.572 866.53 595.952 865.325 589.425 867.585C588.155 868.025 586.753 867.822 585.66 867.045C584.568 866.265 583.917 865.007 583.917 863.665V758.76C583.917 757.422 584.563 756.167 585.648 755.387C599.758 745.265 607.53 731.685 607.53 717.152C607.53 710.29 605.787 703.612 602.35 697.312C602.017 696.702 601.845 696.017 601.845 695.325V647.92C601.845 646.555 600.947 645.847 600.562 645.605C600.177 645.365 599.152 644.872 597.937 645.467L556.808 665.457C556.008 665.847 555.075 665.967 554.197 665.802C541.285 663.32 527.472 663.63 514.867 666.66C513.825 666.91 512.725 666.747 511.798 666.205L477.548 646.105C476.363 645.41 475.3 645.827 474.895 646.037C474.495 646.25 473.552 646.887 473.455 648.242L469.775 698.437C469.74 698.937 469.612 699.427 469.4 699.882C466.82 705.427 465.512 711.237 465.512 717.152C465.512 728.945 470.61 740.105 480.252 749.427C481.422 750.56 481.822 752.27 481.275 753.802C476.955 765.93 467.42 775.562 456.377 786.715C450.477 792.675 443.792 799.43 437.212 807.29C421.615 826.79 419.857 866.962 439.692 885.45M605.108 893.75H438.11C437.12 893.75 436.163 893.395 435.41 892.752C410.743 871.62 412.252 825.207 430.79 802.035C437.65 793.837 444.465 786.952 450.48 780.877C460.415 770.842 468.425 762.75 472.512 753.405C462.625 742.977 457.212 730.202 457.212 717.152C457.212 710.272 458.672 703.525 461.552 697.087L465.177 647.645C465.447 643.83 467.638 640.48 471.033 638.692C474.43 636.905 478.437 637 481.752 638.95L514.575 658.21C527.412 655.362 541.292 655.07 554.402 657.4L594.302 638.005C597.732 636.332 601.718 636.54 604.96 638.567C608.205 640.595 610.145 644.092 610.145 647.92V694.29C613.918 701.545 615.827 709.232 615.827 717.152C615.827 733.562 607.252 749.382 592.217 760.852V858.387C601.447 857.082 608.017 861.24 611.337 866.17C616.482 873.815 615.235 884.327 608.233 892.332C607.445 893.232 606.305 893.75 605.108 893.75" fill="#000072"/>
<path d="M358.337 834.047C357.342 832.487 356.437 830.922 355.612 829.377C353.505 818.912 353.295 808.177 354.542 798.132C355.712 799.04 356.962 799.86 358.29 800.585C358.235 800.912 358.185 801.24 358.135 801.57C357.125 808.225 356.752 815.167 357.07 822.14C357.257 826.115 357.675 830.1 358.337 834.047Z" fill="white"/>
<path d="M358.29 800.585C356.962 799.86 355.712 799.04 354.542 798.132C356.877 779.295 364.33 762.892 373.957 755.28C378.767 751.645 383.587 750.122 387.765 750.122C391.25 750.122 394.29 751.185 396.505 752.965C396.06 752.935 395.607 752.922 395.152 752.922C390.075 752.922 384.375 754.74 378.827 758.925C368.587 767.022 361.172 782.667 358.29 800.585Z" fill="#FFCE99"/>
<path d="M501.2 769.12C491.745 766.337 482.532 761.897 474.477 755.39L474.442 755.362C472.652 753.912 472.373 751.287 473.82 749.495C475.268 747.705 477.895 747.425 479.687 748.872C479.892 749.04 480.093 749.24 480.258 749.432C486.11 756.392 493.738 762.18 502.223 766.55C502.908 766.897 503.177 767.735 502.83 768.417C502.522 769.02 501.827 769.302 501.2 769.12" fill="#000072"/>
<path d="M589.702 762.575C585.162 763.492 580.5 765.192 575.625 766.562C574.88 766.772 574.102 766.337 573.892 765.59C573.732 765.017 573.95 764.43 574.397 764.09L574.42 764.072C578.285 761.155 582.002 757.84 586.432 754.945L586.545 754.872C588.505 753.592 591.13 754.142 592.41 756.102C593.69 758.062 593.14 760.687 591.18 761.967C590.72 762.267 590.21 762.47 589.702 762.575" fill="#000072"/>
<path d="M495.47 669.12C498.17 667.207 501.008 665.43 503.85 663.748L512.315 658.787C514.312 657.617 516.878 658.287 518.048 660.282C519.218 662.28 518.547 664.845 516.552 666.015C516.217 666.212 515.84 666.362 515.483 666.457C509.08 668.12 502.813 669.47 496.735 671.58C496.005 671.832 495.21 671.447 494.958 670.72C494.748 670.117 494.975 669.47 495.47 669.12Z" fill="#000072"/>
<path d="M462.07 696C467.405 688.815 473.72 682.37 480.902 677.345C481.532 676.905 482.4 677.057 482.84 677.687C483.222 678.232 483.152 678.962 482.72 679.432C477.005 685.632 472.585 692.747 469.205 700.237C468.255 702.34 465.782 703.275 463.68 702.327C461.58 701.38 460.642 698.907 461.592 696.802C461.715 696.532 461.862 696.28 462.032 696.047L462.07 696Z" fill="#000072"/>
<path d="M591.458 679.18C597.67 683.095 603.553 687.645 609.115 692.58L609.135 692.598C610.863 694.133 611.02 696.777 609.488 698.507C607.953 700.235 605.308 700.392 603.578 698.857C603.31 698.622 603.07 698.34 602.878 698.057C598.945 692.185 594.603 686.545 589.7 681.318C589.173 680.755 589.198 679.872 589.758 679.345C590.23 678.9 590.933 678.853 591.458 679.18" fill="#000072"/>
<path d="M556.58 657.898C562.445 661.348 568.278 664.93 573.848 668.85C574.48 669.293 574.63 670.163 574.187 670.793C573.82 671.318 573.15 671.508 572.575 671.305C566.265 669.083 559.85 667.26 553.38 665.555C551.145 664.965 549.808 662.673 550.398 660.435C550.988 658.2 553.28 656.863 555.517 657.453C555.89 657.553 556.238 657.698 556.558 657.883L556.58 657.898" fill="#000072"/>
<path d="M471.17 817.022C475.803 819.255 480.213 822.177 484.013 825.885C487.853 829.555 490.955 834.077 493.175 838.995C494.278 841.455 495.21 844.005 495.885 846.612C496.193 847.92 496.55 849.232 496.67 850.565C496.838 851.892 497.04 853.225 497.06 854.555C497.373 859.872 497.173 865.155 496.495 870.337L491.123 867.03C495.748 863.895 500.788 861.165 506.408 859.432C509.238 858.627 512.22 858.072 515.34 858.102C518.445 858.13 521.717 858.792 524.667 860.39C526.155 861.155 527.495 862.227 528.702 863.412C529.845 864.66 530.902 866.017 531.615 867.55C533.172 870.565 533.632 873.997 533.317 877.262C532.977 880.545 531.708 883.667 529.848 886.307C527.983 888.955 525.497 891.087 522.775 892.612L522.737 892.632C521.072 893.567 518.965 892.972 518.03 891.307C517.097 889.64 517.693 887.532 519.358 886.6L519.38 886.587C523.282 884.437 525.995 880.657 526.442 876.527C526.897 872.41 524.963 868.292 521.37 866.467C519.605 865.512 517.487 865.035 515.252 865.02C513.012 864.995 510.677 865.412 508.365 866.065C503.74 867.492 499.235 869.877 495.01 872.75C493.433 873.822 491.28 873.412 490.208 871.832C489.718 871.11 489.535 870.272 489.635 869.47L489.638 869.44C490.23 864.637 490.515 859.81 490.067 855.087C489.842 852.727 489.495 850.402 489.095 848.095C488.73 845.78 488.17 843.502 487.438 841.277C485.958 836.835 483.697 832.635 480.715 828.89C477.72 825.155 474.058 821.867 470.008 819.012L470 819.01C469.48 818.64 469.355 817.92 469.723 817.397C470.053 816.927 470.67 816.78 471.17 817.022" fill="#000072"/>
<path d="M518.425 818.017L520.732 859.86C520.837 861.77 519.372 863.405 517.465 863.51C515.552 863.615 513.92 862.152 513.815 860.242C513.807 860.115 513.807 859.985 513.815 859.86L516.12 818.017C516.155 817.38 516.7 816.892 517.337 816.927C517.927 816.96 518.392 817.44 518.425 818.017Z" fill="#000072"/>
<path d="M543.745 813.422C546.612 812.915 549.355 812.755 552.072 812.627C554.79 812.515 557.47 812.472 560.152 812.487C562.835 812.497 565.52 812.545 568.235 812.657C570.957 812.79 573.697 812.942 576.562 813.422L576.572 813.425C577.235 813.535 577.68 814.162 577.57 814.822C577.505 815.21 577.26 815.525 576.942 815.697C574.322 817.09 571.545 817.935 568.727 818.532C565.905 819.107 563.03 819.39 560.152 819.397C557.277 819.412 554.4 819.137 551.577 818.562C548.757 817.972 545.98 817.117 543.365 815.697C542.772 815.375 542.555 814.635 542.875 814.042C543.06 813.705 543.38 813.49 543.73 813.425L543.745 813.422" fill="#000072"/>
<path d="M565.56 892.885L563.392 886.315C569.995 884.14 572.338 877.992 571.245 873.045C570.835 871.2 568.868 865.26 560.558 866.235C559.575 866.347 558.592 866.04 557.855 865.385C557.117 864.727 556.695 863.787 556.695 862.8V815.942H563.612V859.26C571.76 859.82 576.657 865.5 577.997 871.55C579.72 879.337 575.945 889.46 565.56 892.885Z" fill="#000072"/>
<path d="M560.992 866.155C557.985 866.515 555.055 867.053 552.262 868.018C549.47 868.97 546.815 870.397 544.36 872.27C543.85 872.66 543.122 872.563 542.732 872.053C542.402 871.618 542.422 871.027 542.75 870.62C544.802 868.062 547.33 865.74 550.202 863.89C553.072 862.028 556.197 860.625 559.315 859.445L559.342 859.435C561.142 858.752 563.155 859.66 563.835 861.46C564.517 863.26 563.61 865.273 561.81 865.955C561.547 866.055 561.26 866.12 560.992 866.155" fill="#000072"/>
<path d="M426.325 893.75C375.887 893.75 357.35 862.08 350.79 843.2C339.145 809.692 347.6 765.54 368.882 748.712C382.415 738.49 396.61 740.792 403.675 748.32C409.697 754.735 412.457 767.192 400.422 781.185C400.35 781.272 400.272 781.355 400.19 781.435C386.84 794.602 381.397 814.01 386.327 830.88C391.142 847.352 404.867 858.782 424.98 863.065C427.22 863.54 428.65 865.745 428.172 867.987C427.697 870.23 425.495 871.655 423.25 871.182C400.015 866.235 384.072 852.747 378.36 833.207C372.602 813.502 378.835 790.93 394.237 775.65C401.202 767.482 402.502 759.197 397.625 754C393.095 749.172 383.51 748.065 373.957 755.28C357.355 768.405 347.227 807.665 358.63 840.475C368.71 869.477 392.75 885.45 426.325 885.45C428.617 885.45 430.475 887.307 430.475 889.6C430.475 891.892 428.617 893.75 426.325 893.75" fill="#000072"/>
<path d="M536.52 772.717C524.965 772.717 513.405 770.965 502.942 767.462C502.852 767.08 502.6 766.74 502.223 766.55C500.683 765.755 499.17 764.915 497.692 764.03C499.805 760.507 501.02 756.39 501.02 751.967C501.02 748.997 500.47 746.157 499.465 743.54C507.76 745.245 516.855 746.325 526.17 746.782C527.518 748.395 529.087 749.922 530.915 751.297C532.212 752.272 533.82 752.81 535.442 752.81C536.815 752.81 538.163 752.432 539.335 751.72C540.99 750.712 543.093 749.162 545.235 746.857C570.518 745.815 594.462 740.21 605.427 730.037C602.235 739.6 595.48 748.335 585.648 755.387C585.47 755.515 585.305 755.655 585.152 755.805C581.275 758.482 577.908 761.44 574.42 764.072L574.398 764.09C573.95 764.43 573.732 765.017 573.892 765.59C573.937 765.747 574.008 765.89 574.095 766.017C562.618 770.485 549.573 772.717 536.52 772.717M467.792 730.55C467.732 730.38 467.675 730.21 467.617 730.04C467.76 730.17 467.905 730.302 468.053 730.432C467.965 730.472 467.877 730.51 467.792 730.55" fill="#B2B2D4"/>
<path d="M497.692 764.03C491.26 760.18 485.467 755.475 480.767 750.03C480.617 749.817 480.447 749.617 480.255 749.432C480.09 749.237 479.892 749.04 479.687 748.872C479.685 748.872 479.685 748.872 479.683 748.87C474.088 743.315 470.085 737.125 467.792 730.55C467.877 730.51 467.965 730.472 468.052 730.432C474.787 736.422 486.082 740.792 499.465 743.54C500.47 746.157 501.02 748.997 501.02 751.967C501.02 756.39 499.805 760.507 497.692 764.03" fill="#B25D22"/>
<path d="M592.275 755.907C591.452 754.787 590.167 754.182 588.857 754.182C588.062 754.182 587.26 754.405 586.545 754.872L586.432 754.945C586 755.23 585.572 755.515 585.152 755.805C585.305 755.655 585.47 755.515 585.647 755.387C595.48 748.335 602.235 739.6 605.427 730.037C609.407 726.345 611.68 722.047 611.68 717.152C611.68 733.82 604.067 746.74 592.275 755.907M480.767 750.03C480.595 749.832 480.425 749.632 480.257 749.432C480.257 749.432 480.257 749.432 480.255 749.432C480.447 749.617 480.617 749.817 480.767 750.03ZM473.807 749.512C466.065 741.042 461.362 730.257 461.362 717.152C461.362 722.05 463.632 726.345 467.617 730.04C467.675 730.21 467.732 730.38 467.792 730.55C470.085 737.125 474.087 743.315 479.682 748.87C478.912 748.247 477.987 747.947 477.067 747.947C475.85 747.947 474.645 748.475 473.82 749.495C473.817 749.5 473.812 749.507 473.807 749.512Z" fill="#000072"/>
<path d="M502.942 767.462C491.417 763.602 481.222 757.62 473.807 749.512C473.812 749.507 473.817 749.5 473.82 749.495C474.645 748.475 475.85 747.947 477.067 747.947C477.987 747.947 478.912 748.247 479.682 748.87C479.685 748.872 479.685 748.872 479.687 748.872C479.892 749.04 480.09 749.237 480.255 749.432C480.257 749.432 480.257 749.432 480.257 749.432C480.425 749.632 480.595 749.832 480.767 750.03C485.467 755.475 491.26 760.18 497.692 764.03C499.17 764.915 500.682 765.755 502.222 766.55C502.6 766.74 502.852 767.08 502.942 767.462" fill="#000072"/>
<path d="M574.095 766.017C574.007 765.89 573.937 765.747 573.892 765.59C573.732 765.017 573.95 764.43 574.397 764.09L574.42 764.072C577.907 761.44 581.275 758.482 585.152 755.805C585.572 755.515 586 755.23 586.432 754.945L586.545 754.872C587.26 754.405 588.062 754.182 588.857 754.182C590.167 754.182 591.452 754.787 592.275 755.907C586.96 760.04 580.795 763.407 574.095 766.017" fill="#000072"/>
<path d="M521.137 885.45H506.762C517.87 878.96 517.222 869.335 505.442 867.097C506.41 866.712 507.385 866.367 508.365 866.065C510.615 865.427 512.887 865.017 515.072 865.017C515.132 865.017 515.192 865.017 515.252 865.02C517.487 865.035 519.605 865.512 521.37 866.467C524.962 868.292 526.897 872.41 526.442 876.527C526.065 880.005 524.085 883.232 521.137 885.45" fill="#B2B2D4"/>
<path d="M517.272 889.6H496.08C500.4 888.53 503.955 887.09 506.762 885.45H521.137C520.582 885.867 519.997 886.247 519.38 886.587L519.357 886.6C518.265 887.212 517.632 888.327 517.592 889.495C517.487 889.53 517.38 889.565 517.272 889.6Z" fill="#000072"/>
<path d="M497.112 863.375C497.25 860.452 497.235 857.51 497.06 854.555C497.04 853.225 496.837 851.893 496.67 850.565C496.55 849.233 496.192 847.92 495.885 846.612C495.21 844.005 494.277 841.455 493.175 838.995C492.785 838.135 492.372 837.288 491.93 836.455L492.03 835.655C493.252 822.803 505.62 820.97 512.58 820.97C513.957 820.97 515.125 821.04 515.95 821.112L513.91 858.13C511.307 858.25 508.802 858.752 506.407 859.432C503.12 860.445 500.035 861.8 497.112 863.375" fill="#B2B2D4"/>
<path d="M517.592 889.495C517.632 888.327 518.265 887.212 519.357 886.6L519.38 886.587C519.997 886.247 520.582 885.867 521.137 885.45C524.085 883.232 526.065 880.005 526.442 876.527C526.897 872.41 524.962 868.292 521.37 866.467C519.605 865.512 517.487 865.035 515.252 865.02C515.192 865.017 515.132 865.017 515.072 865.017C512.887 865.017 510.615 865.427 508.365 866.065C507.385 866.367 506.41 866.712 505.442 867.097C503.817 866.79 501.982 866.622 499.937 866.622C497.95 866.622 495.765 866.78 493.382 867.122L490.777 845.797L491.93 836.455C492.372 837.287 492.785 838.135 493.175 838.995C494.277 841.455 495.21 844.005 495.885 846.612C496.192 847.92 496.55 849.232 496.67 850.565C496.837 851.892 497.04 853.225 497.06 854.555C497.235 857.51 497.25 860.452 497.112 863.375C500.035 861.8 503.12 860.445 506.407 859.432C508.802 858.752 511.307 858.25 513.91 858.13L513.815 859.86C513.807 859.985 513.807 860.115 513.815 860.242C513.917 862.087 515.445 863.515 517.27 863.515C517.335 863.515 517.4 863.512 517.465 863.51C518.965 863.427 520.187 862.4 520.595 861.037C525.117 865.587 539.487 882.117 517.592 889.495" fill="#000072"/>
<path d="M517.27 863.515C515.445 863.515 513.917 862.087 513.815 860.242C513.807 860.115 513.807 859.985 513.815 859.86L513.91 858.13L515.95 821.112C516.787 821.187 517.272 821.262 517.272 821.262L519.365 859.86C519.365 859.86 519.845 860.285 520.595 861.037C520.187 862.4 518.965 863.427 517.465 863.51C517.4 863.512 517.335 863.515 517.27 863.515" fill="#000072"/>
<path d="M544.51 887.2C544.195 887.2 543.877 887.192 543.555 887.18H545.455C545.145 887.192 544.83 887.2 544.51 887.2Z" fill="#000072"/>
<path d="M565.437 885.45H552.652C556.995 883.42 559.967 879.897 561.355 876.377C562.987 872.235 562.427 868.09 559.325 866.375C559.607 866.335 559.89 866.295 560.175 866.257C560.302 866.257 560.43 866.25 560.557 866.235C561.18 866.162 561.767 866.127 562.32 866.127C569.155 866.127 570.867 871.34 571.245 873.045C572.217 877.442 570.472 882.787 565.437 885.45" fill="#B2B2D4"/>
<path d="M563.677 887.18H545.455C548.157 887.06 550.562 886.428 552.652 885.45H565.437C564.807 885.783 564.127 886.075 563.392 886.315L563.677 887.18" fill="#000072"/>
<path d="M539.078 873.002V815.942L543.138 815.537C543.205 815.597 543.283 815.652 543.365 815.697C545.98 817.117 548.758 817.972 551.578 818.562C553.268 818.907 554.978 819.145 556.695 819.275V860.495C554.465 861.447 552.268 862.55 550.203 863.89C547.425 865.68 544.97 867.907 542.955 870.365C541.728 871.137 540.433 872.012 539.078 873.002Z" fill="#B2B2D4"/>
<path d="M556.695 819.275C554.978 819.145 553.268 818.907 551.578 818.562C548.758 817.972 545.98 817.117 543.365 815.697C543.283 815.652 543.205 815.597 543.138 815.537L545.992 815.25L556.695 817.342V819.275Z" fill="#000072"/>
<path d="M566.73 887.18H563.677L563.392 886.315C564.127 886.075 564.807 885.783 565.437 885.45C570.472 882.788 572.218 877.443 571.245 873.045C570.868 871.34 569.155 866.128 562.32 866.128C561.768 866.128 561.18 866.163 560.558 866.235C560.43 866.25 560.302 866.258 560.175 866.258C560.447 866.223 560.72 866.188 560.992 866.155C561.26 866.12 561.547 866.055 561.81 865.955C562.935 865.53 563.71 864.585 563.967 863.498C570.272 867.15 572.872 872.903 572.317 880.448C569.907 884.308 566.73 887.18 566.73 887.18M556.695 860.495V819.275V817.343L559.762 817.94L560.152 855.285C560.152 855.285 558.642 856.155 561.447 858.958L561.46 859.323C561.175 859.248 560.877 859.208 560.575 859.208C560.165 859.208 559.75 859.28 559.342 859.435L559.315 859.445C558.44 859.775 557.565 860.125 556.695 860.495" fill="#000072"/>
<path d="M542.955 870.365C544.97 867.907 547.425 865.68 550.202 863.89C552.267 862.55 554.465 861.447 556.695 860.495C557.565 860.125 558.44 859.775 559.315 859.445L559.342 859.435C559.75 859.28 560.165 859.207 560.575 859.207C560.877 859.207 561.175 859.247 561.46 859.322L561.555 862.282C562.412 862.657 563.215 863.062 563.967 863.497C563.71 864.585 562.935 865.53 561.81 865.955C561.547 866.055 561.26 866.12 560.992 866.155C560.72 866.187 560.447 866.222 560.175 866.257C559.89 866.295 559.607 866.335 559.325 866.375C558.375 865.852 557.187 865.555 555.75 865.555C552.665 865.555 548.432 866.927 542.955 870.365Z" fill="#000072"/>
<path d="M430.167 888.027C430.287 887.972 430.41 887.917 430.53 887.862C430.41 887.917 430.29 887.972 430.167 888.027Z" fill="#858089"/>
<path d="M430.168 888.027C429.548 886.515 428.06 885.45 426.325 885.45C396.125 885.45 373.64 872.527 362.088 848.825C360.42 844.027 359.18 839.067 358.338 834.047C365.068 844.61 375.808 854.877 392.388 856.027C399.715 862.847 409.32 867.82 420.82 870.627C423.053 877.002 426.263 882.882 430.53 887.862C430.41 887.917 430.288 887.972 430.168 888.027" fill="#B2B2D4"/>
<path d="M430.53 887.862C426.262 882.882 423.052 877.002 420.82 870.627C421.62 870.822 422.432 871.007 423.25 871.182C423.54 871.242 423.83 871.272 424.115 871.272C424.582 871.272 425.037 871.192 425.465 871.047C427.59 876.575 430.525 881.62 434.297 885.852C433.225 886.522 431.97 887.195 430.53 887.862" fill="#000072"/>
<path d="M362.087 848.825C360.797 846.175 359.642 843.392 358.63 840.475C357.367 836.84 356.367 833.125 355.612 829.377C356.437 830.922 357.342 832.487 358.337 834.047C359.18 839.067 360.42 844.027 362.087 848.825" fill="#B2B2D4"/>
<path d="M426.327 889.6C372.782 889.6 351.428 851.92 349.698 815.182C350.838 818.83 352.725 823.97 355.612 829.377C356.367 833.125 357.368 836.84 358.63 840.475C359.643 843.392 360.797 846.175 362.087 848.825C373.64 872.527 396.125 885.45 426.325 885.45C428.06 885.45 429.547 886.515 430.167 888.027C429.005 888.555 427.725 889.08 426.327 889.6M424.115 871.272C423.83 871.272 423.54 871.242 423.25 871.182C422.432 871.007 421.62 870.822 420.82 870.627C409.32 867.82 399.715 862.847 392.387 856.027C393.402 856.1 394.442 856.135 395.502 856.135C396.607 856.135 397.733 856.095 398.885 856.015C405.428 861.05 413.797 864.922 424.115 867.122C424.522 868.455 424.972 869.762 425.465 871.047C425.037 871.192 424.582 871.272 424.115 871.272Z" fill="#000072"/>
<path d="M591.77 885.45H575.392C578.177 881.17 578.977 875.982 577.997 871.55C577.885 871.045 577.747 870.54 577.585 870.042L584.785 866.202C585.03 866.52 585.322 866.805 585.66 867.045C586.372 867.552 587.215 867.815 588.067 867.815C588.522 867.815 588.982 867.74 589.425 867.585C590.495 867.215 591.54 866.937 592.555 866.752C594.225 872.14 596.277 881.565 591.77 885.45" fill="#B2B2D4"/>
<path d="M586.24 887.2C586.235 887.2 586.227 887.2 586.222 887.2C580.982 887.192 577.032 887.187 574.107 887.185C574.575 886.627 575.002 886.047 575.392 885.45H591.77C590.5 886.545 588.71 887.2 586.24 887.2ZM588.067 867.815C587.215 867.815 586.372 867.552 585.66 867.045C585.322 866.805 585.03 866.52 584.785 866.202L591.162 862.8C591.162 862.8 591.822 864.387 592.555 866.752C591.54 866.937 590.495 867.215 589.425 867.585C588.982 867.74 588.522 867.815 588.067 867.815Z" fill="#000072"/>
<path d="M574.955 865.087C572.477 861.93 568.67 859.607 563.612 859.26V819.255C565.327 819.115 567.037 818.877 568.727 818.532C570.842 818.085 572.935 817.495 574.955 816.64V865.087" fill="#B2B2D4"/>
<path d="M563.612 819.255V816.4L574.955 815.943V816.64C572.935 817.495 570.842 818.085 568.727 818.532C567.037 818.877 565.327 819.115 563.612 819.255" fill="#000072"/>
<path d="M574.107 887.185C568.605 887.18 566.73 887.18 566.73 887.18H571.127C571.762 884.8 572.162 882.555 572.317 880.447C575.362 875.572 577.187 869.12 569.852 864.875C566.98 863.212 564.9 861.817 563.402 860.652C563.055 860.17 562.592 859.792 562.07 859.545C561.842 859.34 561.635 859.145 561.447 858.957L560.152 818.017L559.762 817.94L559.747 816.555L563.612 816.4V819.255V859.26C568.67 859.607 572.477 861.93 574.955 865.087V871.445L577.585 870.042C577.747 870.54 577.885 871.045 577.997 871.55C578.977 875.982 578.177 881.17 575.392 885.45C575.002 886.047 574.575 886.627 574.107 887.185" fill="#000072"/>
<path d="M563.402 860.652C562.892 860.257 562.452 859.887 562.07 859.545C562.592 859.792 563.055 860.17 563.402 860.652Z" fill="#000072"/>
<path d="M571.128 887.18H566.73C566.73 887.18 569.908 884.308 572.318 880.448C572.163 882.555 571.763 884.8 571.128 887.18ZM561.448 858.958C558.643 856.155 560.153 855.285 560.153 855.285L559.763 817.94L560.153 818.018L561.448 858.958Z" fill="#000072"/>
<path d="M535.442 751.005C534.21 751.005 532.987 750.598 532 749.855C519.417 740.395 519.857 723.273 519.882 722.548C519.91 721.738 520.475 721.045 521.265 720.855C531.035 718.51 535.025 713.278 535.065 713.225C535.407 712.765 535.945 712.498 536.512 712.498C536.55 712.498 536.59 712.498 536.63 712.5C537.24 712.54 537.787 712.887 538.087 713.42C542.697 721.645 551.497 723.148 551.585 723.16C552.06 723.238 552.485 723.498 552.765 723.888C553.045 724.278 553.162 724.76 553.087 725.235C550.57 740.695 542.802 747.497 538.397 750.177C537.507 750.717 536.485 751.005 535.442 751.005" fill="#000072"/>
<path d="M536.512 710.692C535.385 710.692 534.32 711.217 533.635 712.12C533.44 712.37 529.742 716.962 520.842 719.1C519.265 719.48 518.132 720.865 518.077 722.487C518.05 723.25 517.59 741.28 530.915 751.297C532.212 752.272 533.82 752.81 535.442 752.81C536.815 752.81 538.163 752.432 539.335 751.72C544.008 748.88 552.235 741.697 554.867 725.525C555.022 724.575 554.792 723.603 554.227 722.823C553.662 722.045 552.81 721.522 551.858 721.375C551.55 721.325 543.82 719.955 539.662 712.537C539.065 711.47 537.968 710.777 536.745 710.7C536.668 710.695 536.59 710.692 536.512 710.692M536.512 714.302C541.635 723.445 551.305 724.945 551.305 724.945C548.87 739.9 541.313 746.29 537.458 748.635C536.838 749.012 536.137 749.2 535.442 749.2C534.61 749.2 533.78 748.932 533.085 748.412C521.11 739.407 521.687 722.61 521.687 722.61C532.205 720.085 536.512 714.302 536.512 714.302" fill="#000072"/>
<path d="M520.098 723.525C518.93 723.582 517.973 723.512 516.938 723.427C515.925 723.332 514.928 723.202 513.945 723.022C511.978 722.67 510.065 722.162 508.23 721.515C510.177 721.512 512.097 721.357 513.967 721.05C514.9 720.9 515.823 720.702 516.725 720.475C517.603 720.247 518.555 719.972 519.273 719.665C520.293 719.23 521.475 719.705 521.91 720.727C522.345 721.747 521.87 722.927 520.848 723.362C520.625 723.457 520.395 723.51 520.167 723.522L520.098 723.525Z" fill="#000072"/>
<path d="M553.617 721.898C554.337 722.195 555.295 722.46 556.175 722.677C557.08 722.895 558.002 723.08 558.94 723.223C560.812 723.508 562.732 723.643 564.68 723.623C562.852 724.29 560.947 724.82 558.982 725.195C558 725.385 557.005 725.525 555.995 725.63C554.962 725.728 554.005 725.807 552.835 725.765L552.775 725.763C551.667 725.72 550.8 724.787 550.842 723.677C550.885 722.57 551.817 721.705 552.927 721.745C553.17 721.755 553.407 721.81 553.617 721.898" fill="#000072"/>
<path d="M514.992 759.365L508.295 740.312L507.29 735.702L517.6 734.002C518.742 733.215 522.155 731.145 526.455 731.145C529.592 731.145 532.497 732.217 535.11 734.34C536.785 733.367 539.967 731.87 543.677 731.87C547.27 731.87 550.48 733.237 553.217 735.932L554.225 736.925L538.15 764.082L514.992 759.365Z" fill="#ED1B24"/>
<path d="M526.455 729.333C522.01 729.333 518.48 731.255 516.912 732.28L508.875 733.605L505.115 734.225L505.927 737.952L506.502 740.59L506.55 740.807L506.625 741.02L512.942 758.998L513.623 760.935L515.637 761.345L536.525 765.6L539.052 766.115L540.365 763.895L555.062 739.068L556.508 736.627L554.487 734.64C551.445 731.642 547.705 730.057 543.677 730.057C540.23 730.057 537.242 731.185 535.262 732.19C532.58 730.312 529.577 729.333 526.455 729.333M526.455 732.955C529.07 732.955 532.042 733.838 534.937 736.6C534.937 736.6 538.837 733.68 543.677 733.68C546.315 733.68 549.23 734.548 551.945 737.223L537.25 762.05L516.36 757.795L510.042 739.818L509.465 737.18L518.315 735.72C518.315 735.72 521.827 732.955 526.455 732.955" fill="#000072"/>
<path d="M535.242 739.898C533.637 736.418 527.252 735.533 523.852 735.308C523.622 734.658 523.42 734.018 523.235 733.388C524.215 733.128 525.3 732.955 526.455 732.955C529.07 732.955 532.042 733.838 534.937 736.6C534.937 736.6 538.837 733.68 543.677 733.68C545.247 733.68 546.917 733.988 548.585 734.803C548.505 734.998 548.422 735.19 548.34 735.38C548.34 735.385 548.34 735.385 548.337 735.388C548.32 735.428 548.302 735.465 548.285 735.505C548.285 735.508 548.285 735.51 548.285 735.51C548.275 735.528 548.267 735.545 548.26 735.563C548.26 735.565 548.257 735.57 548.257 735.573C548.25 735.59 548.242 735.608 548.235 735.625C548.232 735.63 548.23 735.638 548.227 735.643C548.22 735.655 548.215 735.668 548.21 735.683C548.207 735.688 548.205 735.693 548.202 735.698C548.195 735.715 548.187 735.733 548.18 735.75C548.177 735.755 548.175 735.76 548.172 735.765C548.165 735.778 548.16 735.79 548.155 735.805C548.152 735.81 548.15 735.815 548.147 735.82C548.14 735.838 548.132 735.853 548.125 735.87C548.122 735.878 548.117 735.885 548.115 735.893C548.11 735.903 548.107 735.913 548.102 735.923C548.097 735.93 548.095 735.94 548.09 735.948C548.085 735.96 548.08 735.97 548.075 735.983C548.07 735.995 548.065 736.005 548.06 736.018C548.055 736.025 548.052 736.033 548.047 736.043C548.042 736.053 548.037 736.063 548.035 736.07C548.03 736.078 548.027 736.085 548.025 736.093C548.017 736.108 548.01 736.128 548 736.143C547.997 736.15 547.995 736.158 547.992 736.163C547.987 736.173 547.982 736.185 547.977 736.195C547.975 736.2 547.972 736.203 547.972 736.208C547.96 736.233 547.95 736.255 547.94 736.278C547.937 736.28 547.937 736.28 547.937 736.28C547.932 736.295 547.927 736.305 547.92 736.318C547.92 736.32 547.917 736.325 547.917 736.328C547.862 736.443 547.807 736.558 547.755 736.67C546.657 736.38 545.6 736.255 544.595 736.255C539.135 736.255 535.242 739.898 535.242 739.898" fill="#8E1043"/>
<path d="M534.938 736.6C532.043 733.837 529.07 732.955 526.455 732.955C525.3 732.955 524.215 733.127 523.235 733.387C523.198 733.252 523.158 733.117 523.123 732.987C523.123 732.985 523.123 732.987 523.123 732.985C523.12 732.977 523.118 732.967 523.115 732.957C523.113 732.955 523.113 732.955 523.113 732.952C523.11 732.945 523.107 732.935 523.105 732.925C523.105 732.925 523.105 732.922 523.103 732.92C523.1 732.912 523.098 732.902 523.098 732.895C523.095 732.892 523.095 732.89 523.095 732.887C523.093 732.88 523.09 732.872 523.088 732.865C523.088 732.86 523.085 732.857 523.085 732.855C523.083 732.847 523.08 732.84 523.08 732.832C523.077 732.827 523.078 732.825 523.075 732.82C523.075 732.815 523.073 732.807 523.07 732.8C523.07 732.797 523.067 732.792 523.067 732.787C523.065 732.782 523.063 732.775 523.063 732.77C523.06 732.762 523.058 732.755 523.058 732.75C523.055 732.745 523.055 732.742 523.055 732.74C523.052 732.732 523.05 732.722 523.048 732.715C523.048 732.712 523.045 732.71 523.045 732.707C523.043 732.697 523.04 732.69 523.038 732.68C523.038 732.68 523.038 732.677 523.038 732.675C523.035 732.665 523.032 732.657 523.03 732.647C523.027 732.645 523.028 732.645 523.028 732.642C522.925 732.26 522.83 731.882 522.742 731.51C523.69 731.277 524.638 731.18 525.563 731.18C531.023 731.18 535.725 734.642 535.725 734.642C539.945 732.91 542.945 732.395 545.02 732.395C548.04 732.395 549.098 733.485 549.098 733.485L549.095 733.49C548.93 733.937 548.76 734.375 548.585 734.802C546.918 733.987 545.248 733.68 543.678 733.68C538.838 733.68 534.938 736.6 534.938 736.6" fill="#000072"/>
<path d="M528.26 701.443C528.26 701.443 528.482 695.98 538.412 696.92C538.412 696.92 546.792 697.838 546.255 702.43C546.255 702.43 544.63 707.843 537.07 708.01C537.07 708.01 529.345 707.28 528.26 701.443" fill="#000072"/>
<path d="M489.21 698.425C489.21 698.425 502.66 685.612 517.813 697.507C517.813 697.507 518.375 689.08 507.098 686.552C503.89 685.832 500.412 686.207 497.38 687.642C493.702 689.382 489.335 692.657 489.21 698.425" fill="#000072"/>
<path d="M582.383 707.068C582.383 707.068 572.802 691.152 555.042 698.615C555.042 698.615 556.73 690.338 568.275 690.885C571.557 691.04 574.813 692.322 577.358 694.507C580.443 697.157 583.79 701.473 582.383 707.068" fill="#000072"/>
<path d="M536.345 712.332L536.56 705.65Z" fill="#707070"/>
<path d="M536.347 714.7C536.322 714.7 536.297 714.7 536.27 714.7C534.962 714.657 533.937 713.565 533.98 712.257L534.192 705.575C534.235 704.27 535.32 703.227 536.635 703.285C537.94 703.327 538.967 704.42 538.925 705.727L538.712 712.407C538.67 713.69 537.62 714.7 536.347 714.7" fill="#000072"/>
<path d="M532.762 702.227C531.725 702.227 530.922 701.88 530.792 701.297C530.615 700.507 531.732 699.585 533.29 699.235C533.695 699.142 534.092 699.1 534.457 699.1C535.497 699.1 536.297 699.445 536.43 700.03C536.607 700.817 535.49 701.742 533.932 702.092C533.525 702.185 533.13 702.227 532.762 702.227" fill="#6666AA"/>
<path d="M348.26 614.335L337.595 641.075L241.459 882.242C240.574 884.455 239.052 886.307 237.157 887.58C235.262 888.867 232.994 889.6 230.601 889.6C222.799 889.6 217.183 882.117 219.369 874.632L287.452 641.075L295.24 614.335H348.26" fill="#F28B0B"/>
<path d="M769.4 889.6C767.005 889.6 764.737 888.867 762.842 887.58C760.947 886.307 759.425 884.455 758.54 882.242L662.405 641.075L651.74 614.335H704.76L712.547 641.075L780.63 874.632C782.817 882.117 777.2 889.6 769.4 889.6Z" fill="#F28B0B"/>
<path d="M760.97 614.335H239.029C233.427 614.335 228.886 609.795 228.886 604.192V537.797C228.886 532.195 233.427 527.652 239.029 527.652H760.97C766.572 527.652 771.115 532.195 771.115 537.797V604.192C771.115 609.795 766.572 614.335 760.97 614.335" fill="#F28B0B"/>
<path d="M337.595 641.075H287.452L294.03 618.487H346.602L337.595 641.075Z" fill="#A9612A"/>
<path d="M712.548 641.075H662.405L653.395 618.487H705.97L712.548 641.075" fill="#A9612A"/>
<path d="M760.97 610.188H239.029C235.724 610.188 233.035 607.498 233.035 604.193V597.275C234.713 598.505 236.784 599.23 239.025 599.23H760.975C763.215 599.23 765.287 598.505 766.965 597.275V604.193C766.965 607.498 764.275 610.188 760.97 610.188Z" fill="#A9612A"/>
<path d="M233.04 537.56C233.165 534.365 235.804 531.802 239.029 531.802H650.302H730.705H760.97C764.195 531.802 766.835 534.365 766.96 537.56C765.282 536.33 763.215 535.602 760.975 535.602H239.025C236.786 535.602 234.717 536.33 233.04 537.56Z" fill="#FAD19D"/>
<path d="M524.208 555.895H746.908V545.865H524.208V555.895Z" fill="#FAD19D"/>
<path d="M253.092 555.895H475.792V545.865H253.092V555.895Z" fill="#FAD19D"/>
<path d="M390.628 500.91H430.28V457.34H390.628V500.91Z" fill="#8F99D0"/>
<path d="M477.77 527.652H343.135C343.135 512.885 355.107 500.91 369.877 500.91H451.027C465.797 500.91 477.77 512.885 477.77 527.652Z" fill="#8F99D0"/>
<path d="M349.14 510.765C349.717 510.06 350.327 509.382 350.97 508.74C355.552 504.157 361.782 501.237 368.697 500.937C360.812 501.277 353.812 505.035 349.14 510.765" fill="#FFFBD8"/>
<path d="M455.46 501.277C455.45 501.275 455.445 501.275 455.435 501.272C455.442 501.275 455.45 501.275 455.46 501.277ZM455.422 501.27C454.01 501.037 452.557 500.912 451.077 500.91C452.557 500.912 454.007 501.037 455.422 501.27ZM451.045 500.91C451.04 500.91 451.035 500.91 451.027 500.91H451.032C451.037 500.91 451.042 500.91 451.045 500.91Z" fill="#E5E3D4"/>
<path d="M352.07 523.502H343.46C344.205 518.725 346.215 514.357 349.14 510.765C353.812 505.035 360.812 501.277 368.697 500.937C369.09 500.92 369.482 500.91 369.88 500.91H386.477C386.477 503.202 388.335 505.06 390.627 505.06H430.28C432.57 505.06 434.427 503.202 434.427 500.91H451.027C451.035 500.91 451.04 500.91 451.045 500.91C451.057 500.91 451.067 500.91 451.077 500.91C452.557 500.912 454.01 501.037 455.422 501.27C455.427 501.27 455.43 501.272 455.435 501.272C455.445 501.275 455.45 501.275 455.46 501.277C464.375 502.765 471.797 508.675 475.405 516.665C470.607 512.045 464.077 509.21 456.885 509.21H375.745C368.357 509.21 361.677 512.197 356.835 517.04C354.937 518.937 353.327 521.115 352.07 523.502" fill="#D2D6EC"/>
<path d="M593.727 210.43V431.057C593.727 445.567 581.97 457.34 567.447 457.34H253.452C238.942 457.34 227.17 445.567 227.17 431.057V210.43C227.17 195.92 238.942 184.15 253.452 184.15H567.447C581.97 184.15 593.727 195.92 593.727 210.43" fill="#8F99D0"/>
<path d="M228.886 412.975V434.805L230.723 440.995L237.732 451.48L247.746 457.34H569.962L585.367 448.94L591.785 438.67L593.732 431.057V412.975H228.886Z" fill="white"/>
<path d="M593.727 210.43V411.693H227.17V210.43C227.17 195.92 238.942 184.15 253.452 184.15H567.447C581.97 184.15 593.727 195.92 593.727 210.43Z" fill="#8F99D0"/>
<path d="M589.002 205.392C584.252 198.597 576.372 194.15 567.447 194.15H253.452C244.537 194.15 236.656 198.592 231.904 205.385C234.193 195.605 242.987 188.3 253.455 188.3H567.45C577.92 188.3 586.715 195.607 589.002 205.392Z" fill="#D2D6EC"/>
<path d="M577.133 223.225V383.682C577.133 388.84 572.955 393.017 567.795 393.017H253.11C247.95 393.017 243.773 388.84 243.773 383.682V223.225C243.773 218.067 247.95 213.89 253.11 213.89H567.795C572.955 213.89 577.133 218.067 577.133 223.225Z" fill="#000072"/>
<path d="M567.792 400.96H253.107C247.947 400.96 243.77 396.782 243.77 391.625V382.397C243.77 382.48 243.77 382.565 243.773 382.647V383.682C243.773 388.84 247.95 393.017 253.11 393.017H293.307H351.457H380.297H418.13H567.795C572.87 393.017 576.992 388.98 577.13 383.94V391.625C577.13 396.782 572.952 400.96 567.792 400.96" fill="#D2D6EC"/>
<path d="M567.795 393.017H418.13L418.942 391.735H567.792C572.952 391.735 577.13 387.557 577.13 382.397V383.94C576.992 388.98 572.87 393.017 567.795 393.017M380.298 393.017H351.458L352.27 391.735H381.11L380.298 393.017ZM293.308 393.017H253.11C247.95 393.017 243.773 388.84 243.773 383.682V382.647C243.904 387.69 248.03 391.735 253.108 391.735H294.118L293.308 393.017" fill="#9999C7"/>
<path d="M352.27 391.735H294.117L406.58 213.89H464.745L352.27 391.735Z" fill="#262687"/>
<path d="M351.457 393.017H293.307L294.118 391.735H352.27L351.457 393.017Z" fill="#A8A8CF"/>
<path d="M418.942 391.735H381.11L493.572 213.89H531.417L418.942 391.735Z" fill="#262687"/>
<path d="M418.13 393.017H380.297L381.11 391.735H418.942L418.13 393.017Z" fill="#A8A8CF"/>
<path d="M253.455 188.3C241.252 188.3 231.324 198.228 231.324 210.433V431.058C231.324 443.26 241.252 453.19 253.455 453.19H567.45C579.652 453.19 589.583 443.26 589.583 431.058V210.433C589.583 198.228 579.652 188.3 567.45 188.3H253.455ZM567.45 461.488H253.455C236.675 461.488 223.024 447.838 223.024 431.058V210.433C223.024 193.653 236.675 180 253.455 180H567.45C584.23 180 597.883 193.653 597.883 210.433V431.058C597.883 447.838 584.23 461.488 567.45 461.488Z" fill="#000072"/>
<path d="M253.11 217.348C249.868 217.348 247.231 219.985 247.231 223.228V383.683C247.231 386.923 249.868 389.56 253.11 389.56H567.795C571.037 389.56 573.675 386.923 573.675 383.683V223.228C573.675 219.985 571.037 217.348 567.795 217.348H253.11ZM567.795 396.478H253.11C246.055 396.478 240.314 390.738 240.314 383.683V223.228C240.314 216.17 246.055 210.43 253.11 210.43H567.795C574.85 210.43 580.59 216.17 580.59 223.228V383.683C580.59 390.738 574.85 396.478 567.795 396.478Z" fill="#000072"/>
<path d="M593.733 417.718H227.174C225.264 417.718 223.716 416.17 223.716 414.26C223.716 412.35 225.264 410.803 227.174 410.803H593.733C595.643 410.803 597.19 412.35 597.19 414.26C597.19 416.17 595.643 417.718 593.733 417.718Z" fill="#000072"/>
<path d="M421.395 434.648C421.395 440.69 416.495 445.588 410.452 445.588C404.41 445.588 399.51 440.69 399.51 434.648C399.51 428.603 404.41 423.705 410.452 423.705C416.495 423.705 421.395 428.603 421.395 434.648Z" fill="#000072"/>
<path d="M394.775 496.76H426.13V461.487H394.775V496.76ZM430.28 505.06H390.627C388.335 505.06 386.477 503.202 386.477 500.91V457.34C386.477 455.047 388.335 453.19 390.627 453.19H430.28C432.57 453.19 434.427 455.047 434.427 457.34V500.91C434.427 503.202 432.57 505.06 430.28 505.06Z" fill="#000072"/>
<path d="M347.667 523.502H473.237C471.285 513.02 462.067 505.06 451.027 505.06H369.877C358.837 505.06 349.62 513.02 347.667 523.502V523.502ZM477.77 531.802H343.135C340.842 531.802 338.985 529.945 338.985 527.652C338.985 510.62 352.842 496.76 369.877 496.76H451.027C468.062 496.76 481.92 510.62 481.92 527.652C481.92 529.945 480.062 531.802 477.77 531.802" fill="#000072"/>
<path d="M394.775 476.012H426.13V461.487H394.775V476.012Z" fill="#646BB4"/>
<path d="M430.28 476.012H426.13V461.487H394.775V476.012H390.628V457.34H430.28V476.012Z" fill="#000072"/>
<path d="M239.029 531.803C235.724 531.803 233.035 534.493 233.035 537.798V604.193C233.035 607.498 235.724 610.188 239.029 610.188H760.97C764.275 610.188 766.965 607.498 766.965 604.193V537.798C766.965 534.493 764.275 531.803 760.97 531.803H239.029ZM760.97 618.488H239.029C231.148 618.488 224.736 612.075 224.736 604.193V537.798C224.736 529.915 231.148 523.503 239.029 523.503H760.97C768.853 523.503 775.265 529.915 775.265 537.798V604.193C775.265 612.075 768.853 618.488 760.97 618.488Z" fill="#000072"/>
<path d="M257.243 593.587H471.642V550.015H257.243V593.587ZM475.792 601.887H253.093C250.8 601.887 248.943 600.03 248.943 597.737V545.865C248.943 543.575 250.8 541.717 253.093 541.717H475.792C478.085 541.717 479.942 543.575 479.942 545.865V597.737C479.942 600.03 478.085 601.887 475.792 601.887" fill="#000072"/>
<path d="M367.44 570.995C367.44 576.087 363.312 580.217 358.217 580.217C353.125 580.217 348.997 576.087 348.997 570.995C348.997 565.902 353.125 561.772 358.217 561.772C363.312 561.772 367.44 565.902 367.44 570.995Z" fill="#000072"/>
<path d="M528.355 593.587H742.757V550.015H528.355V593.587ZM746.907 601.887H524.207C521.915 601.887 520.057 600.03 520.057 597.737V545.865C520.057 543.575 521.915 541.717 524.207 541.717H746.907C749.2 541.717 751.057 543.575 751.057 545.865V597.737C751.057 600.03 749.2 601.887 746.907 601.887" fill="#000072"/>
<path d="M638.555 570.995C638.555 576.087 634.425 580.217 629.332 580.217C624.24 580.217 620.11 576.087 620.11 570.995C620.11 565.902 624.24 561.772 629.332 561.772C634.425 561.772 638.555 565.902 638.555 570.995Z" fill="#000072"/>
<path d="M230.595 893.75C225.561 893.75 220.942 891.44 217.921 887.415C214.9 883.387 213.976 878.307 215.385 873.475L291.25 613.175C291.892 610.975 294.197 609.712 296.395 610.352C298.595 610.992 299.86 613.297 299.217 615.497L223.352 875.795C222.682 878.097 223.122 880.517 224.561 882.432C225.999 884.35 228.198 885.45 230.595 885.45C233.701 885.45 236.452 883.585 237.602 880.7L344.402 612.8C345.252 610.672 347.665 609.632 349.795 610.482C351.925 611.33 352.962 613.745 352.112 615.872L245.312 883.775C242.895 889.835 237.119 893.75 230.595 893.75" fill="#000072"/>
<path d="M769.405 893.75C762.88 893.75 757.105 889.835 754.687 883.775L647.887 615.872C647.037 613.745 648.075 611.33 650.205 610.482C652.335 609.632 654.747 610.67 655.597 612.8L762.397 880.7C763.547 883.585 766.3 885.45 769.405 885.45C771.802 885.45 774.002 884.35 775.44 882.432C776.877 880.517 777.317 878.097 776.647 875.797L700.782 615.497C700.14 613.297 701.405 610.992 703.605 610.352C705.802 609.712 708.107 610.975 708.75 613.175L784.615 873.475C786.025 878.305 785.1 883.387 782.08 887.412C779.06 891.44 774.44 893.75 769.405 893.75" fill="#000072"/>
<path d="M743.615 436.825L730.71 527.647H650.302L648.892 517.73L637.397 436.825H743.615Z" fill="#FF0303"/>
<path d="M652.925 516.627L642.172 440.97H713.022L648.892 445.872L658.707 514.957C656.797 515.53 654.87 516.085 652.925 516.627Z" fill="#FF9A9A"/>
<path d="M653.902 523.502H727.102L738.835 440.97H642.172L653.902 523.502ZM730.705 531.802H650.302C648.235 531.802 646.482 530.283 646.192 528.238L633.282 437.405C633.115 436.215 633.47 435.008 634.257 434.1C635.045 433.193 636.19 432.67 637.39 432.67H743.615C744.817 432.67 745.96 433.193 746.75 434.1C747.537 435.008 747.892 436.215 747.725 437.405L734.812 528.238C734.522 530.283 732.772 531.802 730.705 531.802Z" fill="#000072"/>
<path d="M679.645 417.568C698.13 364.43 686.065 326.24 628.782 310.183C614.635 364.888 635.98 398.013 679.645 417.568" fill="#11E000"/>
<path d="M673.815 410.147C642.122 393.65 627.227 369.495 628.727 336.842C633.08 359.91 647.122 377.09 668.567 389.765C670.542 396.502 672.275 403.305 673.815 410.147ZM679.512 403.762C678.362 400.42 677.162 397.09 675.91 393.787C677.49 394.59 679.11 395.372 680.757 396.135C680.247 398.6 679.832 401.145 679.512 403.762" fill="#0C9C22"/>
<path d="M679.76 353.978C671.132 339.023 655.19 327.645 630.72 320.445C631.037 318.783 631.392 317.098 631.78 315.398C654.21 322.41 669.48 333.44 677.197 348.22C678.165 350.068 679.017 351.988 679.76 353.978" fill="#A0F399"/>
<path d="M631.78 315.398C621.475 360.388 636.357 392.003 677.182 411.843C685.562 385.635 685.572 364.25 677.197 348.22C669.48 333.44 654.21 322.41 631.78 315.398M679.645 421.718C679.065 421.718 678.487 421.598 677.947 421.355C654.405 410.81 637.882 396.545 628.842 378.953C619.072 359.943 617.702 336.455 624.765 309.145C625.045 308.065 625.745 307.143 626.712 306.588C627.68 306.03 628.827 305.888 629.902 306.188C656.88 313.75 675.27 326.6 684.555 344.378C694.49 363.398 694.155 388.483 683.562 418.933C683.182 420.03 682.355 420.918 681.287 421.378C680.762 421.605 680.205 421.718 679.645 421.718" fill="#000072"/>
<path d="M675.622 418.59C672.825 404.813 669.352 391.158 664.777 377.833C660.2 364.52 654.505 351.52 647.145 339.365C655.655 350.743 662.685 363.28 668.632 376.292C674.577 389.32 679.46 402.84 683.667 416.548C684.34 418.74 683.107 421.065 680.912 421.738C678.72 422.41 676.395 421.178 675.722 418.985C675.682 418.855 675.647 418.718 675.622 418.59" fill="#000072"/>
<path d="M682.807 363.875L687.65 275.905C687.69 275.14 688.345 274.555 689.107 274.598C689.817 274.635 690.375 275.212 690.415 275.905L695.255 363.875C695.445 367.313 692.812 370.255 689.375 370.442C685.937 370.632 682.997 367.998 682.807 364.56C682.795 364.333 682.795 364.1 682.807 363.875" fill="#000072"/>
<path d="M679.81 436.82C673.443 380.92 693.598 346.313 753.008 343.223C754.8 399.698 726.703 427.328 679.81 436.82Z" fill="#11E000"/>
<path d="M679.38 432.67H679.377C679.062 429.235 678.855 425.885 678.752 422.62C678.855 425.883 679.065 429.238 679.38 432.67Z" fill="#B2AB91"/>
<path d="M679.808 436.825C679.648 435.427 679.505 434.042 679.378 432.67H679.38C679.505 434.042 679.648 435.427 679.808 436.825" fill="#000072"/>
<path d="M695.652 432.67H695.65C696.835 432.28 698.002 431.875 699.155 431.455C698.005 431.875 696.835 432.28 695.652 432.67" fill="#B2AB91"/>
<path d="M735.37 406.782C746.385 393.165 752.602 374.922 753.06 351.115C753.07 350.635 753.077 350.15 753.082 349.662C752.855 374.182 746.61 392.887 735.37 406.782Z" fill="#858089"/>
<path d="M679.807 436.825C680.712 436.637 681.62 436.447 682.515 436.247C687.082 435.24 691.467 434.05 695.65 432.67H695.652C690.645 434.322 685.36 435.7 679.807 436.825" fill="#000072"/>
<path d="M682.515 436.248C682.605 436.23 682.692 436.21 682.78 436.19C682.262 427.828 682.41 420 683.272 412.75C718.22 404.848 742.142 386.29 750.14 352.368C751.092 352.275 752.06 352.19 753.035 352.115C753.045 351.783 753.052 351.45 753.06 351.115C752.602 374.923 746.385 393.165 735.37 406.783C726.342 417.943 714.092 425.998 699.155 431.455C698.002 431.875 696.835 432.28 695.65 432.67C691.467 434.05 687.082 435.24 682.515 436.248" fill="#0C9C22"/>
<path d="M753.027 343.9C753.027 343.88 753.027 343.863 753.027 343.845C753.027 343.865 753.027 343.878 753.027 343.9ZM753.025 343.76C753.022 343.73 753.022 343.7 753.022 343.67C753.022 343.7 753.022 343.73 753.025 343.76ZM753.02 343.625C753.02 343.588 753.017 343.55 753.017 343.513C753.017 343.55 753.02 343.588 753.02 343.625ZM753.015 343.488C753.015 343.448 753.012 343.408 753.012 343.365C753.012 343.408 753.015 343.448 753.015 343.488ZM752.232 343.265C752.487 343.248 752.745 343.233 753.002 343.223C752.777 343.233 752.545 343.248 752.317 343.26H752.312C752.31 343.26 752.307 343.26 752.305 343.26C752.28 343.263 752.257 343.263 752.232 343.265" fill="#B2AB91"/>
<path d="M752.305 343.26C752.307 343.26 752.31 343.26 752.312 343.26C752.31 343.26 752.307 343.26 752.305 343.26ZM752.317 343.26C752.545 343.248 752.777 343.233 753.007 343.223C753.005 343.223 753.005 343.223 753.007 343.223C752.775 343.235 752.547 343.245 752.317 343.26Z" fill="#0C9C22"/>
<path d="M678.752 422.62C678.745 422.347 678.737 422.08 678.73 421.807C678.737 422.077 678.745 422.35 678.752 422.62Z" fill="#FFFBD8"/>
<path d="M691.575 370.448C691.575 370.448 691.575 370.448 691.575 370.445C691.782 370.158 691.995 369.868 692.207 369.583C692.21 369.583 692.21 369.583 692.212 369.583C691.997 369.868 691.785 370.158 691.575 370.448Z" fill="#E5E3D4"/>
<path d="M725.775 347.56V347.558C733.532 345.275 742.332 343.828 752.232 343.265C752.23 343.265 752.23 343.265 752.23 343.265C742.335 343.828 733.53 345.278 725.775 347.56Z" fill="#FFFBD8"/>
<path d="M694.932 366.233C694.932 366.233 694.932 366.23 694.935 366.23C702.397 357.745 712.582 351.443 725.775 347.558V347.56C712.58 351.445 702.397 357.748 694.932 366.233" fill="#E5E3D4"/>
<path d="M680.757 396.135C681.255 393.73 681.842 391.397 682.525 389.14C682.525 389.142 682.525 389.143 682.525 389.145C681.842 391.4 681.255 393.733 680.757 396.135Z" fill="#A0F399"/>
<path d="M679.515 403.762C679.515 403.762 679.515 403.762 679.512 403.762C679.832 401.145 680.247 398.6 680.757 396.135C680.247 398.602 679.835 401.145 679.515 403.762Z" fill="#9ED7A7"/>
<path d="M682.525 389.145C682.525 389.143 682.525 389.142 682.525 389.14C684.63 382.175 687.625 375.93 691.575 370.445C691.575 370.448 691.575 370.448 691.575 370.448C687.625 375.93 684.63 382.18 682.525 389.145Z" fill="#9999C7"/>
<path d="M678.73 421.807C678.567 415.455 678.822 409.427 679.512 403.762C679.515 403.762 679.515 403.762 679.515 403.762C678.985 408.092 678.712 412.627 678.687 417.357C678.677 418.822 678.692 420.305 678.73 421.807Z" fill="#9999C7"/>
<path d="M692.208 369.583C693.073 368.43 693.983 367.312 694.935 366.23C694.933 366.23 694.933 366.233 694.933 366.233C693.983 367.315 693.075 368.43 692.212 369.583C692.21 369.583 692.21 369.583 692.208 369.583Z" fill="#9999C7"/>
<path d="M678.687 417.358C678.712 412.628 678.985 408.093 679.515 403.763C679.835 401.145 680.247 398.603 680.757 396.135C681.255 393.733 681.842 391.4 682.525 389.145C684.63 382.18 687.625 375.93 691.575 370.448C691.785 370.158 691.997 369.868 692.212 369.583C693.075 368.43 693.982 367.315 694.932 366.233C702.397 357.748 712.58 351.445 725.775 347.56C733.53 345.278 742.335 343.828 752.23 343.265C752.102 343.273 751.975 343.283 751.845 343.29C751.397 346.433 750.827 349.458 750.14 352.368C707.9 356.47 687.397 378.028 683.272 412.75C682.127 413.008 680.972 413.255 679.807 413.49C679.557 411.263 679.337 409.078 679.185 406.92C678.872 410.28 678.71 413.763 678.687 417.358" fill="#A0F399"/>
<path d="M753.045 344.557C753.04 344.337 753.035 344.117 753.027 343.9C753.035 344.12 753.04 344.337 753.045 344.557Z" fill="#FFFBD8"/>
<path d="M753.083 349.662C753.098 347.99 753.085 346.285 753.045 344.557C753.085 346.285 753.1 347.985 753.083 349.662Z" fill="#E5E3D4"/>
<path d="M753.027 343.845C753.025 343.817 753.025 343.787 753.025 343.76C753.025 343.787 753.025 343.817 753.027 343.845ZM753.022 343.67C753.02 343.655 753.02 343.637 753.02 343.625C753.02 343.64 753.02 343.655 753.022 343.67ZM753.017 343.512C753.017 343.505 753.015 343.495 753.015 343.487C753.017 343.495 753.017 343.505 753.017 343.512ZM753.012 343.365C753.01 343.317 753.01 343.27 753.008 343.222C753.01 343.27 753.01 343.317 753.012 343.365Z" fill="#FFFBD8"/>
<path d="M679.382 432.67H679.38C679.065 429.238 678.855 425.883 678.752 422.62C678.745 422.35 678.737 422.078 678.73 421.808C678.732 421.808 678.732 421.808 678.732 421.808C678.822 425.328 679.04 428.95 679.382 432.67Z" fill="#E0DDD3"/>
<path d="M679.807 436.825C679.647 435.427 679.505 434.042 679.38 432.67H679.382C679.507 434.04 679.652 435.425 679.81 436.82C680.72 436.637 681.62 436.447 682.515 436.247C681.62 436.447 680.712 436.637 679.807 436.825" fill="#9999C7"/>
<path d="M678.732 421.807C678.732 421.807 678.732 421.807 678.73 421.807C678.692 420.305 678.677 418.822 678.687 417.357C678.677 418.825 678.695 420.305 678.732 421.807Z" fill="#9999C7"/>
<path d="M679.81 436.82C679.652 435.425 679.507 434.04 679.382 432.67C679.04 428.95 678.822 425.328 678.732 421.808C678.695 420.305 678.677 418.825 678.687 417.358C678.71 413.763 678.872 410.28 679.185 406.92C679.337 409.078 679.557 411.263 679.807 413.49C680.972 413.255 682.127 413.008 683.272 412.75C682.41 420 682.262 427.828 682.78 436.19C682.692 436.21 682.605 436.23 682.515 436.248C681.62 436.448 680.72 436.638 679.81 436.82" fill="#9ED7A7"/>
<path d="M753.042 344.557C753.032 344.112 753.02 343.67 753.008 343.222C753.01 343.27 753.01 343.317 753.012 343.365C753.012 343.407 753.015 343.447 753.015 343.487C753.015 343.495 753.017 343.505 753.017 343.512C753.017 343.55 753.02 343.587 753.02 343.625C753.02 343.637 753.02 343.655 753.022 343.67C753.022 343.7 753.022 343.73 753.025 343.76C753.025 343.787 753.025 343.817 753.027 343.845C753.027 343.862 753.027 343.88 753.027 343.9C753.035 344.117 753.04 344.337 753.045 344.557H753.042" fill="#E0DDD3"/>
<path d="M753.06 351.115C753.103 348.977 753.095 346.788 753.042 344.558H753.045C753.085 346.285 753.098 347.99 753.083 349.663C753.078 350.15 753.07 350.635 753.06 351.115" fill="#CECCD0"/>
<path d="M752.23 343.265C752.23 343.265 752.23 343.265 752.232 343.265C752.257 343.263 752.28 343.263 752.305 343.26C752.28 343.263 752.255 343.263 752.23 343.265ZM752.312 343.26H752.317C752.315 343.26 752.317 343.26 752.312 343.26Z" fill="#E0DDD3"/>
<path d="M750.14 352.367C750.827 349.457 751.397 346.432 751.845 343.29C751.975 343.282 752.102 343.272 752.23 343.265C752.255 343.262 752.28 343.262 752.305 343.26C752.307 343.26 752.31 343.26 752.312 343.26C752.317 343.26 752.315 343.26 752.317 343.26C752.547 343.245 752.775 343.235 753.007 343.222C753.02 343.67 753.032 344.112 753.042 344.557C753.095 346.787 753.102 348.977 753.06 351.115C753.052 351.45 753.045 351.782 753.035 352.115C752.06 352.19 751.092 352.275 750.14 352.367" fill="#9ED7A7"/>
<path d="M748.935 347.652C725.515 349.567 708.197 356.977 697.42 369.702C685.732 383.502 681.047 404.367 683.47 431.772C727.652 421.382 749.112 393.805 748.935 347.652ZM679.81 440.97C678.94 440.97 678.085 440.697 677.37 440.177C676.427 439.492 675.817 438.445 675.687 437.29C672.037 405.257 677.22 380.712 691.087 364.337C704.05 349.032 724.81 340.532 752.79 339.077C753.912 339.02 754.995 339.412 755.815 340.167C756.635 340.922 757.117 341.975 757.155 343.09C758.05 371.285 751.555 393.9 737.85 410.3C725.167 425.48 705.917 435.77 680.632 440.887C680.36 440.942 680.085 440.97 679.81 440.97" fill="#000072"/>
<path d="M676.11 434.942C683.222 422.492 690.955 410.375 699.615 398.97C708.272 387.58 717.885 376.893 728.685 367.66C718.835 377.903 710.427 389.335 703.037 401.32C695.647 413.315 689.262 425.875 683.51 438.7C682.572 440.795 680.115 441.733 678.02 440.795C675.925 439.858 674.987 437.4 675.925 435.305C675.98 435.182 676.045 435.055 676.11 434.942" fill="#000072"/>
<path d="M727.102 523.502H659.92L658.707 514.957C694.402 504.255 723.767 487.74 734.6 440.97H738.835L727.102 523.502" fill="#B20225"/>
<path d="M659.92 523.502H653.902L652.925 516.627C654.87 516.085 656.798 515.53 658.708 514.957L659.92 523.502Z" fill="#B26B8E"/>
<path d="M730.71 527.647H650.302L648.892 517.73C650.245 517.367 651.587 517.002 652.925 516.627L653.902 523.502H659.92H727.102L738.835 440.97H734.6C734.915 439.615 735.212 438.232 735.495 436.825H743.615L730.71 527.647" fill="#000072"/>
<path d="M132.059 888.102C147.39 885.777 162.721 885.22 178.052 884.935C193.382 884.612 208.713 884.782 224.044 884.957L247.04 885.1L270.037 885.107H316.03H500H683.97H775.955L798.952 885.1L810.45 884.992L821.947 884.805C829.612 884.707 837.28 884.857 844.945 885.235C852.61 885.722 860.275 886.405 867.94 888.102C868.767 888.285 869.29 889.105 869.107 889.932C868.975 890.532 868.505 890.972 867.94 891.097C860.275 892.795 852.61 893.477 844.945 893.965C837.28 894.342 829.612 894.492 821.947 894.395L810.45 894.21L798.952 894.102L775.955 894.092H683.97H500H316.03H270.037L247.04 894.102L224.044 894.242C208.713 894.417 193.382 894.587 178.052 894.267C162.721 893.98 147.39 893.425 132.059 891.097C131.232 890.972 130.663 890.2 130.788 889.372C130.89 888.7 131.421 888.2 132.059 888.102" fill="#000072"/>
</svg>
