<svg width="667" height="765" viewBox="0 0 667 765" fill="none" xmlns="http://www.w3.org/2000/svg">
<path d="M0 1.43051e-05H667V765H0V1.43051e-05Z" fill="#453195"/>
<path d="M270.012 545.575C245.988 516.917 220.314 489.701 196.106 461.203C171.398 432.116 148.388 401.62 125.559 371.055C123.675 368.532 120.013 370.335 119.629 373C116.865 392.2 110.709 410.636 104.34 428.891C98.0871 446.816 91.5033 464.599 84.6101 482.285C70.3857 518.781 55.5414 555.116 45.4033 593.021C44.6898 595.689 46.5887 597.651 49.2231 597.481C47.7163 597.577 50.6642 599.336 51.5513 599.922C53.5319 601.229 55.6231 602.363 57.719 603.476C61.7658 605.631 65.9981 607.377 70.3018 608.938C80.2939 612.567 90.9101 614.539 101.432 615.821C122.305 618.374 143.536 617.131 164.291 614.172C207.96 607.944 248.656 590.072 271.722 550.724C272.787 548.904 272.103 546.177 270.012 545.575" fill="#ED4146"/>
<path d="M283.683 486.274C282.668 483.825 279.669 483.844 278.385 485.756C253.047 523.462 216.892 550.509 175.353 562.718C133.233 575.1 87.7131 570.885 46.4131 552.937C44.4265 552.071 42.9631 553.461 42.576 555.188C32.4473 557.152 24.6355 563.054 20.1401 573.555C15.4432 584.524 16.0683 598.036 16.9943 609.993C19.2317 638.929 31.4615 667.093 51.6948 686.677C94.4005 728.006 154.996 716.917 203.028 699.612C221.965 692.792 240.317 683.474 256.232 670.424C271.317 658.057 281.571 641.466 288.079 622.038C301.997 580.493 300.844 527.76 283.683 486.274" fill="#FFFFFE"/>
<path d="M287.784 507.948C286.77 505.5 283.772 505.519 282.488 507.431C257.149 545.138 220.994 572.181 179.456 584.393C137.334 596.776 91.8154 592.56 50.5149 574.609C48.529 573.748 47.0649 575.133 46.6785 576.861C36.5493 578.824 28.7389 584.729 24.2425 595.232C19.5462 606.2 20.1717 619.714 21.0967 631.671C23.3337 660.601 35.5649 688.772 55.7967 708.349C98.5025 749.681 159.098 738.592 207.13 721.289C226.068 714.464 244.42 705.149 260.333 692.101C275.418 679.731 285.673 663.143 292.18 643.713C306.1 602.168 304.945 549.434 287.784 507.948" fill="#7BC52F"/>
<path d="M104.498 528.978C102.873 523.032 97.7729 516.44 95.8776 512.241C92.7724 519.276 90.7401 527.714 91.5281 535.433C92.0151 540.201 96.5817 541.557 100.381 539.545C105.063 537.065 105.649 533.184 104.498 528.978" fill="#CC2E32"/>
<path d="M139.43 422.314C137.805 416.369 132.704 409.775 130.809 405.577C127.703 412.611 125.671 421.05 126.46 428.77C126.947 433.538 131.513 434.891 135.313 432.882C139.994 430.401 140.581 426.521 139.43 422.314" fill="#CC2E32"/>
<path d="M161.629 447.227C160.703 443.841 157.8 440.087 156.72 437.696C154.952 441.703 153.795 446.507 154.244 450.903C154.52 453.619 157.121 454.389 159.284 453.244C161.951 451.832 162.284 449.621 161.629 447.227" fill="#CC2E32"/>
<path d="M82.1387 550.585C81.2138 547.199 78.3095 543.445 77.2299 541.054C75.4617 545.061 74.3043 549.865 74.7533 554.261C75.0305 556.977 77.6305 557.747 79.7939 556.604C82.4606 555.19 82.7939 552.981 82.1387 550.585" fill="#CC2E32"/>
<path d="M224.03 517.378C222.405 511.432 217.305 504.838 215.41 500.64C212.305 507.675 210.272 516.112 211.06 523.834C211.548 528.602 216.113 529.955 219.913 527.946C224.596 525.466 225.181 521.583 224.03 517.378Z" fill="#CC2E32"/>
<path d="M117.288 489.456L126.022 476.22C122.148 469.439 117.333 465.501 112.912 466.339C105.357 467.768 101.818 482.589 105.008 499.441C108.197 516.292 116.908 528.795 124.463 527.364C132.019 525.935 135.559 511.113 132.37 494.261C132.119 492.94 131.831 491.647 131.515 490.383L117.288 489.456" fill="#1C2A37"/>
<path d="M177.599 478.04L186.332 464.804C182.459 458.023 177.644 454.085 173.223 454.923C165.667 456.352 162.128 471.173 165.317 488.025C168.508 504.877 177.219 517.379 184.775 515.948C192.331 514.519 195.869 499.697 192.68 482.845C192.429 481.524 192.141 480.231 191.827 478.967L177.599 478.04" fill="#1C2A37"/>
<path d="M160.945 523.257C158.759 526.159 151.748 528.405 148.616 526.509C137.447 519.749 125.949 536.497 137.176 543.292C150.405 551.3 168.571 546.85 177.727 534.696C185.625 524.216 168.807 512.825 160.945 523.257Z" fill="#1C2A37"/>
<path d="M182.204 547.374C184.298 558.434 175.974 569.298 163.614 571.638C151.254 573.979 139.537 566.908 137.444 555.847C135.349 544.786 143.672 533.92 156.033 531.581C168.393 529.243 180.11 536.312 182.204 547.374Z" fill="#F184A7"/>
<path d="M62.3884 601.124C72.6843 606.002 84.2291 609.289 95.6978 608.945C100.019 608.819 100.607 602.067 96.252 602.196C85.2786 602.528 74.5087 599.416 64.6587 594.748C60.7056 592.872 58.4848 599.274 62.3884 601.124" fill="#FFFFFE"/>
<path d="M110.538 609.707C114.828 608.896 113.569 602.243 109.279 603.053C104.99 603.865 106.249 610.52 110.538 609.707Z" fill="#FFFFFE"/>
<path d="M119.087 397.573C116.101 406.387 114.76 415.637 111.773 424.452C110.369 428.592 116.751 430.856 118.152 426.721C121.14 417.908 122.48 408.657 125.467 399.843C126.87 395.704 120.489 393.44 119.087 397.573Z" fill="#FFFFFE"/>
<path d="M110.541 442.272C114.83 441.46 113.571 434.807 109.282 435.619C104.992 436.431 106.252 443.084 110.541 442.272Z" fill="#FFFFFE"/>
<path d="M625.357 517.251C625.264 513.718 623.169 509.273 617.566 507.39C606.74 503.747 595.389 500.793 582.864 498.353C577.636 497.335 572.489 495.841 567.041 494.258C563.333 493.181 559.544 492.079 555.652 491.117C553.966 483.177 552.004 475.301 550.093 467.634C547.646 457.806 545.114 447.643 543.268 437.691C542.389 432.973 538.573 429.274 533.769 428.487C528.968 427.701 524.17 429.99 521.83 434.185C516.909 443.027 511.266 451.851 505.813 460.385C501.553 467.047 497.18 473.893 493.045 480.889C489.31 480.599 485.632 480.461 482.028 480.326C476.669 480.123 471.604 479.931 466.626 479.281C452.389 477.418 440.496 476.55 429.193 476.547C423.605 476.547 420.316 479.943 419.097 483.119C416.128 490.874 423.161 497.187 429.365 502.755C429.672 503.031 429.92 503.25 430.082 503.403C433.576 506.958 436.821 509.929 440.293 512.743C446.168 517.509 452.065 522.493 457.768 527.314C460.825 529.895 463.937 532.526 467.082 535.152C465.961 536.402 464.838 537.638 463.729 538.864C449.584 554.473 434.96 570.616 429.986 592.541C429.328 595.445 429.922 598.561 431.624 601.083C438.793 611.733 464.673 599.255 473.684 597.142C485.82 594.298 498.301 591.369 509.777 585.541C518.457 594.562 528.805 601.434 538.872 608.118C549.073 614.893 575.441 640.778 579.958 615.607C583.554 595.578 572.713 573.2 564.96 555.443C564.296 553.928 563.628 552.397 562.964 550.858C567.062 549.262 571.136 547.655 575.126 546.076C581.805 543.437 588.712 540.706 595.525 538.146C599.918 536.494 603.714 534.828 607.462 532.911C610.068 531.579 612.889 530.434 616.042 529.186C620.648 527.361 625.516 523.267 625.357 517.251" fill="#F1971D"/>
<path d="M494.369 515.313L504.76 507.608C503.685 501.328 501.093 496.965 497.472 496.373C491.282 495.36 484.432 505.73 482.172 519.536C479.912 533.344 483.097 545.359 489.286 546.369C495.476 547.383 502.328 537.013 504.588 523.206C504.765 522.122 504.905 521.052 505.018 519.994L494.369 515.313" fill="#1C2A37"/>
<path d="M543.783 523.402L554.172 515.696C553.096 509.417 550.505 505.056 546.883 504.462C540.693 503.448 533.843 513.818 531.584 527.625C529.321 541.431 532.505 553.446 538.696 554.457C544.888 555.471 551.739 545.104 554 531.296C554.176 530.213 554.315 529.141 554.428 528.084L543.783 523.402" fill="#1C2A37"/>
<path d="M504.73 547.247C504.186 551.795 507.438 555.672 511.694 556.926C516.849 558.445 521.274 555.552 523.082 550.707C523.844 548.671 520.77 547.249 520.008 549.293C518.756 552.645 516.362 554.572 512.73 553.73C510.108 553.122 507.741 550.557 508.072 547.793C508.328 545.633 504.989 545.077 504.73 547.247Z" fill="#1C2A37"/>
<path d="M516.857 448.974C512.56 455.133 509.663 461.93 506.427 468.666C504.531 472.611 510.694 475.423 512.579 471.498C515.55 465.31 518.128 458.946 522.074 453.29C524.559 449.729 519.353 445.394 516.857 448.974" fill="#FFFFFE"/>
<path d="M524.787 443.772C529.093 444.477 530.187 437.796 525.88 437.091C521.571 436.385 520.477 443.067 524.787 443.772Z" fill="#FFFFFE"/>
<path d="M442.553 599.632C447.171 598.79 451.319 596.709 455.751 595.273C459.904 593.926 457.469 587.612 453.323 588.953C449.484 590.195 445.821 592.172 441.833 592.901C437.571 593.678 438.249 600.419 442.553 599.632" fill="#FFFFFE"/>
<path d="M503.24 548.652C501.804 557.429 494.391 563.527 486.686 562.264C478.979 561 473.898 552.863 475.334 544.086C476.771 535.307 484.183 529.216 491.89 530.478C499.594 531.74 504.678 539.876 503.24 548.652" fill="#F1971D"/>
<path d="M554.768 557.09C553.332 565.867 545.919 571.962 538.212 570.697C530.507 569.438 525.424 561.3 526.861 552.522C528.299 543.745 535.711 537.652 543.417 538.914C551.124 540.176 556.204 548.313 554.768 557.09Z" fill="#F1971D"/>
<path d="M488.541 542.309C488.035 545.4 483.592 547.249 478.613 546.433C473.639 545.62 470.017 542.453 470.523 539.359C471.027 536.266 475.472 534.419 480.449 535.233C485.424 536.047 489.048 539.216 488.541 542.309Z" fill="#ED4146"/>
<path d="M558.207 553.714C557.7 556.808 553.256 558.657 548.281 557.84C543.305 557.025 539.681 553.857 540.188 550.765C540.693 547.672 545.139 545.825 550.113 546.64C555.089 547.454 558.713 550.62 558.207 553.714Z" fill="#ED4146"/>
<path d="M395.096 465.246C381.04 466.161 367.316 469.365 353.44 471.577C363.373 455.306 371.74 437.798 385.049 423.968C386.784 422.162 384.732 419.14 382.481 419.48C366.284 421.925 350.084 424.369 333.885 426.813C332.921 426.802 331.992 427.294 331.569 428.508C324.16 449.673 316.643 470.858 305.641 490.476C304.792 491.99 306.132 494.237 307.82 494.34C321.879 495.196 334.576 490.176 347.819 486.636C340.584 501.012 337.107 517.22 333.315 532.737C332.747 535.061 336.048 536.972 337.792 535.349C359.495 515.128 378.895 492.658 397.661 469.732C399.299 467.734 397.416 465.094 395.096 465.246" fill="#F1971D"/>
<path d="M245.204 457.917L424.972 434.957C428.725 430.86 432.427 426.732 435.444 422.042C446.531 404.802 439.22 379.538 417.801 375.873C414.229 375.264 410.64 375.394 407.171 376.124C411.033 367.245 414.344 355.956 408.22 347.582C403.211 340.734 393.331 340.169 385.676 341.145C377.892 342.138 364.812 346.594 357.028 353.832C355.729 331.797 346.892 307.689 321.191 311.516C303.036 314.218 284.721 329.936 279.5 347.48C277.92 352.788 276.4 359.765 276.148 366.697C269.573 364.849 262.708 363.924 256.033 365.584C246.863 367.866 241.209 376.078 239.909 385.102C238.647 393.877 241.969 403.25 247.779 410.768C235.595 411.904 227.239 422.638 227.499 435.361C227.744 447.404 235.085 455.396 245.204 457.917" fill="#1BA9E8"/>
<path d="M314.501 405.467C316.22 418.917 308.693 430.96 297.689 432.365C286.684 433.771 276.37 424.007 274.653 410.556C272.934 397.104 280.464 385.061 291.468 383.656C302.472 382.251 312.784 392.015 314.501 405.467Z" fill="#FFFFFE"/>
<path d="M323.615 404.301C324.999 415.136 318.936 424.835 310.075 425.967C301.211 427.099 292.905 419.235 291.521 408.4C290.139 397.567 296.201 387.868 305.064 386.736C313.924 385.605 322.231 393.468 323.615 404.301Z" fill="#231F20"/>
<path d="M389.267 395.917C390.985 409.367 383.457 421.41 372.455 422.815C361.449 424.222 351.137 414.457 349.419 401.005C347.7 387.555 355.228 375.511 366.233 374.106C377.236 372.701 387.548 382.466 389.267 395.917Z" fill="#FFFFFE"/>
<path d="M398.38 394.752C399.764 405.586 393.701 415.285 384.839 416.417C375.976 417.549 367.671 409.685 366.288 398.852C364.904 388.018 370.967 378.32 379.829 377.188C388.692 376.056 396.996 383.918 398.38 394.752" fill="#231F20"/>
<path d="M301.348 329.694C293.094 336.722 290.86 347.778 291.16 358.169C291.297 362.953 298.658 361.969 298.522 357.229C298.302 349.645 299.808 340.744 305.876 335.577C309.504 332.486 305.004 326.58 301.348 329.694Z" fill="#FFFFFE"/>
<path d="M314.169 321.558C313.923 321.59 313.679 321.621 313.432 321.653C311.425 321.91 309.967 323.798 310.223 325.805C310.479 327.81 312.365 329.272 314.373 329.016C314.62 328.984 314.863 328.953 315.111 328.921C317.116 328.666 318.577 326.777 318.32 324.77C318.064 322.764 316.176 321.302 314.169 321.558" fill="#FFFFFE"/>
<path d="M250.16 374.231C245.812 379.265 245.263 386.015 246.877 392.259C247.384 394.217 248.831 395.751 251.028 395.471C252.844 395.239 254.747 393.283 254.239 391.319C253.092 386.879 252.876 382.425 256.029 378.771C259.164 375.14 253.277 370.617 250.16 374.231" fill="#FFFFFE"/>
<path d="M236.957 429.043C232.116 437.023 233.389 447.657 242.169 452.211C246.431 454.42 249.292 447.565 245.073 445.379C240.877 443.203 240.587 437.279 242.828 433.584C245.283 429.536 239.439 424.949 236.957 429.043Z" fill="#FFFFFE"/>
<path d="M343.888 417.628C344.323 421.035 340.231 424.367 334.748 425.067C329.266 425.768 324.467 423.571 324.031 420.164C323.595 416.755 327.69 413.424 333.171 412.724C338.654 412.023 343.454 414.219 343.888 417.628Z" fill="#ED4146"/>
<path d="M333.179 417.654C333.156 417.49 333.136 417.327 333.115 417.163C332.91 415.556 331.399 414.388 329.794 414.594C328.188 414.799 327.019 416.308 327.223 417.915C327.246 418.078 327.265 418.242 327.287 418.406C327.492 420.011 329.003 421.179 330.608 420.974C332.212 420.77 333.382 419.259 333.179 417.654Z" fill="#F9E6C4"/>
<path d="M325.315 432.142C326.167 437.089 330.796 440.149 335.66 440.137C341.551 440.119 345.297 435.695 345.681 430.038C345.843 427.662 342.171 427.127 342.008 429.513C341.739 433.429 339.828 436.202 335.749 436.453C332.801 436.634 329.512 434.677 328.997 431.673C328.589 429.321 324.909 429.782 325.315 432.142Z" fill="#1C2A37"/>
<path d="M322.471 483.36C322.441 483.137 322.413 482.912 322.384 482.688C322.149 480.858 320.428 479.526 318.597 479.758C316.767 479.993 315.435 481.716 315.668 483.546C315.697 483.769 315.725 483.994 315.753 484.217C315.988 486.048 317.709 487.38 319.541 487.146C321.372 486.913 322.703 485.19 322.471 483.36" fill="#FFFFFE"/>
<path d="M325.293 474.351C327.137 467.585 330.295 461.277 333.399 455.021C335.347 451.097 329.097 448.482 327.168 452.371C323.777 459.203 320.601 466.013 318.588 473.393C317.44 477.605 324.161 478.501 325.293 474.351" fill="#FFFFFE"/>
<path d="M348.676 515.859C349.966 512.246 351.411 508.722 352.415 505.013C352.896 503.227 351.199 501.417 349.542 501.182C347.544 500.897 346.192 502.275 345.71 504.054C344.866 507.183 343.531 510.165 342.447 513.211C340.984 517.313 347.212 519.973 348.676 515.859Z" fill="#FFFFFE"/>
<path d="M345.877 115.656C341.25 136.624 336.074 161.329 349.258 180.344C360.528 196.596 383.365 200.341 401.581 197.351C409.768 196.005 408.529 183.113 400.27 184.471C386.07 186.801 369.225 185.009 359.809 172.847C348.329 158.021 355.016 134.233 358.638 117.816C360.441 109.655 347.67 107.536 345.877 115.656" fill="#1BA9E8"/>
<path d="M338.52 138.587L361.608 141.704L361.629 129.653C367.611 128.075 371.88 123.741 371.86 118.757C375.867 117.376 379.927 116.153 384.08 115.275C387.06 114.644 388.587 110.964 387.747 108.268C386.772 105.152 383.717 103.969 380.741 104.6C377.601 105.263 374.524 106.132 371.479 107.107L371.317 102.535C371.287 101.62 371.101 100.741 370.797 99.8974C372.411 95.3614 374.688 91.1028 376.932 86.8361C380.295 80.4454 370.44 75.1481 367.081 81.5268C365.195 85.1095 363.336 88.7161 361.748 92.4374C361.593 92.3934 361.419 92.3601 361.268 92.3214C360.981 87.1161 360.597 81.9094 360.015 76.7188C359.215 69.6014 348.033 69.9321 348.837 77.1041C349.395 82.0534 349.768 87.0187 350.052 91.9814L347.876 92.0575C346.895 87.1761 345.905 82.2894 344.916 77.4094C343.491 70.3494 332.825 73.7427 334.245 80.7507C335.083 84.9121 335.921 89.0734 336.765 93.2334C336.563 93.3014 336.363 93.3707 336.165 93.4481C333.691 90.4481 331.185 87.4694 329.248 84.0721C325.675 77.8054 316.22 83.7881 319.791 90.0454C322.095 94.0854 325.203 97.5308 328.105 101.127C327.813 102.06 327.659 103.033 327.693 104.036L328.239 119.999C328.404 124.764 332.467 128.695 338.052 130.153L338.52 138.587" fill="#FFFFFE"/>
<path d="M336.305 100.571C346.292 97.2359 358.083 94.4079 367.568 100.607C369.64 101.963 372.151 98.9946 370.057 97.628C359.249 90.564 346.485 93.0799 334.932 96.9373C332.555 97.7306 333.931 101.364 336.305 100.571Z" fill="#231F20"/>
<path d="M595.34 157.856C593.333 174.8 591.778 196.844 577.474 208.464C565.104 218.516 546.754 213.986 534.101 207.109C526.749 203.112 521.341 214.88 528.629 218.841C545.192 227.845 565.43 230.632 582.258 220.886C602.432 209.2 605.65 180.716 608.102 160.014C609.081 151.756 596.324 149.557 595.34 157.856Z" fill="#1BA9E8"/>
<path d="M607.508 184.089L584.679 179.438L588.624 168.052C583.492 164.593 580.887 159.096 582.545 154.397C579.215 151.774 575.785 149.284 572.151 147.09C569.544 145.513 569.312 141.536 570.995 139.266C572.937 136.644 576.211 136.53 578.815 138.106C581.561 139.765 584.185 141.598 586.739 143.521L588.395 139.256C588.724 138.402 589.187 137.633 589.753 136.936C589.721 132.124 588.972 127.352 588.255 122.585C587.181 115.442 598.229 113.681 599.305 120.81C599.907 124.813 600.476 128.83 600.752 132.866C600.913 132.877 601.088 132.902 601.244 132.914C603.227 128.093 605.3 123.304 607.559 118.593C610.655 112.134 621.107 116.124 617.987 122.633C615.835 127.125 613.848 131.689 611.945 136.282L613.975 137.072C616.511 132.784 619.052 128.493 621.591 124.212C625.257 118.014 634.213 124.724 630.569 130.877C628.409 134.53 626.249 138.185 624.084 141.836C624.251 141.966 624.417 142.098 624.579 142.236C627.904 140.216 631.249 138.228 634.195 135.657C639.632 130.914 646.593 139.673 641.161 144.409C637.657 147.465 633.589 149.696 629.665 152.138C629.636 153.117 629.459 154.086 629.096 155.021L623.332 169.917C621.608 174.362 616.479 176.738 610.724 176.278L607.508 184.089" fill="#FFFFFE"/>
<path d="M624.596 145.937C614.953 138.493 603.728 131.92 591.196 135.036C588.771 135.638 590.165 139.266 592.569 138.669C603.567 135.934 613.77 142.482 622.104 148.916C624.085 150.444 626.581 147.468 624.596 145.937" fill="#231F20"/>
<path d="M560.155 149.277C556.524 128.23 545.816 109.045 529.74 95.0008C512.235 79.7061 490.081 72.9035 467.007 74.8195C418.377 78.8595 378.061 126.603 382.017 175.213C382.719 183.785 384.736 192.257 387.864 200.259C404.945 241.501 455.56 266.894 498.805 254.41C519.879 248.326 537.436 232.726 548.903 214.415C561.172 194.821 564.043 171.805 560.155 149.277" fill="#F184A6"/>
<path d="M554.547 172.863C555.056 162.665 547.298 155.751 540.627 149.231C533.439 142.207 532.223 135.42 533.25 125.679C534.044 118.122 535.54 110.544 533.614 103.04C531.498 94.7975 523.57 90.3935 515.886 88.4722C505.522 85.8802 497.262 93.8669 487.39 94.6989C478.575 95.4429 476.462 91.3975 469.374 87.8335C453.348 79.7668 435.355 86.8482 432.328 105.53C430.67 115.774 416.859 119.508 408.738 123.367C401.255 126.926 395.215 131.546 393.055 139.87C391.843 144.542 392.11 150.6 393.392 155.199C395.15 161.499 399.127 166.807 401.232 172.975C403.548 179.766 398.575 186.452 396.935 192.871C395.814 197.278 396.902 202.87 399.155 206.782C403.028 213.51 410.463 214.494 417.051 217.08C425.296 220.315 429.636 225.74 434.412 233.02C440.508 242.313 449.932 247.983 460.864 249.851C473.174 251.951 484.584 249.56 492.891 239.944C498.738 233.171 508.147 225.693 517.763 226.935C526.211 228.027 534.002 229.765 538.879 220.128C540.791 216.357 540.804 212.116 539.431 208.206C537.63 203.088 534.41 199.76 538.371 194.508C540.991 191.031 545.49 189.268 548.651 186.344C552.591 182.696 554.284 178.183 554.547 172.863" fill="#FFFFFE"/>
<path d="M492.265 147.871C491.543 143.673 489.405 139.845 486.197 137.045C482.705 133.993 478.289 132.636 473.689 133.019C463.988 133.824 455.949 143.348 456.736 153.043C456.873 154.752 457.28 156.443 457.903 158.039C461.307 166.263 471.404 171.329 480.028 168.839C484.231 167.625 487.735 164.515 490.019 160.861C492.469 156.953 493.04 152.363 492.265 147.871" fill="#453195"/>
<path d="M447.639 183.124L456.548 176.588C455.659 171.217 453.465 167.48 450.372 166.957C445.088 166.062 439.191 174.892 437.197 186.677C435.204 198.461 437.869 208.74 443.152 209.633C448.436 210.528 454.337 201.697 456.331 189.913C456.487 188.988 456.611 188.074 456.709 187.172L447.639 183.124Z" fill="#1C2A37"/>
<path d="M489.813 190.259L498.724 183.722C497.833 178.352 495.639 174.613 492.548 174.091C487.265 173.197 481.364 182.025 479.371 193.811C477.377 205.595 480.045 215.873 485.329 216.768C490.613 217.661 496.512 208.832 498.505 197.048C498.663 196.123 498.788 195.208 498.887 194.305L489.813 190.259Z" fill="#1C2A37"/>
<path d="M432.177 143.112C435.443 140.792 438.708 138.47 441.975 136.149C445.703 133.501 441.599 127.726 437.873 130.376C434.605 132.697 431.341 135.018 428.075 137.338C424.348 139.986 428.452 145.761 432.177 143.112Z" fill="#1BA9E8"/>
<path d="M409.343 194.507C411.795 197.677 414.243 200.849 416.692 204.021C419.487 207.639 425.093 203.308 422.297 199.692C419.848 196.521 417.399 193.349 414.949 190.177C412.157 186.559 406.551 190.891 409.343 194.507" fill="#1BA9E8"/>
<path d="M506.228 110.514C508.677 113.685 511.127 116.857 513.575 120.026C516.368 123.645 521.979 119.315 519.18 115.698C516.731 112.526 514.281 109.354 511.832 106.185C509.039 102.566 503.432 106.898 506.228 110.514" fill="#1BA9E8"/>
<path d="M510.67 211.648C513.12 214.818 515.571 217.989 518.02 221.161C520.814 224.78 526.42 220.449 523.626 216.832C521.176 213.661 518.726 210.489 516.276 207.318C513.483 203.698 507.878 208.03 510.67 211.648Z" fill="#1BA9E8"/>
<path d="M524.306 177.89C527.51 175.486 530.712 173.079 533.918 170.674C537.578 167.93 533.323 162.264 529.668 165.01C526.463 167.415 523.258 169.82 520.054 172.226C516.398 174.97 520.65 180.634 524.306 177.89Z" fill="#1BA9E8"/>
<path d="M506.927 143.153C510.633 144.68 514.339 146.203 518.04 147.729C522.271 149.472 524.967 142.92 520.739 141.181C517.032 139.653 513.329 138.128 509.624 136.604C505.399 134.861 502.701 141.413 506.927 143.153" fill="#F1971D"/>
<path d="M451.84 106.836C450.655 110.665 449.475 114.493 448.293 118.319C446.943 122.691 453.712 124.778 455.06 120.411C456.245 116.581 457.427 112.753 458.607 108.925C459.959 104.557 453.187 102.469 451.84 106.836Z" fill="#F1971D"/>
<path d="M406.711 139.122C405.528 142.951 404.348 146.778 403.166 150.606C401.816 154.977 408.585 157.066 409.932 152.695C411.117 148.867 412.299 145.039 413.477 141.211C414.831 136.843 408.06 134.754 406.711 139.122Z" fill="#ED4146"/>
<path d="M493.128 109.923C489.761 107.743 486.4 105.568 483.036 103.392C479.196 100.905 475.349 106.852 479.187 109.335C482.551 111.513 485.915 113.692 489.279 115.865C493.113 118.355 496.964 112.405 493.128 109.923Z" fill="#ED4146"/>
<path d="M430.712 173.118C427.351 170.938 423.985 168.765 420.624 166.588C416.784 164.101 412.933 170.048 416.772 172.529C420.135 174.71 423.501 176.888 426.863 179.062C430.699 181.55 434.551 175.601 430.712 173.118Z" fill="#ED4146"/>
<path d="M527.549 190.432C523.729 191.646 519.916 192.862 516.096 194.074C511.736 195.458 513.884 202.211 518.239 200.822C522.06 199.61 525.877 198.395 529.695 197.182C534.053 195.8 531.905 189.047 527.549 190.432Z" fill="#ED4146"/>
<path d="M470.065 225.533C470.187 223.608 469.217 221.799 467.163 221.452C465.548 221.179 463.567 222.24 463.168 223.92L459.001 222.667C459.235 221.975 459.251 221.207 458.948 220.405C458.315 218.733 456.115 217.483 454.383 218.343C450.496 220.272 447.605 223.249 447.7 227.813C447.776 231.501 450.629 234.644 453.584 236.473C456.497 238.276 460.481 238.892 463.633 237.331C468.107 235.117 469.768 230.241 470.065 225.533Z" fill="#ED4146"/>
<path d="M449.656 215.138C455.584 225.83 469.905 228.44 478.028 218.736C479.639 216.812 476.653 214.326 475.049 216.245C468.391 224.197 457.493 221.316 452.82 212.889C451.608 210.7 448.455 212.973 449.656 215.138Z" fill="#1C2A37"/>
<path d="M459.359 221.581C457.667 223.864 456.031 226.288 454.772 228.84C453.662 231.092 457.19 232.722 458.292 230.482C459.407 228.222 460.839 226.094 462.335 224.072C463.823 222.065 460.85 219.568 459.359 221.581" fill="#1C2A37"/>
<path d="M187.005 266.062C179.869 256.064 167.957 247.016 155.237 246.643C142.321 246.263 135.178 255.518 129.535 265.864C119.89 283.548 126.973 309.44 137.908 324.7C155.702 349.532 194.393 337.758 197.401 308.051C198.821 294.052 195.138 277.458 187.005 266.062Z" fill="#F184A7"/>
<path d="M123.24 248.255C120.982 258.986 116.958 274.321 129.247 280.733C131.578 281.949 134.59 282.199 136.276 284.458C138.598 287.569 134.654 292.595 134.417 295.799C134.046 300.793 134.061 305.296 136.756 309.678C141.542 317.462 155.256 319.321 151.325 331.059C149.51 336.481 146.142 341.147 149.001 346.989C150.217 349.473 157.676 352.923 157.138 354.793C155.948 358.933 162.381 360.689 163.566 356.565C164.692 352.654 163.78 349.737 160.389 347.458C158.82 346.403 156.901 346.053 155.424 344.816C152.31 342.212 156.582 335.618 157.753 332.833C161.654 323.557 154.945 315.705 147.806 310.838C143.329 307.785 140.78 304.966 140.816 299.263C140.854 293.409 145.345 288.466 142.693 282.563C140.39 277.439 135.956 276.721 131.392 274.34C123.541 270.244 128.357 256.263 129.669 250.027C130.551 245.833 124.125 244.049 123.24 248.255Z" fill="#ED4147"/>
<path d="M144.676 244.019C142.42 254.75 138.394 270.085 150.684 276.497C153.016 277.713 156.028 277.964 157.713 280.222C160.036 283.334 156.09 288.359 155.853 291.563C155.482 296.557 155.498 301.059 158.193 305.442C162.98 313.227 176.692 315.086 172.762 326.824C170.948 332.246 167.58 336.911 170.438 342.752C171.654 345.236 179.113 348.687 178.576 350.556C177.386 354.696 183.82 356.452 185.004 352.328C186.128 348.418 185.217 345.5 181.826 343.222C180.257 342.167 178.338 341.815 176.861 340.579C173.749 337.974 178.019 331.383 179.191 328.597C183.091 319.322 176.381 311.47 169.244 306.603C164.765 303.55 162.216 300.73 162.253 295.027C162.292 289.173 166.782 284.231 164.13 278.329C161.829 273.203 157.393 272.485 152.829 270.105C144.978 266.009 149.793 252.027 151.105 245.791C151.986 241.598 145.561 239.812 144.676 244.019" fill="#ED4147"/>
<path d="M168.296 239.354C166.039 250.084 162.013 265.42 174.304 271.832C176.635 273.046 179.645 273.298 181.332 275.556C183.655 278.668 179.709 283.693 179.472 286.897C179.101 291.89 179.117 296.393 181.812 300.777C186.599 308.561 200.309 310.418 196.381 322.158C194.567 327.578 191.196 332.246 194.056 338.088C195.272 340.57 202.732 344.022 202.195 345.89C201.004 350.03 207.437 351.786 208.623 347.662C209.748 343.752 208.835 340.834 205.445 338.556C203.876 337.501 201.957 337.151 200.48 335.915C197.367 333.309 201.639 326.717 202.809 323.93C206.709 314.656 200 306.804 192.863 301.937C188.385 298.884 185.835 296.064 185.872 290.361C185.909 284.506 190.401 279.565 187.749 273.662C185.447 268.537 181.012 267.818 176.448 265.438C168.597 261.342 173.412 247.361 174.724 241.126C175.607 236.932 169.18 235.148 168.296 239.354" fill="#ED4147"/>
<path d="M166.802 286.381C165.233 284.183 162.616 282.195 159.82 282.113C156.984 282.029 155.413 284.062 154.173 286.337C152.052 290.223 153.609 295.914 156.012 299.267C159.924 304.723 168.426 302.137 169.086 295.609C169.401 292.531 168.589 288.885 166.802 286.381" fill="#453195"/>
<path d="M126.214 275.084C122.842 270.449 115.71 267.68 110.571 271.373C106.523 274.281 106.449 279.949 106.498 284.445C106.516 286.41 107.888 299.352 102.925 296.753C99.8129 295.124 98.7591 289.124 97.931 286.114C96.9227 282.452 95.7405 278.941 94.1451 275.48C90.6477 267.904 84.4681 262.912 76.003 264.352C75.8003 264.362 75.5889 264.39 75.3649 264.454C75.1457 264.5 74.9473 264.566 74.7654 264.648C58.5025 269.742 66.0091 288.425 69.4577 300.226C70.0697 302.325 73.4165 315.718 66.9039 311.49C61.2399 307.814 58.4946 298.604 54.8763 293.148C51.6123 288.224 47.0649 283.794 40.8211 286.208C32.1561 289.556 31.4998 300.972 32.2091 308.677C34.0211 328.312 47.6754 360.005 71.7446 355.442C85.5519 352.826 93.3493 343.938 94.6591 330.157C95.0785 325.76 94.7977 321.273 94.2697 316.856C96.2091 319.898 98.2643 322.868 100.422 325.749C105.881 333.038 118.787 349.124 129.243 340.846C133.851 337.2 135.003 329.792 135.299 324.318C135.754 315.829 134.972 307.156 133.766 298.758C132.633 290.878 131.012 281.68 126.214 275.084" fill="#81C732"/>
<path d="M58.9242 336.467C60.4715 344.299 55.3752 351.904 47.5423 353.451C39.7086 355 32.1038 349.903 30.557 342.071C29.0086 334.236 34.1038 326.632 41.9376 325.084C49.771 323.536 57.3756 328.632 58.9242 336.467" fill="#128F52"/>
<path d="M64.0717 287.932C65.6201 295.765 60.5244 303.371 52.6911 304.917C44.8588 306.465 37.2525 301.371 35.7045 293.537C34.1572 285.704 39.2535 278.099 47.0868 276.552C54.9201 275.003 62.5244 280.1 64.0717 287.932Z" fill="#128F52"/>
<path d="M100.349 339.128C101.897 346.96 96.8011 354.568 88.9688 356.115C81.1355 357.663 73.5292 352.565 71.9817 344.733C70.4349 336.9 75.5303 329.295 83.364 327.747C91.1959 326.199 98.8016 331.296 100.349 339.128Z" fill="#128F52"/>
<path d="M155.763 338.844C157.311 346.677 152.216 354.282 144.383 355.83C136.549 357.378 128.943 352.281 127.396 344.448C125.849 336.616 130.944 329.009 138.777 327.462C146.611 325.914 154.216 331.012 155.763 338.844" fill="#128F52"/>
<path d="M103.157 286.338C104.411 292.684 100.282 298.848 93.9347 300.102C87.5867 301.356 81.4238 297.227 80.1701 290.88C78.9165 284.534 83.0446 278.37 89.393 277.115C95.7399 275.862 101.903 279.992 103.157 286.338" fill="#128F52"/>
<path d="M128.904 307.901C130.159 314.249 126.03 320.412 119.683 321.666C113.334 322.92 107.171 318.79 105.917 312.442C104.664 306.097 108.792 299.933 115.14 298.678C121.488 297.424 127.651 301.556 128.904 307.901" fill="#128F52"/>
<path d="M140.8 272.772C142.055 279.119 137.925 285.283 131.578 286.538C125.229 287.791 119.066 283.66 117.813 277.314C116.559 270.968 120.687 264.804 127.035 263.551C133.384 262.296 139.545 266.426 140.8 272.772Z" fill="#128F52"/>
<path d="M42.685 316.897C46.4241 316.16 45.2793 310.361 41.5397 311.101C37.8017 311.838 38.9474 317.636 42.685 316.897Z" fill="#FFFFFE"/>
<path d="M44.4346 328.8C46.2476 337.018 51.2221 344.272 58.7809 348.17C62.1294 349.898 65.456 345.008 62.07 343.261C55.8393 340.048 51.7377 334.479 50.2314 327.653C49.4101 323.938 43.6122 325.076 44.4346 328.8Z" fill="#FFFFFE"/>
<path d="M276.658 234.63C273.284 229.994 266.152 227.225 261.014 230.92C256.967 233.828 256.892 239.494 256.94 243.992C256.959 245.956 258.33 258.897 253.368 256.298C250.255 254.67 249.202 248.67 248.374 245.662C247.366 241.997 246.183 238.486 244.586 235.028C241.09 227.45 234.911 222.457 226.444 223.897C226.243 223.908 226.032 223.937 225.806 224C225.587 224.045 225.39 224.112 225.207 224.193C208.944 229.289 216.452 247.97 219.899 259.772C220.512 261.872 223.859 275.264 217.346 271.036C211.682 267.361 208.936 258.149 205.319 252.694C202.055 247.77 197.508 243.34 191.263 245.753C182.599 249.101 181.942 260.518 182.651 268.222C184.464 287.858 198.118 319.552 222.187 314.989C235.995 312.372 243.792 303.484 245.102 289.702C245.52 285.305 245.24 280.818 244.711 276.402C246.652 279.444 248.707 282.414 250.864 285.294C256.323 292.585 269.228 308.669 279.686 300.392C284.292 296.746 285.444 289.337 285.74 283.865C286.196 275.374 285.415 266.701 284.207 258.305C283.074 250.425 281.454 241.225 276.658 234.63" fill="#1BA9E8"/>
<path d="M209.365 296.012C210.913 303.844 205.816 311.449 197.985 312.997C190.152 314.545 182.547 309.448 180.999 301.616C179.451 293.783 184.547 286.177 192.38 284.629C200.212 283.083 207.817 288.177 209.365 296.012" fill="#F2951D"/>
<path d="M214.515 247.478C216.063 255.31 210.965 262.916 203.135 264.464C195.3 266.01 187.695 260.916 186.147 253.084C184.6 245.25 189.695 237.644 197.529 236.096C205.361 234.549 212.967 239.645 214.515 247.478Z" fill="#F2951D"/>
<path d="M250.791 298.673C252.339 306.506 247.244 314.113 239.412 315.661C231.577 317.208 223.971 312.112 222.424 304.278C220.876 296.446 225.972 288.84 233.805 287.292C241.639 285.745 249.244 290.841 250.791 298.673Z" fill="#F2951D"/>
<path d="M300.12 299.592C301.668 307.424 296.571 315.031 288.739 316.579C280.905 318.127 273.299 313.028 271.752 305.196C270.204 297.364 275.3 289.757 283.133 288.211C290.965 286.663 298.573 291.759 300.12 299.592" fill="#F2951D"/>
<path d="M253.599 245.883C254.853 252.231 250.724 258.393 244.377 259.648C238.028 260.901 231.867 256.773 230.612 250.424C229.359 244.08 233.487 237.915 239.835 236.661C246.181 235.407 252.345 239.537 253.599 245.883Z" fill="#F2951D"/>
<path d="M279.345 267.446C280.6 273.794 276.472 279.957 270.124 281.211C263.776 282.465 257.613 278.335 256.36 271.987C255.107 265.642 259.235 259.478 265.583 258.223C271.929 256.97 278.092 261.101 279.345 267.446Z" fill="#F2951D"/>
<path d="M291.241 232.317C292.496 238.665 288.368 244.828 282.02 246.083C275.67 247.336 269.509 243.205 268.254 236.86C267.001 230.513 271.129 224.349 277.478 223.096C283.825 221.841 289.988 225.972 291.241 232.317" fill="#F2951D"/>
<path d="M193.128 276.444C196.865 275.705 195.721 269.909 191.983 270.647C188.244 271.385 189.389 277.183 193.128 276.444Z" fill="#FFFFFE"/>
<path d="M194.877 288.346C196.689 296.564 201.664 303.817 209.223 307.717C212.572 309.444 215.897 304.555 212.512 302.808C206.281 299.594 202.18 294.027 200.673 287.2C199.855 283.484 194.056 284.622 194.877 288.346Z" fill="#FFFFFE"/>
<path d="M152.284 325.876C159.39 333.801 174.278 332.896 180.363 324.149C182.543 321.019 177.631 317.733 175.455 320.861C171.546 326.477 161.247 327.02 156.712 321.961C154.171 319.127 149.735 323.032 152.284 325.876" fill="#FFFFFE"/>
<path d="M144.201 316.517C144.071 316.542 143.944 316.567 143.815 316.593C142.235 316.905 141.177 318.483 141.489 320.063C141.801 321.645 143.38 322.701 144.96 322.389C145.088 322.363 145.217 322.338 145.347 322.313C146.927 322.001 147.984 320.423 147.671 318.842C147.36 317.262 145.78 316.205 144.201 316.517Z" fill="#FFFFFE"/>
<path d="M140.252 166.742C133.813 141.77 91.7567 142.671 85.2425 167.371C76.3045 167.135 68.9556 171.484 65.0863 180.343C61.6171 188.286 62.3863 197.116 68.2472 203.598C75.016 211.083 87.1056 212.203 95.3775 207.406C97.992 213.22 105.077 217.406 112.286 218.174C118.096 218.792 124.442 216.61 127.96 211.823C130.835 207.914 131.562 203.262 131.202 198.574C133.805 200.976 136.644 203.042 140.061 204.167C147.809 206.716 154.559 198.546 157.245 192.388C162.967 179.274 153.376 166.323 140.252 166.742" fill="#FFFFFE"/>
<path d="M179.423 152.692C172.991 127.718 210.245 108.18 227.885 126.654C235.596 122.128 244.132 122.384 251.801 128.269C258.677 133.545 262.272 141.648 260.273 150.154C257.965 159.978 247.924 166.802 238.363 166.601C238.885 172.954 234.705 180.044 228.765 184.2C223.977 187.55 217.368 188.706 211.975 186.217C207.569 184.184 204.684 180.462 202.733 176.185C201.615 179.546 200.128 182.726 197.68 185.362C192.129 191.34 182.272 187.448 176.944 183.357C165.596 174.641 167.733 158.668 179.423 152.692" fill="#FFFFFE"/>
<path d="M103.444 167.501C102.994 163.601 102.776 159.697 102.743 155.772C102.788 160.96 102.865 154.018 102.928 152.877C103.046 150.742 103.248 148.61 103.474 146.482C103.935 142.104 104.678 137.757 105.567 133.445C106.018 131.252 106.557 129.076 107.116 126.906C108.265 122.458 106.032 130.524 107.362 126.12C107.753 124.825 108.185 123.544 108.616 122.262C110.05 118.008 111.777 113.858 113.68 109.794C114.62 107.784 115.659 105.822 116.724 103.877C117.68 102.212 117.585 102.338 116.44 104.254C117.114 103.132 117.834 102.038 118.553 100.945C120.913 97.3689 123.603 94.0249 126.495 90.8676C127.069 90.2516 127.653 89.6463 128.249 89.0516C125.174 92.1783 128.187 89.2276 128.798 88.6929C130.667 87.0569 132.675 85.5916 134.728 84.1969C135.414 83.7422 136.11 83.3022 136.816 82.8756C133.06 85.1969 136.593 83.0636 137.365 82.6782C139.222 81.7502 141.161 80.9996 143.11 80.2969C143.904 80.0236 144.702 79.7676 145.508 79.5316C141.265 80.8303 145.352 79.6436 146.192 79.4743C148.341 79.0409 150.528 78.8222 152.712 78.6556C154.818 78.5982 154.98 78.5569 153.196 78.5276C154.848 78.5489 156.493 78.7196 158.134 78.8903C159.213 79.0183 160.285 79.1809 161.354 79.3729C161.742 79.4369 166.876 80.7076 163.206 79.6502C165.772 80.3902 168.245 81.4156 170.68 82.4996C172.145 83.1516 173.557 83.9156 174.966 84.6782C171.882 83.0102 176.394 85.6383 176.642 85.8049C178.896 87.3183 181.006 89.0316 183.08 90.7782C183.91 91.4916 184.724 92.2236 185.525 92.9689C189.457 96.5636 183.468 90.6276 187.132 94.5316C191.322 98.9943 194.944 103.976 198.242 109.122C200.124 112.06 202.177 116.084 204.509 121.494C205.577 123.969 206.501 126.502 207.385 129.046C207.905 130.541 208.358 132.057 208.809 133.573C207.764 130.066 209.121 134.89 209.21 135.274C211.309 144.33 218.414 151.293 228.337 150.013C236.874 148.912 245.18 139.962 243.077 130.885C236.701 103.376 222.18 76.9702 199.148 59.9556C177.181 43.7289 146.841 39.1969 122.221 52.2103C81.3743 73.8023 64.5566 128.302 69.5779 171.89C70.6425 181.13 79.5763 187.806 88.7039 186.63C98.0211 185.428 104.508 176.74 103.444 167.501" fill="#F1971D"/>
<path d="M123.316 161.208C123.01 158.488 122.855 155.775 122.819 153.037C122.882 157.908 122.869 153.613 122.913 152.668C122.992 150.968 123.157 149.273 123.333 147.58C123.649 144.528 124.178 141.501 124.787 138.495C125.052 137.184 125.371 135.885 125.691 134.585C126.195 132.68 126.141 132.855 125.527 135.109C125.786 134.248 126.055 133.393 126.337 132.541C127.302 129.56 128.488 126.657 129.771 123.803C130.315 122.589 130.921 121.405 131.527 120.223C131.935 119.444 132.357 118.672 132.794 117.908C131.626 119.819 131.55 119.968 132.563 118.355C134.173 115.829 136.031 113.476 138.005 111.227C138.565 110.603 139.141 109.991 139.732 109.395C138.093 110.98 137.964 111.145 139.344 109.891C140.58 108.797 141.917 107.829 143.267 106.885C144 106.373 147.6 104.481 143.706 106.543C145.167 105.769 146.707 105.167 148.252 104.592C152.231 103.116 144.636 105.315 148.835 104.381C150.537 104.003 152.277 103.833 154.012 103.692C159.265 103.261 150.995 103.359 156.108 103.8C156.866 103.867 163.075 105.317 159.586 104.26C161.118 104.724 162.588 105.367 164.054 106.004C165.026 106.448 165.979 106.928 166.916 107.443C165.435 106.515 165.539 106.6 167.231 107.7C168.587 108.599 169.854 109.623 171.118 110.641C171.602 111.032 175.997 115.316 174.012 113.203C176.679 116.043 178.98 119.209 181.138 122.445C181.195 122.533 183.932 127.236 182.374 124.397C183.435 126.329 184.355 128.335 185.252 130.345C186.134 132.316 186.871 134.347 187.587 136.381C187.926 137.381 188.244 138.387 188.542 139.399C188.1 137.623 188.108 137.692 188.567 139.605C190.696 148.653 197.748 155.627 207.695 154.343C216.209 153.245 224.567 144.287 222.434 135.216C217.552 114.46 206.979 94.9172 189.734 81.8532C172.79 69.0185 148.813 65.3852 129.674 75.5212C98.6538 91.9479 85.7054 132.331 89.4491 165.596C90.4903 174.839 99.4684 181.509 108.577 180.335C117.912 179.131 124.356 170.448 123.316 161.208" fill="#1BA9E8"/>
<path d="M145.799 151.488C146.033 145.437 145.701 136.433 151.611 134.55C159.443 132.056 163.847 141.662 166.537 146.778C170.088 153.533 176.132 158 184.068 156.973C192.516 155.885 201.031 146.897 198.807 137.846C195.625 124.894 189.663 113.516 179.192 104.928C168.371 96.0515 152.724 93.8635 139.953 99.5088C119.232 108.673 110.647 134.786 112.857 155.893C113.825 165.145 122.929 171.8 131.983 170.633C140.968 169.474 144.265 162.772 145.548 154.602C145.685 153.724 145.751 152.662 145.799 151.488" fill="#ED4146"/>
<path d="M79.4393 175.02C83.0715 175.532 83.8674 169.899 80.2346 169.387C76.6007 168.873 75.8065 174.507 79.4393 175.02Z" fill="#FFFFFE"/>
<path d="M75.2864 135.201C73.0385 143.426 72.3604 151.977 73.5547 160.432C74.0661 164.057 79.7131 163.341 79.1984 159.7C78.0708 151.709 78.7979 143.761 80.9219 135.997C81.8875 132.464 76.2417 131.713 75.2864 135.201" fill="#FFFFFE"/>
<path d="M158.899 81.5411C164.204 80.2625 169.644 81.9878 173.997 85.1064C176.976 87.2398 180.511 82.7798 177.527 80.6424C172.037 76.7104 164.911 74.2705 158.168 75.8971C154.645 76.7478 155.328 82.4025 158.899 81.5411Z" fill="#FFFFFE"/>
<path d="M173.031 144.859C175.931 149.308 181.42 152.998 186.691 150.108C189.867 148.366 187.755 143.075 184.532 144.842C181.533 146.486 179.145 143.842 177.576 141.438C175.569 138.358 171.036 141.8 173.031 144.859" fill="#FFFFFE"/>
<path d="M182.125 86.6448C181.844 88.6794 182.996 90.2088 185.029 90.5021C186.564 90.7235 188.028 89.6141 188.244 88.0808C188.46 86.5434 187.359 85.0888 185.824 84.8674C185.739 84.8568 185.653 84.8421 185.571 84.8288C188.316 85.2888 187.543 89.0154 187.76 87.4394C187.972 85.9034 186.879 84.4421 185.34 84.2248C183.808 84.0088 182.337 85.1088 182.125 86.6448" fill="#FFFFFE"/>
<path d="M584.773 354.231C585.446 354.771 586.397 354.971 587.358 354.421C591.972 351.785 587.974 340.468 586.841 336.929C585.57 332.977 581.186 324.427 575.698 325.88C570.982 327.131 573.208 334.649 573.993 337.752C575.454 343.519 577.548 349.707 580.672 354.808C581.809 356.667 584.201 355.816 584.773 354.231" fill="#FFFFFE"/>
<path d="M575.168 362.155C577.3 362.665 578.416 360.362 577.7 358.843C578.541 358.741 579.339 358.225 579.642 357.189C581.135 352.11 570.247 346.873 566.992 345.195C563.269 343.278 554.104 340.287 551.22 345.229C548.736 349.483 555.819 353.29 558.579 354.919C563.64 357.906 569.417 360.781 575.168 362.155Z" fill="#FFFFFE"/>
<path d="M576.526 371.233C578.382 370.096 577.532 367.704 575.947 367.133C576.486 366.457 576.687 365.508 576.137 364.548C573.5 359.935 562.184 363.929 558.644 365.065C554.695 366.335 546.14 370.717 547.595 376.205C548.846 380.923 556.364 378.696 559.468 377.911C565.233 376.449 571.423 374.359 576.526 371.233" fill="#FFFFFE"/>
<path d="M580.557 374.207C580.456 373.361 579.94 372.568 578.905 372.264C573.825 370.772 568.588 381.66 566.912 384.916C564.994 388.637 562.001 397.804 566.942 400.687C571.197 403.168 575.005 396.087 576.634 393.327C579.621 388.267 582.496 382.487 583.869 376.739C584.379 374.608 582.077 373.491 580.557 374.207" fill="#FFFFFE"/>
<path d="M588.848 375.96C588.173 375.42 587.224 375.221 586.263 375.769C581.648 378.405 585.645 389.724 586.78 393.261C588.049 397.213 592.433 405.765 597.921 404.312C602.639 403.06 600.412 395.541 599.627 392.439C598.167 386.672 596.073 380.484 592.948 375.383C591.811 373.524 589.419 374.375 588.848 375.96Z" fill="#FFFFFE"/>
<path d="M598.453 368.035C596.321 367.527 595.205 369.828 595.92 371.347C595.078 371.449 594.282 371.965 593.978 373.001C592.486 378.081 603.374 383.317 606.63 384.995C610.352 386.912 619.518 389.904 622.402 384.963C624.884 380.707 617.802 376.901 615.042 375.271C609.98 372.284 604.201 369.409 598.453 368.035Z" fill="#FFFFFE"/>
<path d="M614.154 352.279C608.388 353.74 602.198 355.833 597.096 358.957C595.238 360.095 596.088 362.487 597.675 363.056C597.134 363.733 596.935 364.681 597.484 365.641C600.124 370.256 611.436 366.261 614.975 365.124C618.927 363.856 627.48 359.472 626.026 353.984C624.776 349.267 617.256 351.495 614.154 352.279" fill="#FFFFFE"/>
<path d="M593.063 355.985C593.164 356.829 593.68 357.623 594.716 357.926C599.798 359.417 605.031 348.531 606.71 345.275C608.626 341.554 611.619 332.385 606.676 329.503C602.423 327.021 598.616 334.103 596.986 336.863C594 341.923 591.124 347.705 589.751 353.451C589.242 355.583 591.543 356.699 593.063 355.985" fill="#FFFFFE"/>
<path d="M598.636 358.113C597.183 355.259 594.796 352.981 591.871 351.681C588.682 350.265 585.207 350.271 581.986 351.567C575.194 354.301 571.53 362.931 574.251 369.723C574.73 370.92 575.398 372.045 576.198 373.055C580.472 378.208 588.852 379.607 594.499 375.9C597.25 374.096 599.076 371.083 599.906 367.949C600.798 364.596 600.19 361.171 598.636 358.113Z" fill="#F1971D"/>
<path d="M581.586 366.723C585.953 366.723 585.953 359.952 581.586 359.952C577.221 359.952 577.221 366.723 581.586 366.723Z" fill="#FFFFFE"/>
<path d="M492.133 332.32C492.496 332.612 493.008 332.719 493.527 332.423C496.015 331.002 493.86 324.899 493.248 322.992C492.563 320.862 490.199 316.251 487.241 317.034C484.697 317.708 485.897 321.763 486.321 323.435C487.108 326.544 488.237 329.882 489.921 332.632C490.535 333.634 491.824 333.175 492.133 332.32" fill="#FFFFFE"/>
<path d="M486.953 336.593C488.104 336.867 488.705 335.627 488.319 334.807C488.773 334.752 489.203 334.473 489.367 333.916C490.171 331.177 484.302 328.353 482.547 327.448C480.539 326.415 475.596 324.803 474.042 327.467C472.702 329.761 476.522 331.813 478.01 332.692C480.739 334.303 483.855 335.853 486.953 336.593Z" fill="#FFFFFE"/>
<path d="M487.687 341.488C488.688 340.874 488.228 339.584 487.373 339.277C487.665 338.913 487.772 338.401 487.476 337.884C486.055 335.396 479.952 337.549 478.045 338.162C475.915 338.846 471.304 341.209 472.087 344.169C472.761 346.712 476.815 345.512 478.488 345.088C481.596 344.301 484.935 343.172 487.687 341.488" fill="#FFFFFE"/>
<path d="M489.86 343.091C489.805 342.636 489.527 342.208 488.969 342.044C486.231 341.239 483.407 347.111 482.503 348.866C481.469 350.872 479.856 355.815 482.52 357.37C484.813 358.708 486.865 354.89 487.744 353.4C489.355 350.672 490.907 347.556 491.645 344.456C491.919 343.307 490.68 342.706 489.86 343.091" fill="#FFFFFE"/>
<path d="M494.331 344.037C493.967 343.745 493.455 343.638 492.936 343.933C490.448 345.355 492.603 351.458 493.216 353.365C493.9 355.495 496.263 360.107 499.223 359.323C501.765 358.649 500.565 354.594 500.141 352.921C499.356 349.811 498.225 346.475 496.541 343.723C495.927 342.722 494.639 343.182 494.331 344.037" fill="#FFFFFE"/>
<path d="M499.509 339.762C498.36 339.489 497.757 340.73 498.143 341.549C497.691 341.605 497.26 341.882 497.096 342.441C496.293 345.18 502.164 348.004 503.917 348.908C505.924 349.941 510.868 351.554 512.423 348.889C513.761 346.596 509.943 344.544 508.453 343.665C505.724 342.054 502.609 340.504 499.509 339.762" fill="#FFFFFE"/>
<path d="M507.974 331.268C504.865 332.056 501.528 333.184 498.777 334.869C497.774 335.482 498.236 336.772 499.089 337.078C498.798 337.444 498.692 337.954 498.985 338.473C500.41 340.961 506.51 338.806 508.417 338.194C510.549 337.509 515.161 335.145 514.376 332.188C513.702 329.644 509.646 330.844 507.974 331.268" fill="#FFFFFE"/>
<path d="M496.602 333.266C496.658 333.721 496.935 334.15 497.495 334.313C500.235 335.115 503.056 329.247 503.962 327.49C504.995 325.485 506.608 320.541 503.943 318.987C501.65 317.649 499.596 321.467 498.718 322.955C497.108 325.685 495.558 328.801 494.816 331.901C494.542 333.05 495.784 333.651 496.602 333.266" fill="#FFFFFE"/>
<path d="M499.608 334.414C498.824 332.874 497.536 331.646 495.962 330.945C494.242 330.182 492.367 330.185 490.63 330.884C486.968 332.358 484.992 337.012 486.459 340.673C486.716 341.318 487.079 341.925 487.51 342.47C489.815 345.249 494.334 346.002 497.376 344.004C498.86 343.03 499.846 341.406 500.294 339.717C500.774 337.909 500.446 336.062 499.608 334.414" fill="#F1971D"/>
<path d="M490.416 339.056C492.769 339.056 492.769 335.405 490.416 335.405C488.061 335.405 488.061 339.056 490.416 339.056Z" fill="#FFFFFE"/>
<path d="M338.513 270.48C339.764 266.505 342.227 261.447 347.228 262.316C351.375 263.036 353.517 267.869 354.952 271.284C356.852 275.804 359.179 282.844 364.651 284.22C370.901 285.789 375.617 282.291 378.792 277.235C379.868 275.52 380.804 273.679 382.475 272.424C387.397 268.729 392.361 272.195 394.859 276.184C397.16 279.863 397.737 284.687 399.108 288.759C400.473 292.811 406.915 291.073 405.537 286.987C402.341 277.499 400.944 268.789 390.649 264.801C386.651 263.252 380.173 264.975 377.297 268.044C374.449 271.081 370.172 281.676 365.056 276.608C358.869 270.479 360.089 259.387 350.18 256.259C340.924 253.339 334.643 260.585 332.084 268.708C330.788 272.82 337.225 274.565 338.513 270.48" fill="#FFFFFE"/>
<path d="M311.535 609.332C310.476 605.509 309.651 600.695 313.437 598.047C317.147 595.452 322.273 598.661 325.357 600.695C329.951 603.72 336.248 608.832 342.128 606C348.636 602.865 348.988 596.76 348.888 590.388C348.768 582.756 356.207 580.427 362.175 583.429C365.899 585.304 368.861 588.751 372.104 591.321C375.435 593.963 380.187 589.277 376.817 586.608C369.287 580.637 363.312 573.879 352.86 575.776C348.605 576.548 345.541 580.139 343.541 583.673C341.377 587.495 344.46 601.208 337.429 599.947C332.827 599.12 328.641 594.6 324.555 592.477C320.987 590.625 317.101 590.26 313.213 590.985C303.888 592.725 303.104 603.872 305.107 611.105C306.251 615.243 312.684 613.483 311.535 609.332Z" fill="#FFFFFE"/>
<path d="M587.893 77.8456L574.781 72.7389L582.833 57.5643L571.924 67.7149L562.716 50.5402L563.512 69.7936L546.569 67.3202L557.335 76.7323L548.037 87.2842L562.795 80.4536L560.676 94.5336L566.919 83.5856L574.18 99.5869L572.525 81.7389L584.493 89.6749L578.331 80.1323L587.893 77.8456" fill="#F1971D"/>
<path d="M568.199 295.666L563.312 286.619L574.976 281.975L564.098 282.469L567.094 268.546L558.428 279.646L550.162 270.253L551.704 280.589L541.532 282.067L552.984 285.245L545.143 292.085L553.802 288.941L550.275 301.29L557.798 290.563L560.708 300.647L561.791 292.417L568.199 295.666" fill="#1BA9E8"/>
<path d="M63.8649 447.788L58.978 438.74L70.6416 434.095L59.7629 434.589L62.7597 420.666L54.093 431.767L45.8258 422.374L47.3696 432.71L37.1982 434.189L48.6493 437.365L40.8082 444.206L49.4665 441.062L45.94 453.41L53.4629 442.685L56.3744 452.769L57.4556 444.537L63.8649 447.788" fill="#FFFFFE"/>
<path d="M260.828 89.4482C266.168 89.4482 270.625 84.9909 270.625 79.6509C270.625 74.3096 266.168 69.8536 260.828 69.8536C255.488 69.8536 251.031 74.3096 251.031 79.6509C251.031 84.9909 255.488 89.4482 260.828 89.4482Z" fill="#F184A6"/>
<path d="M285.2 121.885C289.033 121.885 292.232 118.686 292.232 114.854C292.232 111.021 289.033 107.822 285.2 107.822C281.368 107.822 278.169 111.021 278.169 114.854C278.169 118.686 281.368 121.885 285.2 121.885Z" fill="#F184A6"/>
<path d="M189.065 405.858C193.435 405.858 197.081 402.212 197.081 397.842C197.081 393.473 193.435 389.828 189.065 389.828C184.695 389.828 181.049 393.473 181.049 397.842C181.049 402.212 184.695 405.858 189.065 405.858" fill="#F184A6"/>
<path d="M394.875 531.124C394.732 531.108 394.589 531.092 394.447 531.077C395.851 531.881 397.252 532.686 398.656 533.492C397.74 531.512 395.708 530.233 393.521 530.233C390.404 530.233 387.803 532.834 387.803 535.952C387.803 538.495 389.547 540.792 392 541.466C394.639 542.193 397.508 540.893 398.656 538.413C397.252 539.217 395.851 540.022 394.447 540.826C394.589 540.81 394.732 540.796 394.875 540.78C396.205 540.635 397.308 540.347 398.289 539.365C399.191 538.465 399.703 537.226 399.703 535.952C399.703 534.677 399.191 533.44 398.289 532.537C397.308 531.557 396.205 531.269 394.875 531.124" fill="#F184A6"/>
<path d="M256.767 625.447C262.004 625.447 266.376 621.076 266.376 615.838C266.376 610.599 262.004 606.229 256.767 606.229C251.528 606.229 247.157 610.599 247.157 615.838C247.157 621.076 251.528 625.447 256.767 625.447Z" fill="#F1971D"/>
<path d="M450.389 302.25C459.82 302.25 459.82 287.625 450.389 287.625C440.959 287.625 440.959 302.25 450.389 302.25Z" fill="#F1971D"/>
<path d="M48.248 249.361C53.6652 249.361 58.1856 244.841 58.1856 239.424C58.1856 234.007 53.6652 229.487 48.248 229.487C42.8308 229.487 38.3105 234.007 38.3105 239.424C38.3105 244.841 42.8308 249.361 48.248 249.361Z" fill="#F1971D"/>
<path d="M220.208 368.727C226.313 368.727 226.313 359.259 220.208 359.259C214.101 359.259 214.101 368.727 220.208 368.727Z" fill="#FFFFFE"/>
<path d="M306.864 50.6841C306.823 50.6801 306.781 50.6774 306.74 50.6734C308.22 51.8001 309.7 52.9268 311.18 54.0548C310.645 51.4042 308.203 49.4655 305.511 49.4655C302.341 49.4655 299.697 52.1094 299.697 55.2788C299.697 58.4468 302.341 61.0908 305.511 61.0908C308.203 61.0908 310.645 59.1521 311.18 56.5028C309.7 57.6281 308.22 58.7561 306.74 59.8828C306.781 59.8788 306.823 59.8761 306.864 59.8721C308.123 59.7601 309.193 59.4455 310.112 58.5268C310.971 57.6695 311.459 56.4921 311.459 55.2788C311.459 54.0641 310.971 52.8881 310.112 52.0308C309.193 51.1108 308.123 50.7948 306.864 50.6841" fill="#FFFFFE"/>
<path d="M488.302 441.157C498.76 441.157 498.76 424.939 488.302 424.939C477.844 424.939 477.844 441.157 488.302 441.157Z" fill="#FFFFFE"/>
<path d="M459.867 457.394C466.82 457.394 466.82 446.612 459.867 446.612C452.915 446.612 452.915 457.394 459.867 457.394Z" fill="#FFFFFE"/>
<path d="M607.456 269.389C612.72 269.389 617.112 264.997 617.112 259.733C617.112 254.47 612.72 250.077 607.456 250.077C602.192 250.077 597.8 254.47 597.8 259.733C597.8 264.997 602.192 269.389 607.456 269.389Z" fill="#FFFFFE"/>
<path d="M286.555 587.285C293.385 587.285 293.385 576.692 286.555 576.692C279.723 576.692 279.723 587.285 286.555 587.285Z" fill="#FFFFFE"/>
<path d="M614.225 595.554C614.121 595.542 614.016 595.53 613.912 595.519C615.472 596.416 617.035 597.31 618.596 598.206C617.579 595.997 615.309 594.57 612.871 594.57C609.396 594.57 606.496 597.47 606.496 600.945C606.496 603.78 608.441 606.34 611.176 607.092C614.119 607.902 617.32 606.453 618.596 603.683C617.035 604.58 615.472 605.474 613.912 606.37C614.016 606.359 614.121 606.347 614.225 606.336C615.712 606.168 616.939 605.854 618.036 604.755C619.043 603.75 619.616 602.369 619.616 600.945C619.616 599.521 619.043 598.138 618.036 597.134C616.939 596.036 615.712 595.722 614.225 595.554" fill="#FFFFFE"/>
<path d="M610.163 477.808C614.635 477.808 618.365 474.077 618.365 469.605C618.365 465.134 614.635 461.402 610.163 461.402C605.692 461.402 601.96 465.134 601.96 469.605C601.96 474.077 605.692 477.808 610.163 477.808Z" fill="#81C732"/>
<path d="M45.5407 515.34C53.8834 515.34 53.8834 502.403 45.5407 502.403C37.1974 502.403 37.1974 515.34 45.5407 515.34Z" fill="#81C732"/>
<path d="M56.3723 86.6865C67.1937 86.6865 67.1937 69.9052 56.3723 69.9052C45.551 69.9052 45.551 86.6865 56.3723 86.6865Z" fill="#81C732"/>
<path d="M311.176 207.177C311.166 207.188 311.155 207.197 311.144 207.208C313.323 206.926 315.5 206.646 317.679 206.365C314.79 204.521 310.997 204.772 308.531 207.238C305.749 210.02 305.749 214.666 308.531 217.446C311.311 220.228 315.959 220.228 318.739 217.446C321.207 214.98 321.456 211.188 319.612 208.3C319.332 210.477 319.051 212.656 318.769 214.833C318.78 214.822 318.789 214.812 318.8 214.801C320.809 212.661 320.925 209.304 318.8 207.177C316.675 205.052 313.318 205.168 311.176 207.177" fill="#81C732"/>
<path d="M41.4995 123.68C49.3902 123.68 49.3902 111.445 41.4995 111.445C33.6089 111.445 33.6089 123.68 41.4995 123.68" fill="#1BA9E8"/>
<path d="M401.645 66.2822C412.346 66.2822 412.346 49.6876 401.645 49.6876C390.945 49.6876 390.945 66.2822 401.645 66.2822Z" fill="#1BA9E8"/>
<path d="M534.338 50.5869C542.257 50.5869 542.257 38.3056 534.338 38.3056C526.418 38.3056 526.418 50.5869 534.338 50.5869Z" fill="#1BA9E8"/>
<path d="M434.141 336.096C441.82 336.096 441.82 324.189 434.141 324.189C426.464 324.189 426.464 336.096 434.141 336.096Z" fill="#7BC52F"/>
</svg>
